G04 EAGLE Gerber X2 export*
G75*
%MOMM*%
%FSLAX34Y34*%
%LPD*%
%AMOC8*
5,1,8,0,0,1.08239X$1,22.5*%
G01*
%ADD10C,2.032000*%
%ADD11C,1.879600*%
%ADD12C,1.625600*%
%ADD13C,2.540000*%
%ADD14R,1.879600X1.879600*%
%ADD15C,0.152400*%
%ADD16C,0.756400*%


D10*
X114870Y277400D03*
X86930Y277400D03*
D11*
X387200Y467600D03*
X361800Y467600D03*
X412600Y467600D03*
X157950Y786450D03*
X183350Y786450D03*
X160950Y940450D03*
X186350Y940450D03*
X228200Y1094100D03*
X253600Y1094100D03*
X512950Y1095850D03*
X538350Y1095850D03*
X577200Y936600D03*
X602600Y936600D03*
X585450Y779100D03*
X610850Y779100D03*
D12*
X86450Y348950D03*
X111850Y348950D03*
X111850Y374350D03*
X86450Y374350D03*
X86450Y323550D03*
X111850Y323550D03*
D11*
X709700Y271500D03*
X709700Y296900D03*
X709700Y322300D03*
X709700Y347700D03*
X709700Y373100D03*
X709700Y398500D03*
X660600Y343450D03*
X660600Y267250D03*
X448050Y757300D03*
X422650Y757300D03*
X397250Y757300D03*
X371850Y757300D03*
X346450Y757300D03*
X321050Y757300D03*
X295650Y757300D03*
D13*
X426950Y93600D03*
X361950Y93600D03*
D12*
X215200Y519450D03*
X240600Y519450D03*
X266000Y519450D03*
X291400Y519450D03*
X316800Y519450D03*
X342200Y519450D03*
X367600Y519450D03*
X393000Y519450D03*
X418400Y519450D03*
X443800Y519450D03*
X469200Y519450D03*
X494600Y519450D03*
X520000Y519450D03*
X545400Y519450D03*
X545400Y595650D03*
X520000Y595650D03*
X494600Y595650D03*
X469200Y595650D03*
X443800Y595650D03*
X418400Y595650D03*
X393000Y595650D03*
X367600Y595650D03*
X342200Y595650D03*
X316800Y595650D03*
X291400Y595650D03*
X266000Y595650D03*
X240600Y595650D03*
X215200Y595650D03*
D14*
X631550Y527100D03*
D11*
X656950Y527100D03*
X682350Y527100D03*
D14*
X484450Y675850D03*
D11*
X509850Y675850D03*
X535250Y675850D03*
D14*
X239350Y677600D03*
D11*
X264750Y677600D03*
X290150Y677600D03*
D14*
X78250Y520100D03*
D11*
X103650Y520100D03*
X129050Y520100D03*
D15*
X480000Y680000D02*
X480000Y725000D01*
X450000Y755000D01*
X480000Y680000D02*
X484450Y675850D01*
X450000Y755000D02*
X448050Y757300D01*
X390000Y515000D02*
X390000Y470000D01*
X390000Y515000D02*
X393000Y519450D01*
X390000Y470000D02*
X387200Y467600D01*
X370000Y540000D02*
X370000Y595000D01*
X370000Y540000D02*
X390000Y520000D01*
X370000Y595000D02*
X367600Y595650D01*
X390000Y520000D02*
X393000Y519450D01*
X445000Y675000D02*
X480000Y675000D01*
X445000Y675000D02*
X370000Y600000D01*
X480000Y675000D02*
X484450Y675850D01*
X370000Y600000D02*
X367600Y595650D01*
X235000Y675000D02*
X80000Y520000D01*
X235000Y675000D02*
X239350Y677600D01*
X80000Y520000D02*
X78250Y520100D01*
X340000Y95000D02*
X360000Y95000D01*
X340000Y95000D02*
X115000Y320000D01*
X360000Y95000D02*
X361950Y93600D01*
X115000Y320000D02*
X111850Y323550D01*
X685000Y345000D02*
X705000Y345000D01*
X685000Y345000D02*
X665000Y345000D01*
X660600Y343450D01*
X705000Y345000D02*
X709700Y347700D01*
X685000Y345000D02*
X685000Y525000D01*
X682350Y527100D01*
X415000Y595000D02*
X395000Y595000D01*
X393000Y595650D01*
X415000Y595000D02*
X418400Y595650D01*
X470000Y610000D02*
X535000Y675000D01*
X470000Y610000D02*
X430000Y610000D01*
X420000Y600000D01*
X535000Y675000D02*
X535250Y675850D01*
X420000Y600000D02*
X418400Y595650D01*
X265000Y600000D02*
X265000Y675000D01*
X265000Y600000D02*
X266000Y595650D01*
X265000Y675000D02*
X264750Y677600D01*
X290000Y595000D02*
X230000Y535000D01*
X115000Y535000D01*
X105000Y525000D01*
X290000Y595000D02*
X291400Y595650D01*
X105000Y525000D02*
X103650Y520100D01*
X270000Y515000D02*
X280000Y515000D01*
X330000Y465000D01*
X345000Y465000D01*
X270000Y515000D02*
X266000Y519450D01*
D16*
X345000Y465000D03*
D15*
X315000Y465000D02*
X285000Y465000D01*
X315000Y465000D02*
X455000Y325000D01*
X705000Y325000D01*
X709700Y322300D01*
D16*
X285000Y465000D03*
D15*
X665000Y270000D02*
X705000Y270000D01*
X665000Y270000D02*
X660600Y267250D01*
X705000Y270000D02*
X709700Y271500D01*
X85000Y280000D02*
X85000Y320000D01*
X86450Y323550D01*
X85000Y280000D02*
X86930Y277400D01*
X205000Y515000D02*
X215000Y515000D01*
X205000Y515000D02*
X70000Y380000D01*
X70000Y340000D01*
X86450Y323550D01*
X215000Y515000D02*
X215200Y519450D01*
X315000Y520000D02*
X315000Y580000D01*
X305000Y590000D01*
X305000Y680000D01*
X240000Y745000D01*
X200000Y745000D01*
X160000Y785000D01*
X315000Y520000D02*
X316800Y519450D01*
X160000Y785000D02*
X157950Y786450D01*
X470000Y515000D02*
X480000Y515000D01*
X490000Y505000D01*
X550000Y505000D01*
X630000Y585000D01*
X630000Y1005000D01*
X555000Y1080000D01*
X555000Y1100000D01*
X540000Y1115000D01*
X230000Y1115000D01*
X165000Y1050000D01*
X165000Y945000D01*
X469200Y519450D02*
X470000Y515000D01*
X160950Y940450D02*
X165000Y945000D01*
X495000Y530000D02*
X495000Y520000D01*
X495000Y530000D02*
X625000Y660000D01*
X625000Y990000D01*
X525000Y1090000D01*
X525000Y1105000D01*
X520000Y1110000D01*
X245000Y1110000D01*
X230000Y1095000D01*
X495000Y520000D02*
X494600Y519450D01*
X228200Y1094100D02*
X230000Y1095000D01*
X555000Y675000D02*
X540000Y660000D01*
X555000Y675000D02*
X555000Y1055000D01*
X515000Y1095000D01*
X512950Y1095850D01*
D16*
X540000Y660000D03*
D15*
X520000Y595000D02*
X510000Y595000D01*
X500000Y585000D01*
X490000Y585000D01*
X480000Y595000D01*
X480000Y600000D01*
X530000Y650000D01*
X540000Y650000D01*
X570000Y680000D01*
X570000Y930000D01*
X575000Y935000D01*
X520000Y595650D02*
X520000Y595000D01*
X575000Y935000D02*
X577200Y936600D01*
X295000Y440000D02*
X295000Y225000D01*
X425000Y95000D01*
X426950Y93600D01*
D16*
X295000Y440000D03*
D15*
X195000Y480000D02*
X90000Y375000D01*
X195000Y480000D02*
X305000Y480000D01*
X335000Y450000D01*
X415000Y450000D01*
X455000Y490000D01*
X455000Y585000D01*
X465000Y595000D01*
X90000Y375000D02*
X86450Y374350D01*
X465000Y595000D02*
X469200Y595650D01*
X585000Y690000D02*
X585000Y775000D01*
X585000Y690000D02*
X495000Y600000D01*
X585000Y775000D02*
X585450Y779100D01*
X495000Y600000D02*
X494600Y595650D01*
X85000Y360000D02*
X85000Y350000D01*
X85000Y360000D02*
X75000Y370000D01*
X75000Y380000D01*
X180000Y485000D01*
X305000Y485000D01*
X335000Y455000D01*
X395000Y455000D01*
X400000Y460000D01*
X400000Y485000D01*
X430000Y515000D01*
X430000Y585000D01*
X440000Y595000D01*
X86450Y348950D02*
X85000Y350000D01*
X440000Y595000D02*
X443800Y595650D01*
X440000Y515000D02*
X440000Y495000D01*
X412600Y467600D01*
X440000Y515000D02*
X443800Y519450D01*
X220000Y750000D02*
X185000Y785000D01*
X220000Y750000D02*
X290000Y750000D01*
X295000Y755000D01*
X185000Y785000D02*
X183350Y786450D01*
X295000Y755000D02*
X295650Y757300D01*
M02*
