G04 EAGLE Gerber X2 export*
G75*
%MOMM*%
%FSLAX34Y34*%
%LPD*%
%AMOC8*
5,1,8,0,0,1.08239X$1,22.5*%
G01*
%ADD10C,2.032000*%
%ADD11C,1.879600*%
%ADD12C,1.625600*%
%ADD13C,2.540000*%
%ADD14R,1.879600X1.879600*%
%ADD15C,0.152400*%
%ADD16C,0.756400*%


D10*
X114870Y277400D03*
X86930Y277400D03*
D11*
X387200Y467600D03*
X361800Y467600D03*
X412600Y467600D03*
X157950Y786450D03*
X183350Y786450D03*
X160950Y940450D03*
X186350Y940450D03*
X228200Y1094100D03*
X253600Y1094100D03*
X512950Y1095850D03*
X538350Y1095850D03*
X577200Y936600D03*
X602600Y936600D03*
X585450Y779100D03*
X610850Y779100D03*
D12*
X86450Y348950D03*
X111850Y348950D03*
X111850Y374350D03*
X86450Y374350D03*
X86450Y323550D03*
X111850Y323550D03*
D11*
X709700Y271500D03*
X709700Y296900D03*
X709700Y322300D03*
X709700Y347700D03*
X709700Y373100D03*
X709700Y398500D03*
X660600Y343450D03*
X660600Y267250D03*
X448050Y757300D03*
X422650Y757300D03*
X397250Y757300D03*
X371850Y757300D03*
X346450Y757300D03*
X321050Y757300D03*
X295650Y757300D03*
D13*
X426950Y93600D03*
X361950Y93600D03*
D12*
X215200Y519450D03*
X240600Y519450D03*
X266000Y519450D03*
X291400Y519450D03*
X316800Y519450D03*
X342200Y519450D03*
X367600Y519450D03*
X393000Y519450D03*
X418400Y519450D03*
X443800Y519450D03*
X469200Y519450D03*
X494600Y519450D03*
X520000Y519450D03*
X545400Y519450D03*
X545400Y595650D03*
X520000Y595650D03*
X494600Y595650D03*
X469200Y595650D03*
X443800Y595650D03*
X418400Y595650D03*
X393000Y595650D03*
X367600Y595650D03*
X342200Y595650D03*
X316800Y595650D03*
X291400Y595650D03*
X266000Y595650D03*
X240600Y595650D03*
X215200Y595650D03*
D14*
X631550Y527100D03*
D11*
X656950Y527100D03*
X682350Y527100D03*
D14*
X484450Y675850D03*
D11*
X509850Y675850D03*
X535250Y675850D03*
D14*
X239350Y677600D03*
D11*
X264750Y677600D03*
X290150Y677600D03*
D14*
X78250Y520100D03*
D11*
X103650Y520100D03*
X129050Y520100D03*
D15*
X705000Y455000D02*
X705000Y400000D01*
X705000Y455000D02*
X635000Y525000D01*
X705000Y400000D02*
X709700Y398500D01*
X635000Y525000D02*
X631550Y527100D01*
X630000Y530000D02*
X405000Y530000D01*
X395000Y520000D01*
X630000Y530000D02*
X631550Y527100D01*
X395000Y520000D02*
X393000Y519450D01*
X110000Y335000D02*
X110000Y325000D01*
X110000Y335000D02*
X100000Y345000D01*
X100000Y500000D01*
X80000Y520000D01*
X110000Y325000D02*
X111850Y323550D01*
X80000Y520000D02*
X78250Y520100D01*
X355000Y600000D02*
X365000Y600000D01*
X355000Y600000D02*
X290000Y665000D01*
X250000Y665000D01*
X240000Y675000D01*
X365000Y600000D02*
X367600Y595650D01*
X240000Y675000D02*
X239350Y677600D01*
X540000Y675000D02*
X685000Y530000D01*
X540000Y675000D02*
X535250Y675850D01*
X685000Y530000D02*
X682350Y527100D01*
X115000Y510000D02*
X115000Y375000D01*
X115000Y510000D02*
X125000Y520000D01*
X115000Y375000D02*
X111850Y374350D01*
X125000Y520000D02*
X129050Y520100D01*
X370000Y530000D02*
X370000Y550000D01*
X370000Y530000D02*
X370000Y520000D01*
X370000Y550000D02*
X415000Y595000D01*
X370000Y520000D02*
X367600Y519450D01*
X415000Y595000D02*
X418400Y595650D01*
X315000Y675000D02*
X295000Y675000D01*
X315000Y675000D02*
X390000Y600000D01*
X295000Y675000D02*
X290150Y677600D01*
X390000Y600000D02*
X393000Y595650D01*
X205000Y525000D02*
X130000Y525000D01*
X205000Y525000D02*
X210000Y530000D01*
X370000Y530000D01*
X130000Y525000D02*
X129050Y520100D01*
X220000Y600000D02*
X220000Y685000D01*
X225000Y690000D01*
X540000Y690000D01*
X695000Y535000D01*
X695000Y520000D01*
X690000Y515000D01*
X670000Y515000D01*
X660000Y525000D01*
X220000Y600000D02*
X215200Y595650D01*
X656950Y527100D02*
X660000Y525000D01*
X255000Y585000D02*
X245000Y595000D01*
X255000Y585000D02*
X400000Y585000D01*
X405000Y590000D01*
X405000Y600000D01*
X465000Y660000D01*
X495000Y660000D01*
X510000Y675000D01*
X245000Y595000D02*
X240600Y595650D01*
X510000Y675000D02*
X509850Y675850D01*
X345000Y465000D02*
X510000Y300000D01*
X705000Y300000D01*
X709700Y296900D01*
D16*
X345000Y465000D03*
D15*
X245000Y505000D02*
X245000Y515000D01*
X245000Y505000D02*
X285000Y465000D01*
X245000Y515000D02*
X240600Y519450D01*
D16*
X285000Y465000D03*
D15*
X115000Y275000D02*
X705000Y275000D01*
X115000Y275000D02*
X114870Y277400D01*
X705000Y275000D02*
X709700Y271500D01*
X545000Y600000D02*
X545000Y655000D01*
X540000Y660000D01*
X545000Y600000D02*
X545400Y595650D01*
D16*
X540000Y660000D03*
D15*
X295000Y515000D02*
X295000Y440000D01*
X295000Y515000D02*
X291400Y519450D01*
D16*
X295000Y440000D03*
D15*
X215000Y350000D02*
X115000Y350000D01*
X215000Y350000D02*
X380000Y515000D01*
X380000Y525000D01*
X440000Y585000D01*
X480000Y585000D01*
X490000Y595000D01*
X115000Y350000D02*
X111850Y348950D01*
X490000Y595000D02*
X494600Y595650D01*
X415000Y515000D02*
X365000Y465000D01*
X415000Y515000D02*
X418400Y519450D01*
X365000Y465000D02*
X361800Y467600D01*
X435000Y745000D02*
X425000Y755000D01*
X435000Y745000D02*
X580000Y745000D01*
X610000Y775000D01*
X425000Y755000D02*
X422650Y757300D01*
X610000Y775000D02*
X610850Y779100D01*
X415000Y740000D02*
X400000Y755000D01*
X415000Y740000D02*
X590000Y740000D01*
X625000Y775000D01*
X625000Y915000D01*
X605000Y935000D01*
X400000Y755000D02*
X397250Y757300D01*
X602600Y936600D02*
X605000Y935000D01*
X395000Y735000D02*
X375000Y755000D01*
X395000Y735000D02*
X590000Y735000D01*
X630000Y775000D01*
X630000Y1005000D01*
X540000Y1095000D01*
X371850Y757300D02*
X375000Y755000D01*
X540000Y1095000D02*
X538350Y1095850D01*
X345000Y755000D02*
X330000Y740000D01*
X185000Y740000D01*
X145000Y780000D01*
X145000Y985000D01*
X250000Y1090000D01*
X346450Y757300D02*
X345000Y755000D01*
X250000Y1090000D02*
X253600Y1094100D01*
X310000Y755000D02*
X320000Y755000D01*
X310000Y755000D02*
X300000Y745000D01*
X225000Y745000D01*
X200000Y770000D01*
X200000Y930000D01*
X190000Y940000D01*
X321050Y757300D02*
X320000Y755000D01*
X190000Y940000D02*
X186350Y940450D01*
M02*
