G04 EAGLE Gerber X2 export*
G75*
%MOMM*%
%FSLAX34Y34*%
%LPD*%
%AMOC8*
5,1,8,0,0,1.08239X$1,22.5*%
G01*
%ADD10C,2.082800*%
%ADD11C,1.828800*%
%ADD12C,2.743200*%
%ADD13R,2.082800X2.082800*%
%ADD14C,0.959600*%

G36*
X88690Y267359D02*
X88690Y267359D01*
X88733Y267371D01*
X88799Y267380D01*
X90416Y267834D01*
X90457Y267853D01*
X90485Y267862D01*
X90495Y267864D01*
X90499Y267866D01*
X90520Y267873D01*
X92034Y268601D01*
X92070Y268627D01*
X92129Y268657D01*
X93494Y269638D01*
X93525Y269670D01*
X93578Y269710D01*
X94752Y270912D01*
X94777Y270949D01*
X94822Y270997D01*
X95769Y272385D01*
X95787Y272426D01*
X95823Y272482D01*
X96515Y274013D01*
X96526Y274056D01*
X96552Y274117D01*
X96967Y275746D01*
X96970Y275790D01*
X96985Y275855D01*
X97111Y277530D01*
X97107Y277577D01*
X97109Y277649D01*
X96904Y279485D01*
X96890Y279531D01*
X96878Y279606D01*
X96318Y281367D01*
X96295Y281409D01*
X96269Y281481D01*
X95376Y283098D01*
X95346Y283136D01*
X95306Y283201D01*
X94115Y284613D01*
X94078Y284644D01*
X94026Y284700D01*
X92582Y285853D01*
X92540Y285876D01*
X92478Y285920D01*
X90837Y286769D01*
X90791Y286784D01*
X90722Y286815D01*
X88947Y287328D01*
X88899Y287333D01*
X88824Y287351D01*
X86984Y287507D01*
X86940Y287503D01*
X86875Y287507D01*
X85044Y287347D01*
X84998Y287334D01*
X84922Y287324D01*
X83158Y286810D01*
X83114Y286789D01*
X83042Y286764D01*
X81412Y285915D01*
X81374Y285886D01*
X81308Y285847D01*
X79875Y284697D01*
X79843Y284661D01*
X79786Y284610D01*
X78605Y283202D01*
X78581Y283161D01*
X78535Y283100D01*
X78325Y282718D01*
X77651Y281488D01*
X77636Y281443D01*
X77602Y281374D01*
X77050Y279621D01*
X77044Y279574D01*
X77024Y279500D01*
X76825Y277673D01*
X76828Y277627D01*
X76822Y277558D01*
X76945Y275882D01*
X76956Y275839D01*
X76962Y275773D01*
X77374Y274143D01*
X77392Y274103D01*
X77410Y274039D01*
X78098Y272506D01*
X78123Y272469D01*
X78152Y272409D01*
X79096Y271019D01*
X79127Y270987D01*
X79165Y270933D01*
X80336Y269727D01*
X80373Y269701D01*
X80420Y269655D01*
X81782Y268671D01*
X81823Y268652D01*
X81877Y268615D01*
X83390Y267882D01*
X83433Y267870D01*
X83444Y267865D01*
X83471Y267852D01*
X83476Y267851D01*
X83493Y267843D01*
X85110Y267385D01*
X85155Y267380D01*
X85219Y267364D01*
X86891Y267193D01*
X86939Y267197D01*
X87018Y267193D01*
X88690Y267359D01*
G37*
G36*
X116681Y267359D02*
X116681Y267359D01*
X116724Y267371D01*
X116790Y267380D01*
X118407Y267834D01*
X118448Y267853D01*
X118476Y267862D01*
X118486Y267864D01*
X118490Y267866D01*
X118511Y267873D01*
X120025Y268601D01*
X120061Y268627D01*
X120120Y268657D01*
X121485Y269638D01*
X121516Y269670D01*
X121569Y269710D01*
X122743Y270912D01*
X122768Y270949D01*
X122813Y270997D01*
X123760Y272385D01*
X123778Y272426D01*
X123814Y272482D01*
X124506Y274013D01*
X124517Y274056D01*
X124543Y274117D01*
X124958Y275746D01*
X124961Y275790D01*
X124976Y275855D01*
X125102Y277530D01*
X125098Y277577D01*
X125100Y277649D01*
X124895Y279485D01*
X124881Y279531D01*
X124869Y279606D01*
X124309Y281367D01*
X124286Y281409D01*
X124260Y281481D01*
X123367Y283098D01*
X123337Y283136D01*
X123297Y283201D01*
X122106Y284613D01*
X122069Y284644D01*
X122017Y284700D01*
X120573Y285853D01*
X120531Y285876D01*
X120469Y285920D01*
X118828Y286769D01*
X118782Y286784D01*
X118713Y286815D01*
X116938Y287328D01*
X116890Y287333D01*
X116815Y287351D01*
X114975Y287507D01*
X114931Y287503D01*
X114866Y287507D01*
X113035Y287347D01*
X112989Y287334D01*
X112913Y287324D01*
X111149Y286810D01*
X111105Y286789D01*
X111033Y286764D01*
X109403Y285915D01*
X109365Y285886D01*
X109299Y285847D01*
X107866Y284697D01*
X107834Y284661D01*
X107777Y284610D01*
X106596Y283202D01*
X106572Y283161D01*
X106526Y283100D01*
X106316Y282718D01*
X105642Y281488D01*
X105627Y281443D01*
X105593Y281374D01*
X105041Y279621D01*
X105035Y279574D01*
X105015Y279500D01*
X104816Y277673D01*
X104819Y277627D01*
X104813Y277558D01*
X104936Y275882D01*
X104947Y275839D01*
X104953Y275773D01*
X105365Y274143D01*
X105383Y274103D01*
X105401Y274039D01*
X106089Y272506D01*
X106114Y272469D01*
X106143Y272409D01*
X107087Y271019D01*
X107118Y270987D01*
X107156Y270933D01*
X108327Y269727D01*
X108364Y269701D01*
X108411Y269655D01*
X109773Y268671D01*
X109814Y268652D01*
X109868Y268615D01*
X111381Y267882D01*
X111424Y267870D01*
X111435Y267865D01*
X111462Y267852D01*
X111467Y267851D01*
X111484Y267843D01*
X113101Y267385D01*
X113146Y267380D01*
X113210Y267364D01*
X114882Y267193D01*
X114930Y267197D01*
X115009Y267193D01*
X116681Y267359D01*
G37*
D10*
X387200Y467600D03*
X361800Y467600D03*
X412600Y467600D03*
X157950Y786450D03*
X183350Y786450D03*
X160950Y940450D03*
X186350Y940450D03*
X228200Y1094100D03*
X253600Y1094100D03*
X512950Y1095850D03*
X538350Y1095850D03*
X577200Y936600D03*
X602600Y936600D03*
X585450Y779100D03*
X610850Y779100D03*
D11*
X86450Y348950D03*
X111850Y348950D03*
X111850Y374350D03*
X86450Y374350D03*
X86450Y323550D03*
X111850Y323550D03*
D10*
X709700Y271500D03*
X709700Y296900D03*
X709700Y322300D03*
X709700Y347700D03*
X709700Y373100D03*
X709700Y398500D03*
X660600Y343450D03*
X660600Y267250D03*
X448050Y757300D03*
X422650Y757300D03*
X397250Y757300D03*
X371850Y757300D03*
X346450Y757300D03*
X321050Y757300D03*
X295650Y757300D03*
D12*
X426950Y93600D03*
X361950Y93600D03*
D11*
X215200Y519450D03*
X240600Y519450D03*
X266000Y519450D03*
X291400Y519450D03*
X316800Y519450D03*
X342200Y519450D03*
X367600Y519450D03*
X393000Y519450D03*
X418400Y519450D03*
X443800Y519450D03*
X469200Y519450D03*
X494600Y519450D03*
X520000Y519450D03*
X545400Y519450D03*
X545400Y595650D03*
X520000Y595650D03*
X494600Y595650D03*
X469200Y595650D03*
X443800Y595650D03*
X418400Y595650D03*
X393000Y595650D03*
X367600Y595650D03*
X342200Y595650D03*
X316800Y595650D03*
X291400Y595650D03*
X266000Y595650D03*
X240600Y595650D03*
X215200Y595650D03*
D13*
X631550Y527100D03*
D10*
X656950Y527100D03*
X682350Y527100D03*
D13*
X484450Y675850D03*
D10*
X509850Y675850D03*
X535250Y675850D03*
D13*
X239350Y677600D03*
D10*
X264750Y677600D03*
X290150Y677600D03*
D13*
X78250Y520100D03*
D10*
X103650Y520100D03*
X129050Y520100D03*
D14*
X345000Y465000D03*
X285000Y465000D03*
X540000Y660000D03*
X295000Y440000D03*
M02*
