M48
;GenerationSoftware,Autodesk,EAGLE,8.7.1*%
;CreationDate,2018-04-07T04:17:49Z*%
FMAT,2
ICI,OFF
METRIC,TZ,000.000
T6C0.350
T5C0.800
T4C0.813
T3C0.900
T2C1.016
T1C1.300
%
G90
M71
T1
X42695Y9360
X36195Y9360
T2
X12905Y52010
X10365Y52010
X11487Y27740
X8693Y27740
X26475Y67760
X23935Y67760
X53525Y67585
X50985Y67585
X48445Y67585
X68235Y52710
X65695Y52710
X63155Y52710
X29015Y67760
X7825Y52010
X29565Y75730
X32105Y75730
X34645Y75730
X37185Y75730
X39725Y75730
X42265Y75730
X44805Y75730
X70970Y39850
X70970Y37310
X70970Y34770
X70970Y32230
X70970Y27150
X70970Y29690
T3
X11185Y32355
X8645Y32355
X8645Y37435
X11185Y37435
X66060Y34345
X66060Y26725
X11185Y34895
X8645Y34895
T4
X61085Y77910
X58545Y77910
X60260Y93660
X57720Y93660
X53835Y109585
X51295Y109585
X25360Y109410
X21520Y51945
X24060Y51945
X26600Y51945
X29140Y51945
X31680Y51945
X34220Y51945
X36760Y51945
X39300Y51945
X41840Y51945
X44380Y51945
X46920Y51945
X49460Y51945
X52000Y51945
X54540Y51945
X54540Y59565
X52000Y59565
X49460Y59565
X46920Y59565
X44380Y59565
X41840Y59565
X39300Y59565
X36760Y59565
X34220Y59565
X31680Y59565
X29140Y59565
X26600Y59565
X24060Y59565
X21520Y59565
X22820Y109410
X18635Y94045
X16095Y94045
X18335Y78645
X15795Y78645
T5
X41260Y46760
X36180Y46760
X38720Y46760
T6
X28500Y46500
X54000Y66000
X29500Y44000
X34500Y46500
M30