%
M48
M72
T01C0.03150
T02C0.03200
T03C0.03543
T04C0.04000
T05C0.05118
%
T01
X148003Y190539
X158003Y190539
X168003Y190539
T02
X242806Y375185
X232806Y375185
X236054Y313177
X246054Y313177
X220287Y240953
X210287Y240953
X200287Y240953
X190287Y240953
X180287Y240953
X170287Y240953
X160287Y240953
X150287Y240953
X140287Y240953
X130287Y240953
X120287Y240953
X110287Y240953
X100287Y240953
X90287Y240953
X90287Y210953
X100287Y210953
X110287Y210953
X120287Y210953
X130287Y210953
X140287Y210953
X150287Y210953
X160287Y210953
X170287Y210953
X180287Y210953
X190287Y210953
X200287Y210953
X210287Y210953
X220287Y210953
X77747Y316071
X67747Y316071
X68928Y376701
X78928Y376701
X95405Y437193
X105405Y437193
X217511Y437882
X207511Y437882
T03
X265641Y141661
X265641Y111661
X49598Y133827
X49598Y143827
X49598Y153827
X39598Y153827
X39598Y143827
X39598Y133827
T04
X39787Y115657
X50787Y115657
X46369Y211209
X36369Y211209
X56369Y211209
X99795Y273217
X109795Y273217
X119795Y273217
X121960Y304594
X131960Y304594
X141960Y304594
X151960Y304594
X161960Y304594
X171960Y304594
X181960Y304594
X196291Y272528
X206291Y272528
X216291Y272528
X254204Y213965
X264204Y213965
X274204Y213965
X284972Y163335
X284972Y153335
X284972Y143335
X284972Y133335
X284972Y123335
X284972Y113335
T05
X173653Y43295
X148062Y43295
M30
