G75*
%MOIN*%
%OFA0B0*%
%FSLAX25Y25*%
%IPPOS*%
%LPD*%
%AMOC8*
5,1,8,0,0,1.08239X$1,22.5*
%
%ADD10C,0.00600*%
D10*
X0048968Y0275146D02*
X0046271Y0272502D01*
X0043641Y0269793D01*
X0041077Y0267020D01*
X0038582Y0264186D01*
X0036156Y0261292D01*
X0033803Y0258339D01*
X0031522Y0255329D01*
X0029315Y0252265D01*
X0027184Y0249147D01*
X0025130Y0245979D01*
X0023154Y0242761D01*
X0021257Y0239495D01*
X0019441Y0236185D01*
X0017706Y0232831D01*
X0016054Y0229435D01*
X0014485Y0226000D01*
X0013001Y0222528D01*
X0011602Y0219021D01*
X0010289Y0215480D01*
X0009063Y0211908D01*
X0007925Y0208308D01*
X0006875Y0204681D01*
X0005914Y0201029D01*
X0005043Y0197354D01*
X0004261Y0193660D01*
X0003571Y0189947D01*
X0002971Y0186219D01*
X0002463Y0182477D01*
X0002046Y0178724D01*
X0001721Y0174962D01*
X0001489Y0171193D01*
X0001348Y0167419D01*
X0001300Y0163644D01*
X0001344Y0159868D01*
X0001481Y0156094D01*
X0001709Y0152325D01*
X0002030Y0148562D01*
X0002443Y0144809D01*
X0002947Y0141066D01*
X0003543Y0137337D01*
X0004229Y0133624D01*
X0005007Y0129929D01*
X0005874Y0126254D01*
X0006831Y0122601D01*
X0007877Y0118972D01*
X0009011Y0115370D01*
X0010233Y0111797D01*
X0011542Y0108255D01*
X0012938Y0104747D01*
X0014418Y0101273D01*
X0015984Y0097836D01*
X0017632Y0094439D01*
X0019364Y0091083D01*
X0021176Y0087770D01*
X0023070Y0084503D01*
X0025042Y0081283D01*
X0027093Y0078112D01*
X0029221Y0074993D01*
X0031424Y0071926D01*
X0033701Y0068914D01*
X0036052Y0065958D01*
X0038474Y0063061D01*
X0040966Y0060224D01*
X0043527Y0057449D01*
X0046155Y0054737D01*
X0048848Y0052091D01*
X0051606Y0049511D01*
X0054425Y0046999D01*
X0057306Y0044557D01*
X0060245Y0042186D01*
X0063241Y0039887D01*
X0066292Y0037663D01*
X0069397Y0035513D01*
X0072553Y0033441D01*
X0075760Y0031446D01*
X0079014Y0029530D01*
X0082314Y0027694D01*
X0085657Y0025940D01*
X0089043Y0024267D01*
X0092469Y0022678D01*
X0095932Y0021174D01*
X0099431Y0019754D01*
X0102964Y0018420D01*
X0106529Y0017173D01*
X0110122Y0016014D01*
X0113743Y0014943D01*
X0117390Y0013961D01*
X0121059Y0013068D01*
X0124749Y0012265D01*
X0128457Y0011552D01*
X0132182Y0010931D01*
X0135920Y0010401D01*
X0139671Y0009962D01*
X0143431Y0009615D01*
X0147199Y0009360D01*
X0150972Y0009198D01*
X0154747Y0009127D01*
X0158523Y0009149D01*
X0162298Y0009263D01*
X0166068Y0009470D01*
X0169832Y0009769D01*
X0173588Y0010159D01*
X0177334Y0010642D01*
X0181066Y0011215D01*
X0184783Y0011880D01*
X0188483Y0012636D01*
X0192163Y0013481D01*
X0195822Y0014417D01*
X0199456Y0015441D01*
X0203065Y0016555D01*
X0206645Y0017756D01*
X0210194Y0019044D01*
X0213711Y0020419D01*
X0217194Y0021879D01*
X0220640Y0023424D01*
X0224046Y0025052D01*
X0227412Y0026764D01*
X0230736Y0028557D01*
X0234014Y0030431D01*
X0237246Y0032385D01*
X0240428Y0034417D01*
X0243561Y0036526D01*
X0246640Y0038712D01*
X0249666Y0040971D01*
X0252635Y0043305D01*
X0255546Y0045710D01*
X0258398Y0048185D01*
X0261188Y0050730D01*
X0263915Y0053342D01*
X0266577Y0056019D01*
X0269174Y0058761D01*
X0271702Y0061566D01*
X0274161Y0064432D01*
X0276549Y0067357D01*
X0278865Y0070340D01*
X0281108Y0073378D01*
X0283275Y0076470D01*
X0285366Y0079614D01*
X0287380Y0082809D01*
X0289315Y0086052D01*
X0291170Y0089341D01*
X0292944Y0092674D01*
X0294636Y0096050D01*
X0296245Y0099466D01*
X0297771Y0102921D01*
X0299211Y0106411D01*
X0300565Y0109936D01*
X0301833Y0113493D01*
X0303013Y0117080D01*
X0304106Y0120695D01*
X0305109Y0124335D01*
X0306024Y0127999D01*
X0306848Y0131684D01*
X0307583Y0135388D01*
X0308226Y0139109D01*
X0308778Y0142845D01*
X0309239Y0146593D01*
X0309608Y0150351D01*
X0309885Y0154117D01*
X0310070Y0157889D01*
X0310162Y0161664D01*
X0310163Y0165440D01*
X0310070Y0169215D01*
X0309886Y0172987D01*
X0309610Y0176753D01*
X0309241Y0180511D01*
X0308781Y0184259D01*
X0308229Y0187995D01*
X0307586Y0191716D01*
X0306852Y0195420D01*
X0306028Y0199105D01*
X0305114Y0202769D01*
X0304111Y0206409D01*
X0303019Y0210024D01*
X0301839Y0213611D01*
X0300572Y0217168D01*
X0299218Y0220693D01*
X0297778Y0224184D01*
X0296253Y0227639D01*
X0294644Y0231056D01*
X0292953Y0234432D01*
X0291179Y0237765D01*
X0289324Y0241055D01*
X0287390Y0244297D01*
X0285376Y0247492D01*
X0283285Y0250637D01*
X0281118Y0253729D01*
X0278876Y0256768D01*
X0276561Y0259751D01*
X0274173Y0262676D01*
X0271714Y0265542D01*
X0269186Y0268347D01*
X0266590Y0271089D01*
X0263928Y0273768D01*
X0263928Y0273079D02*
X0261862Y0372291D01*
X0215011Y0376425D02*
X0217767Y0306839D01*
X0215012Y0376425D02*
X0214969Y0377860D01*
X0214892Y0379292D01*
X0214779Y0380723D01*
X0214632Y0382150D01*
X0214450Y0383573D01*
X0214234Y0384992D01*
X0213983Y0386404D01*
X0213697Y0387810D01*
X0213378Y0389209D01*
X0213024Y0390600D01*
X0212637Y0391981D01*
X0212217Y0393353D01*
X0211763Y0394714D01*
X0211276Y0396064D01*
X0210756Y0397401D01*
X0210204Y0398725D01*
X0209619Y0400036D01*
X0209003Y0401332D01*
X0208356Y0402612D01*
X0207678Y0403876D01*
X0206969Y0405124D01*
X0206230Y0406354D01*
X0205461Y0407565D01*
X0204663Y0408757D01*
X0203836Y0409930D01*
X0202981Y0411082D01*
X0202098Y0412213D01*
X0201188Y0413322D01*
X0200251Y0414409D01*
X0199287Y0415472D01*
X0198299Y0416512D01*
X0197285Y0417527D01*
X0196246Y0418517D01*
X0195184Y0419482D01*
X0194099Y0420421D01*
X0192991Y0421333D01*
X0191862Y0422217D01*
X0190711Y0423074D01*
X0189540Y0423903D01*
X0188348Y0424702D01*
X0187138Y0425473D01*
X0185909Y0426214D01*
X0184663Y0426925D01*
X0183400Y0427605D01*
X0182120Y0428254D01*
X0180825Y0428872D01*
X0179516Y0429458D01*
X0178192Y0430012D01*
X0176855Y0430534D01*
X0175507Y0431023D01*
X0174146Y0431479D01*
X0172775Y0431901D01*
X0171394Y0432290D01*
X0170004Y0432646D01*
X0168606Y0432967D01*
X0167200Y0433255D01*
X0165788Y0433508D01*
X0164370Y0433726D01*
X0162947Y0433910D01*
X0161520Y0434060D01*
X0160089Y0434174D01*
X0158657Y0434254D01*
X0157223Y0434298D01*
X0155788Y0434308D01*
X0154353Y0434283D01*
X0152920Y0434223D01*
X0151488Y0434128D01*
X0150059Y0433998D01*
X0148634Y0433834D01*
X0147213Y0433634D01*
X0145797Y0433401D01*
X0144388Y0433132D01*
X0142985Y0432830D01*
X0141591Y0432493D01*
X0140204Y0432123D01*
X0138828Y0431719D01*
X0137461Y0431282D01*
X0136106Y0430811D01*
X0134762Y0430308D01*
X0133431Y0429772D01*
X0132114Y0429203D01*
X0130810Y0428603D01*
X0129522Y0427972D01*
X0128250Y0427309D01*
X0126994Y0426615D01*
X0125755Y0425891D01*
X0124534Y0425137D01*
X0123332Y0424354D01*
X0122150Y0423541D01*
X0120987Y0422700D01*
X0119846Y0421831D01*
X0118726Y0420934D01*
X0117628Y0420010D01*
X0116553Y0419060D01*
X0115501Y0418084D01*
X0114474Y0417083D01*
X0113471Y0416057D01*
X0112493Y0415006D01*
X0111541Y0413933D01*
X0110616Y0412836D01*
X0109718Y0411717D01*
X0108847Y0410577D01*
X0108004Y0409416D01*
X0107190Y0408234D01*
X0106405Y0407034D01*
X0105649Y0405814D01*
X0104923Y0404576D01*
X0104228Y0403321D01*
X0103563Y0402050D01*
X0102929Y0400762D01*
X0102327Y0399460D01*
X0101757Y0398143D01*
X0101219Y0396813D01*
X0100714Y0395470D01*
X0100241Y0394116D01*
X0099802Y0392750D01*
X0099396Y0391374D01*
X0099024Y0389988D01*
X0098685Y0388594D01*
X0098381Y0387192D01*
X0098110Y0385782D01*
X0097875Y0384367D01*
X0097673Y0382947D01*
X0097507Y0381522D01*
X0097375Y0380093D01*
X0097278Y0378661D01*
X0097216Y0377228D01*
X0097188Y0375793D01*
X0097196Y0374359D01*
X0097196Y0374358D02*
X0095129Y0307528D01*
X0048968Y0275146D02*
X0051035Y0380559D01*
X0051034Y0380559D02*
X0051158Y0383137D01*
X0051345Y0385710D01*
X0051595Y0388279D01*
X0051907Y0390840D01*
X0052282Y0393393D01*
X0052719Y0395936D01*
X0053218Y0398468D01*
X0053779Y0400987D01*
X0054402Y0403491D01*
X0055085Y0405979D01*
X0055830Y0408450D01*
X0056634Y0410902D01*
X0057498Y0413333D01*
X0058422Y0415743D01*
X0059404Y0418129D01*
X0060444Y0420491D01*
X0061541Y0422826D01*
X0062695Y0425134D01*
X0063906Y0427413D01*
X0065171Y0429662D01*
X0066492Y0431879D01*
X0067866Y0434063D01*
X0069293Y0436213D01*
X0070772Y0438328D01*
X0072303Y0440405D01*
X0073884Y0442445D01*
X0075514Y0444445D01*
X0077193Y0446405D01*
X0078919Y0448323D01*
X0080692Y0450198D01*
X0082510Y0452029D01*
X0084372Y0453816D01*
X0086277Y0455556D01*
X0088224Y0457249D01*
X0090212Y0458894D01*
X0092240Y0460490D01*
X0094306Y0462036D01*
X0096410Y0463531D01*
X0098549Y0464974D01*
X0100723Y0466364D01*
X0102930Y0467701D01*
X0105169Y0468983D01*
X0107439Y0470211D01*
X0109739Y0471382D01*
X0112066Y0472497D01*
X0114420Y0473554D01*
X0116799Y0474554D01*
X0119202Y0475495D01*
X0121627Y0476377D01*
X0124072Y0477199D01*
X0126538Y0477962D01*
X0129021Y0478664D01*
X0131520Y0479305D01*
X0134035Y0479884D01*
X0136563Y0480402D01*
X0139103Y0480859D01*
X0141653Y0481252D01*
X0144212Y0481584D01*
X0146779Y0481852D01*
X0149351Y0482058D01*
X0151927Y0482201D01*
X0154507Y0482281D01*
X0157087Y0482297D01*
X0159667Y0482251D01*
X0162245Y0482141D01*
X0164820Y0481969D01*
X0167390Y0481733D01*
X0169953Y0481435D01*
X0172508Y0481074D01*
X0175053Y0480651D01*
X0177588Y0480166D01*
X0180110Y0479619D01*
X0182617Y0479010D01*
X0185109Y0478340D01*
X0187584Y0477610D01*
X0190040Y0476819D01*
X0192477Y0475968D01*
X0194891Y0475058D01*
X0197283Y0474089D01*
X0199650Y0473062D01*
X0201992Y0471978D01*
X0204306Y0470836D01*
X0206592Y0469638D01*
X0208847Y0468385D01*
X0211072Y0467077D01*
X0213263Y0465715D01*
X0215421Y0464300D01*
X0217544Y0462832D01*
X0219630Y0461313D01*
X0221678Y0459743D01*
X0223687Y0458124D01*
X0225656Y0456456D01*
X0227584Y0454740D01*
X0229469Y0452978D01*
X0231310Y0451170D01*
X0233107Y0449318D01*
X0234857Y0447423D01*
X0236561Y0445485D01*
X0238217Y0443506D01*
X0239825Y0441487D01*
X0241382Y0439429D01*
X0242888Y0437334D01*
X0244343Y0435203D01*
X0245745Y0433037D01*
X0247094Y0430837D01*
X0248389Y0428605D01*
X0249629Y0426341D01*
X0250813Y0424049D01*
X0251940Y0421727D01*
X0253011Y0419380D01*
X0254023Y0417006D01*
X0254978Y0414609D01*
X0255873Y0412188D01*
X0256709Y0409747D01*
X0257485Y0407286D01*
X0258201Y0404807D01*
X0258856Y0402311D01*
X0259449Y0399800D01*
X0259981Y0397275D01*
X0260451Y0394737D01*
X0260859Y0392189D01*
X0261204Y0389632D01*
X0261487Y0387067D01*
X0261707Y0384496D01*
X0261864Y0381920D01*
X0261958Y0379342D01*
X0261989Y0376761D01*
X0261957Y0374181D01*
X0261861Y0371602D01*
X0218456Y0306150D02*
X0215028Y0307628D01*
X0211566Y0309022D01*
X0208070Y0310332D01*
X0204544Y0311556D01*
X0200989Y0312694D01*
X0197407Y0313745D01*
X0193801Y0314709D01*
X0190172Y0315584D01*
X0186523Y0316371D01*
X0182856Y0317069D01*
X0179173Y0317678D01*
X0175477Y0318196D01*
X0171769Y0318625D01*
X0168051Y0318964D01*
X0164327Y0319211D01*
X0160597Y0319368D01*
X0156865Y0319435D01*
X0153132Y0319410D01*
X0149401Y0319295D01*
X0145674Y0319089D01*
X0141953Y0318792D01*
X0138240Y0318405D01*
X0134538Y0317927D01*
X0130849Y0317360D01*
X0127174Y0316703D01*
X0123517Y0315956D01*
X0119879Y0315121D01*
X0116262Y0314198D01*
X0112669Y0313187D01*
X0109101Y0312089D01*
X0105561Y0310904D01*
X0102051Y0309634D01*
X0098573Y0308279D01*
X0095129Y0306839D01*
M02*
