M48
;GenerationSoftware,Autodesk,EAGLE,8.7.1*%
;CreationDate,2018-04-08T17:27:11Z*%
FMAT,2
ICI,OFF
METRIC,TZ,000.000
T5C0.800
T4C0.813
T3C0.900
T2C1.016
T1C1.300
%
G90
M71
T1
X35195Y4360
X41695Y4360
T2
X9540Y50000
X7000Y50000
X24905Y67010
X22365Y67010
X19825Y67010
X35015Y66760
X32475Y66760
X29935Y66760
X45525Y66585
X42985Y66585
X40445Y66585
X56235Y66710
X53695Y66710
X51155Y66710
X14487Y63740
X30565Y74730
X33105Y74730
X35645Y74730
X38185Y74730
X11693Y63740
X40725Y74730
X72970Y52150
X70430Y52150
X67890Y52150
X65350Y52150
X62810Y52150
X60270Y52150
X43265Y74730
X45805Y74730
T3
X68870Y60535
X61250Y60535
X6375Y54625
X11455Y57165
X11455Y54625
X8915Y54625
X8915Y57165
X6375Y57165
T4
X61085Y77910
X21520Y51945
X26600Y51945
X24060Y51945
X29140Y51945
X31680Y51945
X34220Y51945
X36760Y51945
X39300Y51945
X41840Y51945
X44380Y51945
X46920Y51945
X49460Y51945
X52000Y51945
X54540Y51945
X54540Y59565
X52000Y59565
X49460Y59565
X46920Y59565
X44380Y59565
X41840Y59565
X39300Y59565
X36760Y59565
X34220Y59565
X31680Y59565
X29140Y59565
X26600Y59565
X24060Y59565
X21520Y59565
X58545Y77910
X60260Y93660
X57720Y93660
X53835Y109585
X51295Y109585
X25360Y109410
X22820Y109410
X18635Y94045
X16095Y94045
X18335Y78645
X15795Y78645
T5
X41260Y46760
X38720Y46760
X36180Y46760
M30