G04 EAGLE Gerber X2 export*
G75*
%MOMM*%
%FSLAX34Y34*%
%LPD*%
%AMOC8*
5,1,8,0,0,1.08239X$1,22.5*%
G01*
%ADD10C,0.152400*%
%ADD11C,0.203200*%


D10*
X540750Y761250D02*
X532044Y765004D01*
X523248Y768545D01*
X514370Y771872D01*
X505413Y774981D01*
X496383Y777871D01*
X487285Y780541D01*
X478125Y782989D01*
X468908Y785213D01*
X459640Y787212D01*
X450326Y788985D01*
X440972Y790530D01*
X431583Y791848D01*
X422164Y792937D01*
X412722Y793796D01*
X403261Y794426D01*
X393788Y794825D01*
X384309Y794993D01*
X374828Y794931D01*
X365351Y794637D01*
X355884Y794114D01*
X346433Y793360D01*
X337003Y792377D01*
X327599Y791164D01*
X318228Y789723D01*
X308895Y788054D01*
X299605Y786158D01*
X290364Y784038D01*
X281177Y781692D01*
X272050Y779125D01*
X262988Y776335D01*
X253997Y773326D01*
X245082Y770099D01*
X236248Y766657D01*
X227500Y763000D01*
X227500Y764750D02*
X232750Y934500D01*
X532000Y939750D02*
X539000Y763000D01*
X532000Y939750D02*
X531892Y943393D01*
X531695Y947032D01*
X531409Y950665D01*
X531035Y954290D01*
X530573Y957905D01*
X530023Y961508D01*
X529386Y965096D01*
X528661Y968667D01*
X527850Y972220D01*
X526952Y975752D01*
X525968Y979261D01*
X524900Y982746D01*
X523747Y986203D01*
X522510Y989631D01*
X521189Y993027D01*
X519787Y996391D01*
X518303Y999720D01*
X516738Y1003011D01*
X515094Y1006263D01*
X513371Y1009475D01*
X511571Y1012643D01*
X509693Y1015767D01*
X507741Y1018844D01*
X505714Y1021872D01*
X503613Y1024851D01*
X501441Y1027777D01*
X499198Y1030650D01*
X496886Y1033467D01*
X494506Y1036226D01*
X492060Y1038928D01*
X489548Y1041568D01*
X486973Y1044147D01*
X484336Y1046662D01*
X481639Y1049113D01*
X478882Y1051497D01*
X476068Y1053813D01*
X473199Y1056060D01*
X470276Y1058236D01*
X467301Y1060341D01*
X464275Y1062372D01*
X461201Y1064330D01*
X458080Y1066211D01*
X454914Y1068017D01*
X451705Y1069744D01*
X448455Y1071393D01*
X445166Y1072962D01*
X441840Y1074451D01*
X438478Y1075858D01*
X435083Y1077183D01*
X431657Y1078425D01*
X428202Y1079584D01*
X424719Y1080657D01*
X421211Y1081646D01*
X417681Y1082549D01*
X414129Y1083365D01*
X410558Y1084095D01*
X406971Y1084738D01*
X403369Y1085293D01*
X399755Y1085760D01*
X396130Y1086139D01*
X392498Y1086430D01*
X388859Y1086632D01*
X385216Y1086746D01*
X381572Y1086771D01*
X377928Y1086707D01*
X374287Y1086554D01*
X370651Y1086313D01*
X367021Y1085983D01*
X363401Y1085565D01*
X359792Y1085059D01*
X356196Y1084465D01*
X352616Y1083784D01*
X349054Y1083016D01*
X345511Y1082161D01*
X341990Y1081221D01*
X338493Y1080195D01*
X335022Y1079084D01*
X331580Y1077888D01*
X328167Y1076610D01*
X324786Y1075248D01*
X321440Y1073805D01*
X318130Y1072281D01*
X314858Y1070676D01*
X311626Y1068993D01*
X308435Y1067231D01*
X305289Y1065392D01*
X302189Y1063476D01*
X299136Y1061486D01*
X296132Y1059422D01*
X293179Y1057286D01*
X290280Y1055078D01*
X287435Y1052801D01*
X284646Y1050455D01*
X281916Y1048041D01*
X279244Y1045562D01*
X276634Y1043019D01*
X274087Y1040412D01*
X271604Y1037745D01*
X269187Y1035018D01*
X266837Y1032232D01*
X264555Y1029391D01*
X262343Y1026494D01*
X260202Y1023545D01*
X258134Y1020544D01*
X256140Y1017494D01*
X254220Y1014396D01*
X252376Y1011253D01*
X250610Y1008065D01*
X248922Y1004835D01*
X247312Y1001566D01*
X245783Y998258D01*
X244335Y994913D01*
X242969Y991535D01*
X241685Y988124D01*
X240485Y984683D01*
X239369Y981214D01*
X238338Y977718D01*
X237392Y974199D01*
X236532Y970657D01*
X235759Y967096D01*
X235073Y963517D01*
X234474Y959922D01*
X233962Y956314D01*
X233539Y952694D01*
X233204Y949065D01*
X232958Y945429D01*
X232800Y941788D01*
X232730Y938144D01*
X232750Y934500D01*
X115499Y950250D02*
X115814Y956797D01*
X116288Y963334D01*
X116922Y969858D01*
X117715Y976364D01*
X118668Y982849D01*
X119778Y989309D01*
X121047Y995739D01*
X122472Y1002137D01*
X124053Y1008498D01*
X125789Y1014818D01*
X127679Y1021094D01*
X129722Y1027322D01*
X131917Y1033498D01*
X134263Y1039618D01*
X136757Y1045679D01*
X139398Y1051678D01*
X142186Y1057610D01*
X145118Y1063472D01*
X148192Y1069261D01*
X151407Y1074972D01*
X154761Y1080604D01*
X158251Y1086151D01*
X161876Y1091612D01*
X165634Y1096983D01*
X169521Y1102259D01*
X173537Y1107440D01*
X177678Y1112520D01*
X181942Y1117498D01*
X186327Y1122370D01*
X190829Y1127133D01*
X195446Y1131785D01*
X200176Y1136322D01*
X205016Y1140743D01*
X209962Y1145044D01*
X215011Y1149222D01*
X220162Y1153276D01*
X225410Y1157202D01*
X230752Y1161000D01*
X236186Y1164665D01*
X241708Y1168196D01*
X247314Y1171591D01*
X253002Y1174849D01*
X258768Y1177966D01*
X264608Y1180941D01*
X270520Y1183772D01*
X276498Y1186458D01*
X282541Y1188997D01*
X288644Y1191387D01*
X294803Y1193628D01*
X301016Y1195717D01*
X307278Y1197654D01*
X313585Y1199437D01*
X319934Y1201065D01*
X326321Y1202537D01*
X332742Y1203853D01*
X339193Y1205011D01*
X345671Y1206011D01*
X352171Y1206853D01*
X358689Y1207535D01*
X365223Y1208058D01*
X371767Y1208421D01*
X378319Y1208623D01*
X384873Y1208666D01*
X391426Y1208548D01*
X397975Y1208269D01*
X404514Y1207831D01*
X411041Y1207233D01*
X417552Y1206476D01*
X424042Y1205559D01*
X430508Y1204484D01*
X436945Y1203251D01*
X443350Y1201862D01*
X449720Y1200316D01*
X456049Y1198614D01*
X462336Y1196759D01*
X468575Y1194750D01*
X474763Y1192589D01*
X480896Y1190278D01*
X486971Y1187817D01*
X492984Y1185208D01*
X498931Y1182454D01*
X504809Y1179554D01*
X510615Y1176512D01*
X516344Y1173328D01*
X521994Y1170006D01*
X527561Y1166546D01*
X533042Y1162951D01*
X538433Y1159224D01*
X543731Y1155365D01*
X548933Y1151378D01*
X554037Y1147265D01*
X559038Y1143029D01*
X563934Y1138671D01*
X568722Y1134195D01*
X573399Y1129603D01*
X577963Y1124899D01*
X582410Y1120084D01*
X586738Y1115161D01*
X590944Y1110135D01*
X595026Y1105007D01*
X598982Y1099781D01*
X602808Y1094459D01*
X606503Y1089046D01*
X610065Y1083544D01*
X613491Y1077956D01*
X616780Y1072286D01*
X619929Y1066538D01*
X622936Y1060714D01*
X625800Y1054818D01*
X628519Y1048854D01*
X631091Y1042826D01*
X633515Y1036736D01*
X635790Y1030589D01*
X637913Y1024388D01*
X639884Y1018137D01*
X641702Y1011840D01*
X643365Y1005500D01*
X644873Y999121D01*
X646224Y992708D01*
X647418Y986263D01*
X648454Y979791D01*
X649331Y973296D01*
X650049Y966781D01*
X650608Y960250D01*
X651007Y953708D01*
X651246Y947158D01*
X651324Y940604D01*
X651242Y934050D01*
X651000Y927500D01*
X115500Y950250D02*
X110250Y682500D01*
X656250Y677250D02*
X651000Y929250D01*
X656250Y679000D02*
X663012Y672198D01*
X669605Y665232D01*
X676027Y658107D01*
X682272Y650827D01*
X688337Y643397D01*
X694219Y635821D01*
X699914Y628103D01*
X705418Y620248D01*
X710729Y612261D01*
X715842Y604146D01*
X720756Y595909D01*
X725467Y587554D01*
X729973Y579087D01*
X734270Y570511D01*
X738356Y561834D01*
X742229Y553059D01*
X745886Y544192D01*
X749325Y535238D01*
X752544Y526203D01*
X755541Y517092D01*
X758315Y507910D01*
X760863Y498663D01*
X763184Y489357D01*
X765278Y479996D01*
X767141Y470588D01*
X768775Y461136D01*
X770176Y451648D01*
X771345Y442128D01*
X772281Y432582D01*
X772984Y423016D01*
X773452Y413436D01*
X773686Y403847D01*
X773685Y394256D01*
X773450Y384667D01*
X772981Y375087D01*
X772277Y365522D01*
X771340Y355976D01*
X770170Y346456D01*
X768767Y336968D01*
X767133Y327516D01*
X765268Y318108D01*
X763174Y308748D01*
X760851Y299442D01*
X758302Y290195D01*
X755527Y281014D01*
X752529Y271903D01*
X749308Y262868D01*
X745868Y253915D01*
X742210Y245048D01*
X738337Y236274D01*
X734249Y227597D01*
X729951Y219022D01*
X725445Y210555D01*
X720733Y202201D01*
X715818Y193964D01*
X710703Y185850D01*
X705392Y177864D01*
X699886Y170009D01*
X694191Y162292D01*
X688308Y154716D01*
X682242Y147287D01*
X675996Y140008D01*
X669574Y132884D01*
X662979Y125919D01*
X656217Y119117D01*
X649290Y112482D01*
X642202Y106019D01*
X634959Y99732D01*
X627565Y93623D01*
X620023Y87697D01*
X612339Y81957D01*
X604516Y76406D01*
X596561Y71049D01*
X588476Y65887D01*
X580268Y60925D01*
X571941Y56165D01*
X563500Y51610D01*
X554950Y47262D01*
X546297Y43126D01*
X537545Y39201D01*
X528700Y35492D01*
X519766Y32001D01*
X510750Y28729D01*
X501657Y25678D01*
X492491Y22850D01*
X483260Y20248D01*
X473967Y17872D01*
X464619Y15723D01*
X455222Y13804D01*
X445780Y12116D01*
X436300Y10658D01*
X426787Y9433D01*
X417247Y8441D01*
X407685Y7683D01*
X398108Y7158D01*
X388521Y6868D01*
X378929Y6812D01*
X369340Y6991D01*
X359757Y7404D01*
X350187Y8051D01*
X340636Y8932D01*
X331110Y10047D01*
X321613Y11394D01*
X312153Y12972D01*
X302733Y14782D01*
X293361Y16821D01*
X284042Y19089D01*
X274780Y21584D01*
X265583Y24305D01*
X256454Y27250D01*
X247401Y30417D01*
X238427Y33804D01*
X229539Y37410D01*
X220742Y41232D01*
X212041Y45268D01*
X203442Y49516D01*
X194948Y53972D01*
X186566Y58635D01*
X178301Y63502D01*
X170157Y68569D01*
X162140Y73833D01*
X154253Y79292D01*
X146503Y84943D01*
X138893Y90781D01*
X131427Y96803D01*
X124112Y103006D01*
X116950Y109386D01*
X109946Y115940D01*
X103105Y122662D01*
X96430Y129550D01*
X89926Y136599D01*
X83595Y143805D01*
X77443Y151164D01*
X71473Y158671D01*
X65688Y166321D01*
X60091Y174111D01*
X54687Y182035D01*
X49478Y190089D01*
X44468Y198268D01*
X39659Y206566D01*
X35054Y214980D01*
X30657Y223505D01*
X26469Y232134D01*
X22494Y240862D01*
X18733Y249686D01*
X15189Y258599D01*
X11864Y267595D01*
X8760Y276671D01*
X5878Y285819D01*
X3221Y295035D01*
X791Y304314D01*
X-1412Y313649D01*
X-3386Y323035D01*
X-5131Y332467D01*
X-6644Y341938D01*
X-7924Y351444D01*
X-8973Y360978D01*
X-9787Y370535D01*
X-10368Y380109D01*
X-10715Y389694D01*
X-10827Y399285D01*
X-10705Y408876D01*
X-10348Y418460D01*
X-9757Y428034D01*
X-8932Y437590D01*
X-7873Y447123D01*
X-6582Y456627D01*
X-5059Y466097D01*
X-3305Y475527D01*
X-1321Y484911D01*
X892Y494243D01*
X3333Y503519D01*
X6000Y512733D01*
X8891Y521878D01*
X12005Y530950D01*
X15339Y539943D01*
X18893Y548852D01*
X22663Y557671D01*
X26648Y566396D01*
X30845Y575021D01*
X35252Y583540D01*
X39865Y591949D01*
X44683Y600243D01*
X49702Y608416D01*
X54919Y616465D01*
X60332Y624383D01*
X65937Y632167D01*
X71730Y639811D01*
X77708Y647311D01*
X83869Y654663D01*
X90206Y661862D01*
X96719Y668904D01*
X103401Y675785D01*
X110249Y682501D01*
X306804Y147149D02*
X309513Y147149D01*
X309513Y147148D02*
X309614Y147146D01*
X309715Y147140D01*
X309816Y147131D01*
X309917Y147118D01*
X310017Y147101D01*
X310116Y147080D01*
X310214Y147056D01*
X310311Y147028D01*
X310408Y146996D01*
X310503Y146961D01*
X310596Y146922D01*
X310688Y146880D01*
X310779Y146834D01*
X310868Y146785D01*
X310954Y146733D01*
X311039Y146677D01*
X311122Y146619D01*
X311202Y146557D01*
X311280Y146492D01*
X311356Y146425D01*
X311429Y146355D01*
X311499Y146282D01*
X311566Y146206D01*
X311631Y146128D01*
X311693Y146048D01*
X311751Y145965D01*
X311807Y145880D01*
X311859Y145794D01*
X311908Y145705D01*
X311954Y145614D01*
X311996Y145522D01*
X312035Y145429D01*
X312070Y145334D01*
X312102Y145237D01*
X312130Y145140D01*
X312154Y145042D01*
X312175Y144943D01*
X312192Y144843D01*
X312205Y144742D01*
X312214Y144641D01*
X312220Y144540D01*
X312222Y144439D01*
X312222Y139021D01*
X312220Y138918D01*
X312214Y138816D01*
X312205Y138714D01*
X312191Y138612D01*
X312174Y138511D01*
X312152Y138411D01*
X312127Y138312D01*
X312099Y138213D01*
X312066Y138116D01*
X312030Y138020D01*
X311991Y137925D01*
X311947Y137832D01*
X311901Y137741D01*
X311850Y137652D01*
X311797Y137564D01*
X311740Y137479D01*
X311680Y137396D01*
X311617Y137315D01*
X311551Y137236D01*
X311482Y137161D01*
X311410Y137087D01*
X311336Y137017D01*
X311259Y136949D01*
X311179Y136885D01*
X311097Y136823D01*
X311013Y136765D01*
X310926Y136710D01*
X310838Y136658D01*
X310747Y136610D01*
X310655Y136565D01*
X310562Y136523D01*
X310466Y136485D01*
X310370Y136451D01*
X310272Y136420D01*
X310173Y136394D01*
X310073Y136370D01*
X309972Y136351D01*
X309871Y136336D01*
X309769Y136324D01*
X309667Y136316D01*
X309564Y136312D01*
X309462Y136312D01*
X309359Y136316D01*
X309257Y136324D01*
X309155Y136336D01*
X309054Y136351D01*
X308953Y136370D01*
X308853Y136394D01*
X308754Y136420D01*
X308656Y136451D01*
X308560Y136485D01*
X308464Y136523D01*
X308371Y136565D01*
X308279Y136610D01*
X308188Y136658D01*
X308100Y136710D01*
X308013Y136765D01*
X307929Y136823D01*
X307847Y136885D01*
X307767Y136949D01*
X307690Y137017D01*
X307616Y137087D01*
X307544Y137161D01*
X307475Y137236D01*
X307409Y137315D01*
X307346Y137396D01*
X307286Y137479D01*
X307229Y137564D01*
X307176Y137652D01*
X307125Y137741D01*
X307079Y137832D01*
X307035Y137925D01*
X306996Y138020D01*
X306960Y138116D01*
X306927Y138213D01*
X306899Y138312D01*
X306874Y138411D01*
X306852Y138511D01*
X306835Y138612D01*
X306821Y138714D01*
X306812Y138816D01*
X306806Y138918D01*
X306804Y139021D01*
X306804Y138569D02*
X306804Y147149D01*
X306804Y138569D02*
X306802Y138476D01*
X306796Y138383D01*
X306787Y138290D01*
X306773Y138197D01*
X306756Y138106D01*
X306735Y138015D01*
X306710Y137925D01*
X306682Y137836D01*
X306650Y137748D01*
X306614Y137662D01*
X306575Y137577D01*
X306532Y137494D01*
X306486Y137413D01*
X306436Y137334D01*
X306384Y137257D01*
X306328Y137182D01*
X306269Y137110D01*
X306207Y137040D01*
X306143Y136972D01*
X306075Y136908D01*
X306005Y136846D01*
X305933Y136787D01*
X305858Y136731D01*
X305781Y136679D01*
X305702Y136629D01*
X305621Y136583D01*
X305538Y136540D01*
X305453Y136501D01*
X305367Y136465D01*
X305279Y136433D01*
X305190Y136405D01*
X305100Y136380D01*
X305009Y136359D01*
X304918Y136342D01*
X304825Y136328D01*
X304732Y136319D01*
X304639Y136313D01*
X304546Y136311D01*
X304453Y136313D01*
X304360Y136319D01*
X304267Y136328D01*
X304174Y136342D01*
X304083Y136359D01*
X303992Y136380D01*
X303902Y136405D01*
X303813Y136433D01*
X303725Y136465D01*
X303639Y136501D01*
X303554Y136540D01*
X303471Y136583D01*
X303390Y136629D01*
X303311Y136679D01*
X303234Y136731D01*
X303159Y136787D01*
X303087Y136846D01*
X303017Y136908D01*
X302949Y136972D01*
X302885Y137040D01*
X302823Y137110D01*
X302764Y137182D01*
X302708Y137257D01*
X302656Y137334D01*
X302606Y137413D01*
X302560Y137494D01*
X302517Y137577D01*
X302478Y137662D01*
X302442Y137748D01*
X302410Y137836D01*
X302382Y137925D01*
X302357Y138015D01*
X302336Y138106D01*
X302319Y138197D01*
X302305Y138290D01*
X302296Y138383D01*
X302290Y138476D01*
X302288Y138569D01*
X302288Y145342D01*
X302290Y145518D01*
X302297Y145694D01*
X302307Y145869D01*
X302322Y146045D01*
X302341Y146220D01*
X302365Y146394D01*
X302393Y146568D01*
X302425Y146741D01*
X302461Y146913D01*
X302501Y147084D01*
X302546Y147254D01*
X302594Y147424D01*
X302647Y147591D01*
X302704Y147758D01*
X302765Y147923D01*
X302830Y148087D01*
X302898Y148248D01*
X302971Y148409D01*
X303048Y148567D01*
X303128Y148724D01*
X303212Y148878D01*
X303300Y149030D01*
X303392Y149181D01*
X303487Y149329D01*
X303586Y149474D01*
X303689Y149617D01*
X303794Y149758D01*
X303904Y149896D01*
X304016Y150031D01*
X304132Y150163D01*
X304251Y150293D01*
X304373Y150420D01*
X304498Y150543D01*
X304626Y150664D01*
X304758Y150781D01*
X304891Y150895D01*
X305028Y151006D01*
X305167Y151114D01*
X305309Y151218D01*
X305453Y151319D01*
X305600Y151416D01*
X305749Y151509D01*
X305901Y151599D01*
X306054Y151685D01*
X306209Y151767D01*
X306367Y151846D01*
X306526Y151921D01*
X306687Y151992D01*
X306850Y152058D01*
X307014Y152121D01*
X307180Y152180D01*
X307347Y152235D01*
X307516Y152285D01*
X307686Y152332D01*
X307856Y152374D01*
X308028Y152413D01*
X308201Y152447D01*
X308374Y152477D01*
X308548Y152502D01*
X308723Y152524D01*
X308898Y152541D01*
X309073Y152554D01*
X309249Y152562D01*
X309425Y152566D01*
X309601Y152566D01*
X309777Y152562D01*
X309953Y152554D01*
X310128Y152541D01*
X310303Y152524D01*
X310478Y152502D01*
X310652Y152477D01*
X310825Y152447D01*
X310998Y152413D01*
X311170Y152374D01*
X311340Y152332D01*
X311510Y152285D01*
X311679Y152235D01*
X311846Y152180D01*
X312012Y152121D01*
X312176Y152058D01*
X312339Y151992D01*
X312500Y151921D01*
X312659Y151846D01*
X312817Y151767D01*
X312972Y151685D01*
X313126Y151599D01*
X313277Y151509D01*
X313426Y151416D01*
X313573Y151319D01*
X313717Y151218D01*
X313859Y151114D01*
X313998Y151006D01*
X314135Y150895D01*
X314268Y150781D01*
X314400Y150664D01*
X314528Y150543D01*
X314653Y150420D01*
X314775Y150293D01*
X314894Y150163D01*
X315010Y150031D01*
X315122Y149896D01*
X315232Y149758D01*
X315337Y149617D01*
X315440Y149474D01*
X315539Y149329D01*
X315634Y149181D01*
X315726Y149030D01*
X315814Y148878D01*
X315898Y148724D01*
X315978Y148567D01*
X316055Y148409D01*
X316128Y148248D01*
X316196Y148087D01*
X316261Y147923D01*
X316322Y147758D01*
X316379Y147591D01*
X316432Y147424D01*
X316480Y147254D01*
X316525Y147084D01*
X316565Y146913D01*
X316601Y146741D01*
X316633Y146568D01*
X316661Y146394D01*
X316685Y146220D01*
X316704Y146045D01*
X316719Y145869D01*
X316729Y145694D01*
X316736Y145518D01*
X316738Y145342D01*
X316738Y137666D01*
X316736Y137502D01*
X316730Y137337D01*
X316720Y137173D01*
X316706Y137009D01*
X316688Y136846D01*
X316666Y136683D01*
X316641Y136520D01*
X316611Y136359D01*
X316577Y136198D01*
X316540Y136038D01*
X316498Y135878D01*
X316453Y135720D01*
X316404Y135563D01*
X316351Y135408D01*
X316295Y135253D01*
X316234Y135100D01*
X316170Y134949D01*
X316103Y134799D01*
X316032Y134651D01*
X315957Y134504D01*
X315878Y134360D01*
X315797Y134217D01*
X315711Y134076D01*
X315623Y133938D01*
X315531Y133801D01*
X315435Y133667D01*
X315337Y133536D01*
X315235Y133406D01*
X315131Y133280D01*
X315023Y133155D01*
X314912Y133034D01*
X314798Y132915D01*
X314682Y132799D01*
X314563Y132686D01*
X314441Y132575D01*
X314316Y132468D01*
X314189Y132364D01*
X314059Y132263D01*
X313927Y132165D01*
X313793Y132070D01*
X313656Y131978D01*
X313517Y131890D01*
X313376Y131806D01*
X313233Y131724D01*
X313088Y131647D01*
X312942Y131572D01*
X312793Y131502D01*
X312643Y131434D01*
X312491Y131371D01*
X312338Y131311D01*
X312184Y131255D01*
X312028Y131203D01*
X311870Y131155D01*
X311712Y131110D01*
X311553Y131069D01*
X311393Y131032D01*
X311232Y130999D01*
X311070Y130970D01*
X310907Y130945D01*
X310744Y130924D01*
X310581Y130906D01*
X310417Y130893D01*
X291277Y133602D02*
X291277Y149858D01*
X295792Y149858D02*
X286761Y149858D01*
X280821Y149858D02*
X280821Y133602D01*
X280821Y144439D02*
X276305Y144439D01*
X276201Y144437D01*
X276098Y144431D01*
X275994Y144421D01*
X275891Y144407D01*
X275789Y144389D01*
X275688Y144368D01*
X275587Y144342D01*
X275488Y144313D01*
X275389Y144280D01*
X275292Y144243D01*
X275197Y144202D01*
X275103Y144158D01*
X275011Y144110D01*
X274921Y144059D01*
X274832Y144004D01*
X274746Y143946D01*
X274663Y143884D01*
X274581Y143820D01*
X274503Y143752D01*
X274427Y143682D01*
X274353Y143609D01*
X274283Y143532D01*
X274215Y143454D01*
X274151Y143372D01*
X274089Y143289D01*
X274031Y143203D01*
X273976Y143114D01*
X273925Y143024D01*
X273877Y142932D01*
X273833Y142838D01*
X273792Y142743D01*
X273755Y142646D01*
X273722Y142547D01*
X273693Y142448D01*
X273667Y142347D01*
X273646Y142246D01*
X273628Y142144D01*
X273614Y142041D01*
X273604Y141937D01*
X273598Y141834D01*
X273596Y141730D01*
X273596Y133602D01*
X264044Y133602D02*
X259528Y133602D01*
X264044Y133602D02*
X264145Y133604D01*
X264246Y133610D01*
X264347Y133619D01*
X264448Y133632D01*
X264548Y133649D01*
X264647Y133670D01*
X264745Y133694D01*
X264842Y133722D01*
X264939Y133754D01*
X265034Y133789D01*
X265127Y133828D01*
X265219Y133870D01*
X265310Y133916D01*
X265399Y133965D01*
X265485Y134017D01*
X265570Y134073D01*
X265653Y134131D01*
X265733Y134193D01*
X265811Y134258D01*
X265887Y134325D01*
X265960Y134395D01*
X266030Y134468D01*
X266097Y134544D01*
X266162Y134622D01*
X266224Y134702D01*
X266282Y134785D01*
X266338Y134870D01*
X266390Y134956D01*
X266439Y135045D01*
X266485Y135136D01*
X266527Y135228D01*
X266566Y135321D01*
X266601Y135416D01*
X266633Y135513D01*
X266661Y135610D01*
X266685Y135708D01*
X266706Y135807D01*
X266723Y135907D01*
X266736Y136008D01*
X266745Y136109D01*
X266751Y136210D01*
X266753Y136311D01*
X266753Y140827D01*
X266752Y140827D02*
X266750Y140946D01*
X266744Y141066D01*
X266734Y141185D01*
X266720Y141303D01*
X266703Y141422D01*
X266681Y141539D01*
X266656Y141656D01*
X266626Y141771D01*
X266593Y141886D01*
X266556Y142000D01*
X266516Y142112D01*
X266471Y142223D01*
X266423Y142332D01*
X266372Y142440D01*
X266317Y142546D01*
X266258Y142650D01*
X266196Y142752D01*
X266131Y142852D01*
X266062Y142950D01*
X265990Y143046D01*
X265915Y143139D01*
X265838Y143229D01*
X265757Y143317D01*
X265673Y143402D01*
X265586Y143484D01*
X265497Y143564D01*
X265405Y143640D01*
X265311Y143714D01*
X265214Y143784D01*
X265116Y143851D01*
X265015Y143915D01*
X264911Y143975D01*
X264806Y144032D01*
X264699Y144085D01*
X264591Y144135D01*
X264481Y144181D01*
X264369Y144223D01*
X264256Y144262D01*
X264142Y144297D01*
X264027Y144328D01*
X263910Y144356D01*
X263793Y144379D01*
X263676Y144399D01*
X263557Y144415D01*
X263438Y144427D01*
X263319Y144435D01*
X263200Y144439D01*
X263080Y144439D01*
X262961Y144435D01*
X262842Y144427D01*
X262723Y144415D01*
X262604Y144399D01*
X262487Y144379D01*
X262370Y144356D01*
X262253Y144328D01*
X262138Y144297D01*
X262024Y144262D01*
X261911Y144223D01*
X261799Y144181D01*
X261689Y144135D01*
X261581Y144085D01*
X261474Y144032D01*
X261369Y143975D01*
X261265Y143915D01*
X261164Y143851D01*
X261066Y143784D01*
X260969Y143714D01*
X260875Y143640D01*
X260783Y143564D01*
X260694Y143484D01*
X260607Y143402D01*
X260523Y143317D01*
X260442Y143229D01*
X260365Y143139D01*
X260290Y143046D01*
X260218Y142950D01*
X260149Y142852D01*
X260084Y142752D01*
X260022Y142650D01*
X259963Y142546D01*
X259908Y142440D01*
X259857Y142332D01*
X259809Y142223D01*
X259764Y142112D01*
X259724Y142000D01*
X259687Y141886D01*
X259654Y141771D01*
X259624Y141656D01*
X259599Y141539D01*
X259577Y141422D01*
X259560Y141303D01*
X259546Y141185D01*
X259536Y141066D01*
X259530Y140946D01*
X259528Y140827D01*
X259528Y139021D01*
X266753Y139021D01*
X252546Y133602D02*
X252546Y149858D01*
X248030Y149858D01*
X247899Y149856D01*
X247767Y149850D01*
X247636Y149841D01*
X247506Y149827D01*
X247375Y149810D01*
X247246Y149789D01*
X247117Y149765D01*
X246989Y149736D01*
X246861Y149704D01*
X246735Y149668D01*
X246610Y149629D01*
X246485Y149586D01*
X246363Y149539D01*
X246241Y149489D01*
X246121Y149435D01*
X246003Y149378D01*
X245887Y149317D01*
X245772Y149253D01*
X245659Y149186D01*
X245548Y149115D01*
X245440Y149041D01*
X245333Y148964D01*
X245229Y148884D01*
X245127Y148801D01*
X245028Y148716D01*
X244931Y148627D01*
X244837Y148535D01*
X244745Y148441D01*
X244656Y148344D01*
X244571Y148245D01*
X244488Y148143D01*
X244408Y148039D01*
X244331Y147932D01*
X244257Y147824D01*
X244186Y147713D01*
X244119Y147600D01*
X244055Y147485D01*
X243994Y147369D01*
X243937Y147251D01*
X243883Y147131D01*
X243833Y147009D01*
X243786Y146887D01*
X243743Y146762D01*
X243704Y146637D01*
X243668Y146511D01*
X243636Y146383D01*
X243607Y146255D01*
X243583Y146126D01*
X243562Y145997D01*
X243545Y145866D01*
X243531Y145736D01*
X243522Y145605D01*
X243516Y145473D01*
X243514Y145342D01*
X243515Y145342D02*
X243515Y138118D01*
X243514Y138118D02*
X243516Y137987D01*
X243522Y137855D01*
X243531Y137724D01*
X243545Y137594D01*
X243562Y137463D01*
X243583Y137334D01*
X243607Y137205D01*
X243636Y137077D01*
X243668Y136949D01*
X243704Y136823D01*
X243743Y136698D01*
X243786Y136573D01*
X243833Y136451D01*
X243883Y136329D01*
X243937Y136209D01*
X243994Y136091D01*
X244055Y135975D01*
X244119Y135860D01*
X244186Y135747D01*
X244257Y135636D01*
X244331Y135528D01*
X244408Y135421D01*
X244488Y135317D01*
X244571Y135215D01*
X244656Y135116D01*
X244745Y135019D01*
X244837Y134925D01*
X244931Y134833D01*
X245028Y134744D01*
X245127Y134659D01*
X245229Y134576D01*
X245333Y134496D01*
X245440Y134419D01*
X245548Y134345D01*
X245659Y134274D01*
X245772Y134207D01*
X245887Y134143D01*
X246003Y134082D01*
X246121Y134025D01*
X246241Y133971D01*
X246363Y133921D01*
X246485Y133874D01*
X246610Y133831D01*
X246735Y133792D01*
X246861Y133756D01*
X246989Y133724D01*
X247117Y133695D01*
X247246Y133671D01*
X247375Y133650D01*
X247506Y133633D01*
X247636Y133619D01*
X247767Y133610D01*
X247899Y133604D01*
X248030Y133602D01*
X252546Y133602D01*
X233823Y133602D02*
X229308Y133602D01*
X233823Y133602D02*
X233924Y133604D01*
X234025Y133610D01*
X234126Y133619D01*
X234227Y133632D01*
X234327Y133649D01*
X234426Y133670D01*
X234524Y133694D01*
X234621Y133722D01*
X234718Y133754D01*
X234813Y133789D01*
X234906Y133828D01*
X234998Y133870D01*
X235089Y133916D01*
X235178Y133965D01*
X235264Y134017D01*
X235349Y134073D01*
X235432Y134131D01*
X235512Y134193D01*
X235590Y134258D01*
X235666Y134325D01*
X235739Y134395D01*
X235809Y134468D01*
X235876Y134544D01*
X235941Y134622D01*
X236003Y134702D01*
X236061Y134785D01*
X236117Y134870D01*
X236169Y134956D01*
X236218Y135045D01*
X236264Y135136D01*
X236306Y135228D01*
X236345Y135321D01*
X236380Y135416D01*
X236412Y135513D01*
X236440Y135610D01*
X236464Y135708D01*
X236485Y135807D01*
X236502Y135907D01*
X236515Y136008D01*
X236524Y136109D01*
X236530Y136210D01*
X236532Y136311D01*
X236533Y136311D02*
X236533Y140827D01*
X236532Y140827D02*
X236530Y140946D01*
X236524Y141066D01*
X236514Y141185D01*
X236500Y141303D01*
X236483Y141422D01*
X236461Y141539D01*
X236436Y141656D01*
X236406Y141771D01*
X236373Y141886D01*
X236336Y142000D01*
X236296Y142112D01*
X236251Y142223D01*
X236203Y142332D01*
X236152Y142440D01*
X236097Y142546D01*
X236038Y142650D01*
X235976Y142752D01*
X235911Y142852D01*
X235842Y142950D01*
X235770Y143046D01*
X235695Y143139D01*
X235618Y143229D01*
X235537Y143317D01*
X235453Y143402D01*
X235366Y143484D01*
X235277Y143564D01*
X235185Y143640D01*
X235091Y143714D01*
X234994Y143784D01*
X234896Y143851D01*
X234795Y143915D01*
X234691Y143975D01*
X234586Y144032D01*
X234479Y144085D01*
X234371Y144135D01*
X234261Y144181D01*
X234149Y144223D01*
X234036Y144262D01*
X233922Y144297D01*
X233807Y144328D01*
X233690Y144356D01*
X233573Y144379D01*
X233456Y144399D01*
X233337Y144415D01*
X233218Y144427D01*
X233099Y144435D01*
X232980Y144439D01*
X232860Y144439D01*
X232741Y144435D01*
X232622Y144427D01*
X232503Y144415D01*
X232384Y144399D01*
X232267Y144379D01*
X232150Y144356D01*
X232033Y144328D01*
X231918Y144297D01*
X231804Y144262D01*
X231691Y144223D01*
X231579Y144181D01*
X231469Y144135D01*
X231361Y144085D01*
X231254Y144032D01*
X231149Y143975D01*
X231045Y143915D01*
X230944Y143851D01*
X230846Y143784D01*
X230749Y143714D01*
X230655Y143640D01*
X230563Y143564D01*
X230474Y143484D01*
X230387Y143402D01*
X230303Y143317D01*
X230222Y143229D01*
X230145Y143139D01*
X230070Y143046D01*
X229998Y142950D01*
X229929Y142852D01*
X229864Y142752D01*
X229802Y142650D01*
X229743Y142546D01*
X229688Y142440D01*
X229637Y142332D01*
X229589Y142223D01*
X229544Y142112D01*
X229504Y142000D01*
X229467Y141886D01*
X229434Y141771D01*
X229404Y141656D01*
X229379Y141539D01*
X229357Y141422D01*
X229340Y141303D01*
X229326Y141185D01*
X229316Y141066D01*
X229310Y140946D01*
X229308Y140827D01*
X229308Y139021D01*
X236533Y139021D01*
X223507Y144439D02*
X219894Y133602D01*
X216282Y144439D01*
X210515Y144439D02*
X210515Y133602D01*
X210967Y148955D02*
X210967Y149858D01*
X210064Y149858D01*
X210064Y148955D01*
X210967Y148955D01*
X203991Y149858D02*
X203991Y136311D01*
X203989Y136210D01*
X203983Y136109D01*
X203974Y136008D01*
X203961Y135907D01*
X203944Y135807D01*
X203923Y135708D01*
X203899Y135610D01*
X203871Y135513D01*
X203839Y135416D01*
X203804Y135321D01*
X203765Y135228D01*
X203723Y135136D01*
X203677Y135045D01*
X203628Y134956D01*
X203576Y134870D01*
X203520Y134785D01*
X203462Y134702D01*
X203400Y134622D01*
X203335Y134544D01*
X203268Y134468D01*
X203198Y134395D01*
X203125Y134325D01*
X203049Y134258D01*
X202971Y134193D01*
X202891Y134131D01*
X202808Y134073D01*
X202723Y134017D01*
X202637Y133965D01*
X202548Y133916D01*
X202457Y133870D01*
X202365Y133828D01*
X202272Y133789D01*
X202177Y133754D01*
X202080Y133722D01*
X201983Y133694D01*
X201885Y133670D01*
X201786Y133649D01*
X201686Y133632D01*
X201585Y133619D01*
X201484Y133610D01*
X201383Y133604D01*
X201282Y133602D01*
X194537Y139924D02*
X190021Y138118D01*
X194537Y139924D02*
X194625Y139961D01*
X194711Y140002D01*
X194796Y140046D01*
X194879Y140094D01*
X194959Y140145D01*
X195038Y140199D01*
X195114Y140257D01*
X195188Y140317D01*
X195260Y140381D01*
X195328Y140447D01*
X195394Y140517D01*
X195457Y140588D01*
X195518Y140663D01*
X195575Y140739D01*
X195628Y140818D01*
X195679Y140899D01*
X195726Y140982D01*
X195770Y141067D01*
X195810Y141154D01*
X195847Y141242D01*
X195880Y141332D01*
X195910Y141423D01*
X195935Y141515D01*
X195957Y141608D01*
X195975Y141702D01*
X195990Y141796D01*
X196000Y141891D01*
X196006Y141987D01*
X196009Y142082D01*
X196008Y142178D01*
X196002Y142273D01*
X195993Y142369D01*
X195980Y142463D01*
X195964Y142557D01*
X195943Y142651D01*
X195918Y142743D01*
X195890Y142834D01*
X195858Y142924D01*
X195823Y143013D01*
X195784Y143100D01*
X195741Y143186D01*
X195695Y143270D01*
X195645Y143351D01*
X195593Y143431D01*
X195537Y143509D01*
X195477Y143584D01*
X195415Y143656D01*
X195350Y143726D01*
X195282Y143794D01*
X195212Y143858D01*
X195139Y143920D01*
X195063Y143978D01*
X194985Y144034D01*
X194905Y144086D01*
X194823Y144135D01*
X194739Y144180D01*
X194653Y144222D01*
X194566Y144261D01*
X194477Y144296D01*
X194386Y144327D01*
X194295Y144354D01*
X194202Y144378D01*
X194109Y144398D01*
X194015Y144414D01*
X193920Y144426D01*
X193825Y144435D01*
X193729Y144439D01*
X193634Y144440D01*
X193387Y144433D01*
X193141Y144421D01*
X192895Y144403D01*
X192649Y144378D01*
X192405Y144348D01*
X192161Y144312D01*
X191918Y144271D01*
X191676Y144223D01*
X191435Y144169D01*
X191196Y144110D01*
X190958Y144045D01*
X190722Y143974D01*
X190487Y143898D01*
X190254Y143816D01*
X190024Y143728D01*
X189796Y143635D01*
X189569Y143537D01*
X190021Y138117D02*
X189933Y138080D01*
X189847Y138039D01*
X189762Y137995D01*
X189679Y137947D01*
X189599Y137896D01*
X189520Y137842D01*
X189444Y137784D01*
X189370Y137724D01*
X189298Y137660D01*
X189230Y137594D01*
X189164Y137524D01*
X189101Y137453D01*
X189040Y137378D01*
X188983Y137302D01*
X188930Y137223D01*
X188879Y137142D01*
X188832Y137059D01*
X188788Y136974D01*
X188748Y136887D01*
X188711Y136799D01*
X188678Y136709D01*
X188648Y136618D01*
X188623Y136526D01*
X188601Y136433D01*
X188583Y136339D01*
X188568Y136245D01*
X188558Y136150D01*
X188552Y136054D01*
X188549Y135959D01*
X188550Y135863D01*
X188556Y135768D01*
X188565Y135672D01*
X188578Y135578D01*
X188594Y135484D01*
X188615Y135390D01*
X188640Y135298D01*
X188668Y135207D01*
X188700Y135117D01*
X188735Y135028D01*
X188774Y134941D01*
X188817Y134855D01*
X188863Y134771D01*
X188913Y134690D01*
X188965Y134610D01*
X189021Y134532D01*
X189081Y134457D01*
X189143Y134385D01*
X189208Y134315D01*
X189276Y134247D01*
X189346Y134183D01*
X189419Y134121D01*
X189495Y134063D01*
X189573Y134007D01*
X189653Y133955D01*
X189735Y133906D01*
X189819Y133861D01*
X189905Y133819D01*
X189992Y133780D01*
X190081Y133745D01*
X190172Y133714D01*
X190263Y133687D01*
X190356Y133663D01*
X190449Y133643D01*
X190543Y133627D01*
X190638Y133615D01*
X190733Y133606D01*
X190829Y133602D01*
X190924Y133601D01*
X190925Y133602D02*
X191287Y133611D01*
X191649Y133629D01*
X192010Y133656D01*
X192370Y133691D01*
X192730Y133734D01*
X193089Y133786D01*
X193446Y133847D01*
X193801Y133916D01*
X194155Y133993D01*
X194507Y134079D01*
X194857Y134173D01*
X195205Y134276D01*
X195550Y134386D01*
X195892Y134505D01*
X177690Y133602D02*
X183108Y149858D01*
X172271Y149858D02*
X177690Y133602D01*
X166713Y137214D02*
X166713Y140827D01*
X166711Y140946D01*
X166705Y141066D01*
X166695Y141185D01*
X166681Y141303D01*
X166664Y141422D01*
X166642Y141539D01*
X166617Y141656D01*
X166587Y141771D01*
X166554Y141886D01*
X166517Y142000D01*
X166477Y142112D01*
X166432Y142223D01*
X166384Y142332D01*
X166333Y142440D01*
X166278Y142546D01*
X166219Y142650D01*
X166157Y142752D01*
X166092Y142852D01*
X166023Y142950D01*
X165951Y143046D01*
X165876Y143139D01*
X165799Y143229D01*
X165718Y143317D01*
X165634Y143402D01*
X165547Y143484D01*
X165458Y143564D01*
X165366Y143640D01*
X165272Y143714D01*
X165175Y143784D01*
X165077Y143851D01*
X164976Y143915D01*
X164872Y143975D01*
X164767Y144032D01*
X164660Y144085D01*
X164552Y144135D01*
X164442Y144181D01*
X164330Y144223D01*
X164217Y144262D01*
X164103Y144297D01*
X163988Y144328D01*
X163871Y144356D01*
X163754Y144379D01*
X163637Y144399D01*
X163518Y144415D01*
X163399Y144427D01*
X163280Y144435D01*
X163161Y144439D01*
X163041Y144439D01*
X162922Y144435D01*
X162803Y144427D01*
X162684Y144415D01*
X162565Y144399D01*
X162448Y144379D01*
X162331Y144356D01*
X162214Y144328D01*
X162099Y144297D01*
X161985Y144262D01*
X161872Y144223D01*
X161760Y144181D01*
X161650Y144135D01*
X161542Y144085D01*
X161435Y144032D01*
X161330Y143975D01*
X161226Y143915D01*
X161125Y143851D01*
X161027Y143784D01*
X160930Y143714D01*
X160836Y143640D01*
X160744Y143564D01*
X160655Y143484D01*
X160568Y143402D01*
X160484Y143317D01*
X160403Y143229D01*
X160326Y143139D01*
X160251Y143046D01*
X160179Y142950D01*
X160110Y142852D01*
X160045Y142752D01*
X159983Y142650D01*
X159924Y142546D01*
X159869Y142440D01*
X159818Y142332D01*
X159770Y142223D01*
X159725Y142112D01*
X159685Y142000D01*
X159648Y141886D01*
X159615Y141771D01*
X159585Y141656D01*
X159560Y141539D01*
X159538Y141422D01*
X159521Y141303D01*
X159507Y141185D01*
X159497Y141066D01*
X159491Y140946D01*
X159489Y140827D01*
X159488Y140827D02*
X159488Y137214D01*
X159489Y137214D02*
X159491Y137095D01*
X159497Y136975D01*
X159507Y136856D01*
X159521Y136738D01*
X159538Y136619D01*
X159560Y136502D01*
X159585Y136385D01*
X159615Y136270D01*
X159648Y136155D01*
X159685Y136041D01*
X159725Y135929D01*
X159770Y135818D01*
X159818Y135709D01*
X159869Y135601D01*
X159924Y135495D01*
X159983Y135391D01*
X160045Y135289D01*
X160110Y135189D01*
X160179Y135091D01*
X160251Y134995D01*
X160326Y134902D01*
X160403Y134812D01*
X160484Y134724D01*
X160568Y134639D01*
X160655Y134557D01*
X160744Y134477D01*
X160836Y134401D01*
X160930Y134327D01*
X161027Y134257D01*
X161125Y134190D01*
X161226Y134126D01*
X161330Y134066D01*
X161435Y134009D01*
X161542Y133956D01*
X161650Y133906D01*
X161760Y133860D01*
X161872Y133818D01*
X161985Y133779D01*
X162099Y133744D01*
X162214Y133713D01*
X162331Y133685D01*
X162448Y133662D01*
X162565Y133642D01*
X162684Y133626D01*
X162803Y133614D01*
X162922Y133606D01*
X163041Y133602D01*
X163161Y133602D01*
X163280Y133606D01*
X163399Y133614D01*
X163518Y133626D01*
X163637Y133642D01*
X163754Y133662D01*
X163871Y133685D01*
X163988Y133713D01*
X164103Y133744D01*
X164217Y133779D01*
X164330Y133818D01*
X164442Y133860D01*
X164552Y133906D01*
X164660Y133956D01*
X164767Y134009D01*
X164872Y134066D01*
X164976Y134126D01*
X165077Y134190D01*
X165175Y134257D01*
X165272Y134327D01*
X165366Y134401D01*
X165458Y134477D01*
X165547Y134557D01*
X165634Y134639D01*
X165718Y134724D01*
X165799Y134812D01*
X165876Y134902D01*
X165951Y134995D01*
X166023Y135091D01*
X166092Y135189D01*
X166157Y135289D01*
X166219Y135391D01*
X166278Y135495D01*
X166333Y135601D01*
X166384Y135709D01*
X166432Y135818D01*
X166477Y135929D01*
X166517Y136041D01*
X166554Y136155D01*
X166587Y136270D01*
X166617Y136385D01*
X166642Y136502D01*
X166664Y136619D01*
X166681Y136738D01*
X166695Y136856D01*
X166705Y136975D01*
X166711Y137095D01*
X166713Y137214D01*
X153201Y133602D02*
X153201Y144439D01*
X153652Y148955D02*
X153652Y149858D01*
X152749Y149858D01*
X152749Y148955D01*
X153652Y148955D01*
X144187Y133602D02*
X140574Y133602D01*
X144187Y133602D02*
X144288Y133604D01*
X144389Y133610D01*
X144490Y133619D01*
X144591Y133632D01*
X144691Y133649D01*
X144790Y133670D01*
X144888Y133694D01*
X144985Y133722D01*
X145082Y133754D01*
X145177Y133789D01*
X145270Y133828D01*
X145362Y133870D01*
X145453Y133916D01*
X145542Y133965D01*
X145628Y134017D01*
X145713Y134073D01*
X145796Y134131D01*
X145876Y134193D01*
X145954Y134258D01*
X146030Y134325D01*
X146103Y134395D01*
X146173Y134468D01*
X146240Y134544D01*
X146305Y134622D01*
X146367Y134702D01*
X146425Y134785D01*
X146481Y134870D01*
X146533Y134956D01*
X146582Y135045D01*
X146628Y135136D01*
X146670Y135228D01*
X146709Y135321D01*
X146744Y135416D01*
X146776Y135513D01*
X146804Y135610D01*
X146828Y135708D01*
X146849Y135807D01*
X146866Y135907D01*
X146879Y136008D01*
X146888Y136109D01*
X146894Y136210D01*
X146896Y136311D01*
X146896Y141730D01*
X146894Y141831D01*
X146888Y141932D01*
X146879Y142033D01*
X146866Y142134D01*
X146849Y142234D01*
X146828Y142333D01*
X146804Y142431D01*
X146776Y142528D01*
X146744Y142625D01*
X146709Y142720D01*
X146670Y142813D01*
X146628Y142905D01*
X146582Y142996D01*
X146533Y143085D01*
X146481Y143171D01*
X146425Y143256D01*
X146367Y143339D01*
X146305Y143419D01*
X146240Y143497D01*
X146173Y143573D01*
X146103Y143646D01*
X146030Y143716D01*
X145954Y143783D01*
X145876Y143848D01*
X145796Y143910D01*
X145713Y143968D01*
X145628Y144024D01*
X145542Y144076D01*
X145453Y144125D01*
X145362Y144171D01*
X145270Y144213D01*
X145177Y144252D01*
X145082Y144287D01*
X144985Y144319D01*
X144888Y144347D01*
X144790Y144371D01*
X144691Y144392D01*
X144591Y144409D01*
X144490Y144422D01*
X144389Y144431D01*
X144288Y144437D01*
X144187Y144439D01*
X140574Y144439D01*
X132220Y133602D02*
X127705Y133602D01*
X132220Y133602D02*
X132321Y133604D01*
X132422Y133610D01*
X132523Y133619D01*
X132624Y133632D01*
X132724Y133649D01*
X132823Y133670D01*
X132921Y133694D01*
X133018Y133722D01*
X133115Y133754D01*
X133210Y133789D01*
X133303Y133828D01*
X133395Y133870D01*
X133486Y133916D01*
X133575Y133965D01*
X133661Y134017D01*
X133746Y134073D01*
X133829Y134131D01*
X133909Y134193D01*
X133987Y134258D01*
X134063Y134325D01*
X134136Y134395D01*
X134206Y134468D01*
X134273Y134544D01*
X134338Y134622D01*
X134400Y134702D01*
X134458Y134785D01*
X134514Y134870D01*
X134566Y134956D01*
X134615Y135045D01*
X134661Y135136D01*
X134703Y135228D01*
X134742Y135321D01*
X134777Y135416D01*
X134809Y135513D01*
X134837Y135610D01*
X134861Y135708D01*
X134882Y135807D01*
X134899Y135907D01*
X134912Y136008D01*
X134921Y136109D01*
X134927Y136210D01*
X134929Y136311D01*
X134930Y136311D02*
X134930Y140827D01*
X134929Y140827D02*
X134927Y140946D01*
X134921Y141066D01*
X134911Y141185D01*
X134897Y141303D01*
X134880Y141422D01*
X134858Y141539D01*
X134833Y141656D01*
X134803Y141771D01*
X134770Y141886D01*
X134733Y142000D01*
X134693Y142112D01*
X134648Y142223D01*
X134600Y142332D01*
X134549Y142440D01*
X134494Y142546D01*
X134435Y142650D01*
X134373Y142752D01*
X134308Y142852D01*
X134239Y142950D01*
X134167Y143046D01*
X134092Y143139D01*
X134015Y143229D01*
X133934Y143317D01*
X133850Y143402D01*
X133763Y143484D01*
X133674Y143564D01*
X133582Y143640D01*
X133488Y143714D01*
X133391Y143784D01*
X133293Y143851D01*
X133192Y143915D01*
X133088Y143975D01*
X132983Y144032D01*
X132876Y144085D01*
X132768Y144135D01*
X132658Y144181D01*
X132546Y144223D01*
X132433Y144262D01*
X132319Y144297D01*
X132204Y144328D01*
X132087Y144356D01*
X131970Y144379D01*
X131853Y144399D01*
X131734Y144415D01*
X131615Y144427D01*
X131496Y144435D01*
X131377Y144439D01*
X131257Y144439D01*
X131138Y144435D01*
X131019Y144427D01*
X130900Y144415D01*
X130781Y144399D01*
X130664Y144379D01*
X130547Y144356D01*
X130430Y144328D01*
X130315Y144297D01*
X130201Y144262D01*
X130088Y144223D01*
X129976Y144181D01*
X129866Y144135D01*
X129758Y144085D01*
X129651Y144032D01*
X129546Y143975D01*
X129442Y143915D01*
X129341Y143851D01*
X129243Y143784D01*
X129146Y143714D01*
X129052Y143640D01*
X128960Y143564D01*
X128871Y143484D01*
X128784Y143402D01*
X128700Y143317D01*
X128619Y143229D01*
X128542Y143139D01*
X128467Y143046D01*
X128395Y142950D01*
X128326Y142852D01*
X128261Y142752D01*
X128199Y142650D01*
X128140Y142546D01*
X128085Y142440D01*
X128034Y142332D01*
X127986Y142223D01*
X127941Y142112D01*
X127901Y142000D01*
X127864Y141886D01*
X127831Y141771D01*
X127801Y141656D01*
X127776Y141539D01*
X127754Y141422D01*
X127737Y141303D01*
X127723Y141185D01*
X127713Y141066D01*
X127707Y140946D01*
X127705Y140827D01*
X127705Y139021D01*
X134930Y139021D01*
X306804Y120479D02*
X309513Y120479D01*
X309513Y120478D02*
X309614Y120476D01*
X309715Y120470D01*
X309816Y120461D01*
X309917Y120448D01*
X310017Y120431D01*
X310116Y120410D01*
X310214Y120386D01*
X310311Y120358D01*
X310408Y120326D01*
X310503Y120291D01*
X310596Y120252D01*
X310688Y120210D01*
X310779Y120164D01*
X310868Y120115D01*
X310954Y120063D01*
X311039Y120007D01*
X311122Y119949D01*
X311202Y119887D01*
X311280Y119822D01*
X311356Y119755D01*
X311429Y119685D01*
X311499Y119612D01*
X311566Y119536D01*
X311631Y119458D01*
X311693Y119378D01*
X311751Y119295D01*
X311807Y119210D01*
X311859Y119124D01*
X311908Y119035D01*
X311954Y118944D01*
X311996Y118852D01*
X312035Y118759D01*
X312070Y118664D01*
X312102Y118567D01*
X312130Y118470D01*
X312154Y118372D01*
X312175Y118273D01*
X312192Y118173D01*
X312205Y118072D01*
X312214Y117971D01*
X312220Y117870D01*
X312222Y117769D01*
X312222Y112351D01*
X312220Y112248D01*
X312214Y112146D01*
X312205Y112044D01*
X312191Y111942D01*
X312174Y111841D01*
X312152Y111741D01*
X312127Y111642D01*
X312099Y111543D01*
X312066Y111446D01*
X312030Y111350D01*
X311991Y111255D01*
X311947Y111162D01*
X311901Y111071D01*
X311850Y110982D01*
X311797Y110894D01*
X311740Y110809D01*
X311680Y110726D01*
X311617Y110645D01*
X311551Y110566D01*
X311482Y110491D01*
X311410Y110417D01*
X311336Y110347D01*
X311259Y110279D01*
X311179Y110215D01*
X311097Y110153D01*
X311013Y110095D01*
X310926Y110040D01*
X310838Y109988D01*
X310747Y109940D01*
X310655Y109895D01*
X310562Y109853D01*
X310466Y109815D01*
X310370Y109781D01*
X310272Y109750D01*
X310173Y109724D01*
X310073Y109700D01*
X309972Y109681D01*
X309871Y109666D01*
X309769Y109654D01*
X309667Y109646D01*
X309564Y109642D01*
X309462Y109642D01*
X309359Y109646D01*
X309257Y109654D01*
X309155Y109666D01*
X309054Y109681D01*
X308953Y109700D01*
X308853Y109724D01*
X308754Y109750D01*
X308656Y109781D01*
X308560Y109815D01*
X308464Y109853D01*
X308371Y109895D01*
X308279Y109940D01*
X308188Y109988D01*
X308100Y110040D01*
X308013Y110095D01*
X307929Y110153D01*
X307847Y110215D01*
X307767Y110279D01*
X307690Y110347D01*
X307616Y110417D01*
X307544Y110491D01*
X307475Y110566D01*
X307409Y110645D01*
X307346Y110726D01*
X307286Y110809D01*
X307229Y110894D01*
X307176Y110982D01*
X307125Y111071D01*
X307079Y111162D01*
X307035Y111255D01*
X306996Y111350D01*
X306960Y111446D01*
X306927Y111543D01*
X306899Y111642D01*
X306874Y111741D01*
X306852Y111841D01*
X306835Y111942D01*
X306821Y112044D01*
X306812Y112146D01*
X306806Y112248D01*
X306804Y112351D01*
X306804Y111899D02*
X306804Y120479D01*
X306804Y111899D02*
X306802Y111806D01*
X306796Y111713D01*
X306787Y111620D01*
X306773Y111527D01*
X306756Y111436D01*
X306735Y111345D01*
X306710Y111255D01*
X306682Y111166D01*
X306650Y111078D01*
X306614Y110992D01*
X306575Y110907D01*
X306532Y110824D01*
X306486Y110743D01*
X306436Y110664D01*
X306384Y110587D01*
X306328Y110512D01*
X306269Y110440D01*
X306207Y110370D01*
X306143Y110302D01*
X306075Y110238D01*
X306005Y110176D01*
X305933Y110117D01*
X305858Y110061D01*
X305781Y110009D01*
X305702Y109959D01*
X305621Y109913D01*
X305538Y109870D01*
X305453Y109831D01*
X305367Y109795D01*
X305279Y109763D01*
X305190Y109735D01*
X305100Y109710D01*
X305009Y109689D01*
X304918Y109672D01*
X304825Y109658D01*
X304732Y109649D01*
X304639Y109643D01*
X304546Y109641D01*
X304453Y109643D01*
X304360Y109649D01*
X304267Y109658D01*
X304174Y109672D01*
X304083Y109689D01*
X303992Y109710D01*
X303902Y109735D01*
X303813Y109763D01*
X303725Y109795D01*
X303639Y109831D01*
X303554Y109870D01*
X303471Y109913D01*
X303390Y109959D01*
X303311Y110009D01*
X303234Y110061D01*
X303159Y110117D01*
X303087Y110176D01*
X303017Y110238D01*
X302949Y110302D01*
X302885Y110370D01*
X302823Y110440D01*
X302764Y110512D01*
X302708Y110587D01*
X302656Y110664D01*
X302606Y110743D01*
X302560Y110824D01*
X302517Y110907D01*
X302478Y110992D01*
X302442Y111078D01*
X302410Y111166D01*
X302382Y111255D01*
X302357Y111345D01*
X302336Y111436D01*
X302319Y111527D01*
X302305Y111620D01*
X302296Y111713D01*
X302290Y111806D01*
X302288Y111899D01*
X302288Y118672D01*
X302290Y118848D01*
X302297Y119024D01*
X302307Y119199D01*
X302322Y119375D01*
X302341Y119550D01*
X302365Y119724D01*
X302393Y119898D01*
X302425Y120071D01*
X302461Y120243D01*
X302501Y120414D01*
X302546Y120584D01*
X302594Y120754D01*
X302647Y120921D01*
X302704Y121088D01*
X302765Y121253D01*
X302830Y121417D01*
X302898Y121578D01*
X302971Y121739D01*
X303048Y121897D01*
X303128Y122054D01*
X303212Y122208D01*
X303300Y122360D01*
X303392Y122511D01*
X303487Y122659D01*
X303586Y122804D01*
X303689Y122947D01*
X303794Y123088D01*
X303904Y123226D01*
X304016Y123361D01*
X304132Y123493D01*
X304251Y123623D01*
X304373Y123750D01*
X304498Y123873D01*
X304626Y123994D01*
X304758Y124111D01*
X304891Y124225D01*
X305028Y124336D01*
X305167Y124444D01*
X305309Y124548D01*
X305453Y124649D01*
X305600Y124746D01*
X305749Y124839D01*
X305901Y124929D01*
X306054Y125015D01*
X306209Y125097D01*
X306367Y125176D01*
X306526Y125251D01*
X306687Y125322D01*
X306850Y125388D01*
X307014Y125451D01*
X307180Y125510D01*
X307347Y125565D01*
X307516Y125615D01*
X307686Y125662D01*
X307856Y125704D01*
X308028Y125743D01*
X308201Y125777D01*
X308374Y125807D01*
X308548Y125832D01*
X308723Y125854D01*
X308898Y125871D01*
X309073Y125884D01*
X309249Y125892D01*
X309425Y125896D01*
X309601Y125896D01*
X309777Y125892D01*
X309953Y125884D01*
X310128Y125871D01*
X310303Y125854D01*
X310478Y125832D01*
X310652Y125807D01*
X310825Y125777D01*
X310998Y125743D01*
X311170Y125704D01*
X311340Y125662D01*
X311510Y125615D01*
X311679Y125565D01*
X311846Y125510D01*
X312012Y125451D01*
X312176Y125388D01*
X312339Y125322D01*
X312500Y125251D01*
X312659Y125176D01*
X312817Y125097D01*
X312972Y125015D01*
X313126Y124929D01*
X313277Y124839D01*
X313426Y124746D01*
X313573Y124649D01*
X313717Y124548D01*
X313859Y124444D01*
X313998Y124336D01*
X314135Y124225D01*
X314268Y124111D01*
X314400Y123994D01*
X314528Y123873D01*
X314653Y123750D01*
X314775Y123623D01*
X314894Y123493D01*
X315010Y123361D01*
X315122Y123226D01*
X315232Y123088D01*
X315337Y122947D01*
X315440Y122804D01*
X315539Y122659D01*
X315634Y122511D01*
X315726Y122360D01*
X315814Y122208D01*
X315898Y122054D01*
X315978Y121897D01*
X316055Y121739D01*
X316128Y121578D01*
X316196Y121417D01*
X316261Y121253D01*
X316322Y121088D01*
X316379Y120921D01*
X316432Y120754D01*
X316480Y120584D01*
X316525Y120414D01*
X316565Y120243D01*
X316601Y120071D01*
X316633Y119898D01*
X316661Y119724D01*
X316685Y119550D01*
X316704Y119375D01*
X316719Y119199D01*
X316729Y119024D01*
X316736Y118848D01*
X316738Y118672D01*
X316738Y110996D01*
X316736Y110832D01*
X316730Y110667D01*
X316720Y110503D01*
X316706Y110339D01*
X316688Y110176D01*
X316666Y110013D01*
X316641Y109850D01*
X316611Y109689D01*
X316577Y109528D01*
X316540Y109368D01*
X316498Y109208D01*
X316453Y109050D01*
X316404Y108893D01*
X316351Y108738D01*
X316295Y108583D01*
X316234Y108430D01*
X316170Y108279D01*
X316103Y108129D01*
X316032Y107981D01*
X315957Y107834D01*
X315878Y107690D01*
X315797Y107547D01*
X315711Y107406D01*
X315623Y107268D01*
X315531Y107131D01*
X315435Y106997D01*
X315337Y106866D01*
X315235Y106736D01*
X315131Y106610D01*
X315023Y106485D01*
X314912Y106364D01*
X314798Y106245D01*
X314682Y106129D01*
X314563Y106016D01*
X314441Y105905D01*
X314316Y105798D01*
X314189Y105694D01*
X314059Y105593D01*
X313927Y105495D01*
X313793Y105400D01*
X313656Y105308D01*
X313517Y105220D01*
X313376Y105136D01*
X313233Y105054D01*
X313088Y104977D01*
X312942Y104902D01*
X312793Y104832D01*
X312643Y104764D01*
X312491Y104701D01*
X312338Y104641D01*
X312184Y104585D01*
X312028Y104533D01*
X311870Y104485D01*
X311712Y104440D01*
X311553Y104399D01*
X311393Y104362D01*
X311232Y104329D01*
X311070Y104300D01*
X310907Y104275D01*
X310744Y104254D01*
X310581Y104236D01*
X310417Y104223D01*
X294090Y106932D02*
X294090Y117769D01*
X285962Y117769D01*
X285861Y117767D01*
X285760Y117761D01*
X285659Y117752D01*
X285558Y117739D01*
X285458Y117722D01*
X285359Y117701D01*
X285261Y117677D01*
X285164Y117649D01*
X285067Y117617D01*
X284972Y117582D01*
X284879Y117543D01*
X284787Y117501D01*
X284696Y117455D01*
X284608Y117406D01*
X284521Y117354D01*
X284436Y117298D01*
X284353Y117240D01*
X284273Y117178D01*
X284195Y117113D01*
X284119Y117046D01*
X284046Y116976D01*
X283976Y116903D01*
X283909Y116827D01*
X283844Y116749D01*
X283782Y116669D01*
X283724Y116586D01*
X283668Y116501D01*
X283616Y116415D01*
X283567Y116326D01*
X283521Y116235D01*
X283479Y116143D01*
X283440Y116050D01*
X283405Y115955D01*
X283373Y115858D01*
X283345Y115761D01*
X283321Y115663D01*
X283300Y115564D01*
X283283Y115464D01*
X283270Y115363D01*
X283261Y115262D01*
X283255Y115161D01*
X283253Y115060D01*
X283253Y106932D01*
X288671Y106932D02*
X288671Y117769D01*
X276653Y117769D02*
X269428Y117769D01*
X276653Y106932D01*
X269428Y106932D01*
X263032Y106932D02*
X263032Y123188D01*
X263032Y106932D02*
X258517Y106932D01*
X258413Y106934D01*
X258310Y106940D01*
X258206Y106950D01*
X258103Y106964D01*
X258001Y106982D01*
X257900Y107003D01*
X257799Y107029D01*
X257700Y107058D01*
X257601Y107091D01*
X257504Y107128D01*
X257409Y107169D01*
X257315Y107213D01*
X257223Y107261D01*
X257133Y107312D01*
X257044Y107367D01*
X256958Y107425D01*
X256875Y107487D01*
X256793Y107551D01*
X256715Y107619D01*
X256639Y107689D01*
X256565Y107762D01*
X256495Y107839D01*
X256427Y107917D01*
X256363Y107999D01*
X256301Y108082D01*
X256243Y108168D01*
X256188Y108257D01*
X256137Y108347D01*
X256089Y108439D01*
X256045Y108533D01*
X256004Y108628D01*
X255967Y108725D01*
X255934Y108824D01*
X255905Y108923D01*
X255879Y109024D01*
X255858Y109125D01*
X255840Y109227D01*
X255826Y109330D01*
X255816Y109434D01*
X255810Y109537D01*
X255808Y109641D01*
X255808Y115060D01*
X255810Y115161D01*
X255816Y115262D01*
X255825Y115363D01*
X255838Y115464D01*
X255855Y115564D01*
X255876Y115663D01*
X255900Y115761D01*
X255928Y115858D01*
X255960Y115955D01*
X255995Y116050D01*
X256034Y116143D01*
X256076Y116235D01*
X256122Y116326D01*
X256171Y116415D01*
X256223Y116501D01*
X256279Y116586D01*
X256337Y116669D01*
X256399Y116749D01*
X256464Y116827D01*
X256531Y116903D01*
X256601Y116976D01*
X256674Y117046D01*
X256750Y117113D01*
X256828Y117178D01*
X256908Y117240D01*
X256991Y117298D01*
X257076Y117354D01*
X257163Y117406D01*
X257251Y117455D01*
X257342Y117501D01*
X257434Y117543D01*
X257527Y117582D01*
X257622Y117617D01*
X257719Y117649D01*
X257816Y117677D01*
X257914Y117701D01*
X258013Y117722D01*
X258113Y117739D01*
X258214Y117752D01*
X258315Y117761D01*
X258416Y117767D01*
X258517Y117769D01*
X263032Y117769D01*
X246471Y113254D02*
X242407Y113254D01*
X246471Y113254D02*
X246583Y113252D01*
X246694Y113246D01*
X246805Y113236D01*
X246916Y113223D01*
X247026Y113205D01*
X247135Y113183D01*
X247244Y113158D01*
X247352Y113129D01*
X247458Y113096D01*
X247564Y113059D01*
X247668Y113019D01*
X247770Y112975D01*
X247871Y112927D01*
X247970Y112876D01*
X248068Y112821D01*
X248163Y112763D01*
X248256Y112702D01*
X248347Y112637D01*
X248436Y112569D01*
X248522Y112498D01*
X248605Y112425D01*
X248686Y112348D01*
X248765Y112268D01*
X248840Y112186D01*
X248912Y112101D01*
X248982Y112014D01*
X249048Y111924D01*
X249111Y111832D01*
X249171Y111737D01*
X249227Y111641D01*
X249280Y111543D01*
X249329Y111443D01*
X249375Y111341D01*
X249417Y111238D01*
X249456Y111133D01*
X249491Y111027D01*
X249522Y110920D01*
X249549Y110812D01*
X249573Y110703D01*
X249592Y110593D01*
X249608Y110483D01*
X249620Y110372D01*
X249628Y110260D01*
X249632Y110149D01*
X249632Y110037D01*
X249628Y109926D01*
X249620Y109814D01*
X249608Y109703D01*
X249592Y109593D01*
X249573Y109483D01*
X249549Y109374D01*
X249522Y109266D01*
X249491Y109159D01*
X249456Y109053D01*
X249417Y108948D01*
X249375Y108845D01*
X249329Y108743D01*
X249280Y108643D01*
X249227Y108545D01*
X249171Y108449D01*
X249111Y108354D01*
X249048Y108262D01*
X248982Y108172D01*
X248912Y108085D01*
X248840Y108000D01*
X248765Y107918D01*
X248686Y107838D01*
X248605Y107761D01*
X248522Y107688D01*
X248436Y107617D01*
X248347Y107549D01*
X248256Y107484D01*
X248163Y107423D01*
X248068Y107365D01*
X247970Y107310D01*
X247871Y107259D01*
X247770Y107211D01*
X247668Y107167D01*
X247564Y107127D01*
X247458Y107090D01*
X247352Y107057D01*
X247244Y107028D01*
X247135Y107003D01*
X247026Y106981D01*
X246916Y106963D01*
X246805Y106950D01*
X246694Y106940D01*
X246583Y106934D01*
X246471Y106932D01*
X242407Y106932D01*
X242407Y115060D01*
X242409Y115161D01*
X242415Y115262D01*
X242424Y115363D01*
X242437Y115464D01*
X242454Y115564D01*
X242475Y115663D01*
X242499Y115761D01*
X242527Y115858D01*
X242559Y115955D01*
X242594Y116050D01*
X242633Y116143D01*
X242675Y116235D01*
X242721Y116326D01*
X242770Y116415D01*
X242822Y116501D01*
X242878Y116586D01*
X242936Y116669D01*
X242998Y116749D01*
X243063Y116827D01*
X243130Y116903D01*
X243200Y116976D01*
X243273Y117046D01*
X243349Y117113D01*
X243427Y117178D01*
X243507Y117240D01*
X243590Y117298D01*
X243675Y117354D01*
X243762Y117406D01*
X243850Y117455D01*
X243941Y117501D01*
X244033Y117543D01*
X244126Y117582D01*
X244221Y117617D01*
X244318Y117649D01*
X244415Y117677D01*
X244513Y117701D01*
X244612Y117722D01*
X244712Y117739D01*
X244813Y117752D01*
X244914Y117761D01*
X245015Y117767D01*
X245116Y117769D01*
X248729Y117769D01*
X236788Y117769D02*
X231369Y117769D01*
X234982Y123188D02*
X234982Y109641D01*
X234981Y109641D02*
X234979Y109540D01*
X234973Y109439D01*
X234964Y109338D01*
X234951Y109237D01*
X234934Y109137D01*
X234913Y109038D01*
X234889Y108940D01*
X234861Y108843D01*
X234829Y108746D01*
X234794Y108651D01*
X234755Y108558D01*
X234713Y108466D01*
X234667Y108375D01*
X234618Y108286D01*
X234566Y108200D01*
X234510Y108115D01*
X234452Y108032D01*
X234390Y107952D01*
X234325Y107874D01*
X234258Y107798D01*
X234188Y107725D01*
X234115Y107655D01*
X234039Y107588D01*
X233961Y107523D01*
X233881Y107461D01*
X233798Y107403D01*
X233713Y107347D01*
X233627Y107295D01*
X233538Y107246D01*
X233447Y107200D01*
X233355Y107158D01*
X233262Y107119D01*
X233167Y107084D01*
X233070Y107052D01*
X232973Y107024D01*
X232875Y107000D01*
X232776Y106979D01*
X232676Y106962D01*
X232575Y106949D01*
X232474Y106940D01*
X232373Y106934D01*
X232272Y106932D01*
X231369Y106932D01*
X306804Y93809D02*
X309513Y93809D01*
X309513Y93808D02*
X309614Y93806D01*
X309715Y93800D01*
X309816Y93791D01*
X309917Y93778D01*
X310017Y93761D01*
X310116Y93740D01*
X310214Y93716D01*
X310311Y93688D01*
X310408Y93656D01*
X310503Y93621D01*
X310596Y93582D01*
X310688Y93540D01*
X310779Y93494D01*
X310868Y93445D01*
X310954Y93393D01*
X311039Y93337D01*
X311122Y93279D01*
X311202Y93217D01*
X311280Y93152D01*
X311356Y93085D01*
X311429Y93015D01*
X311499Y92942D01*
X311566Y92866D01*
X311631Y92788D01*
X311693Y92708D01*
X311751Y92625D01*
X311807Y92540D01*
X311859Y92454D01*
X311908Y92365D01*
X311954Y92274D01*
X311996Y92182D01*
X312035Y92089D01*
X312070Y91994D01*
X312102Y91897D01*
X312130Y91800D01*
X312154Y91702D01*
X312175Y91603D01*
X312192Y91503D01*
X312205Y91402D01*
X312214Y91301D01*
X312220Y91200D01*
X312222Y91099D01*
X312222Y85681D01*
X312220Y85578D01*
X312214Y85476D01*
X312205Y85374D01*
X312191Y85272D01*
X312174Y85171D01*
X312152Y85071D01*
X312127Y84972D01*
X312099Y84873D01*
X312066Y84776D01*
X312030Y84680D01*
X311991Y84585D01*
X311947Y84492D01*
X311901Y84401D01*
X311850Y84312D01*
X311797Y84224D01*
X311740Y84139D01*
X311680Y84056D01*
X311617Y83975D01*
X311551Y83896D01*
X311482Y83821D01*
X311410Y83747D01*
X311336Y83677D01*
X311259Y83609D01*
X311179Y83545D01*
X311097Y83483D01*
X311013Y83425D01*
X310926Y83370D01*
X310838Y83318D01*
X310747Y83270D01*
X310655Y83225D01*
X310562Y83183D01*
X310466Y83145D01*
X310370Y83111D01*
X310272Y83080D01*
X310173Y83054D01*
X310073Y83030D01*
X309972Y83011D01*
X309871Y82996D01*
X309769Y82984D01*
X309667Y82976D01*
X309564Y82972D01*
X309462Y82972D01*
X309359Y82976D01*
X309257Y82984D01*
X309155Y82996D01*
X309054Y83011D01*
X308953Y83030D01*
X308853Y83054D01*
X308754Y83080D01*
X308656Y83111D01*
X308560Y83145D01*
X308464Y83183D01*
X308371Y83225D01*
X308279Y83270D01*
X308188Y83318D01*
X308100Y83370D01*
X308013Y83425D01*
X307929Y83483D01*
X307847Y83545D01*
X307767Y83609D01*
X307690Y83677D01*
X307616Y83747D01*
X307544Y83821D01*
X307475Y83896D01*
X307409Y83975D01*
X307346Y84056D01*
X307286Y84139D01*
X307229Y84224D01*
X307176Y84312D01*
X307125Y84401D01*
X307079Y84492D01*
X307035Y84585D01*
X306996Y84680D01*
X306960Y84776D01*
X306927Y84873D01*
X306899Y84972D01*
X306874Y85071D01*
X306852Y85171D01*
X306835Y85272D01*
X306821Y85374D01*
X306812Y85476D01*
X306806Y85578D01*
X306804Y85681D01*
X306804Y85229D02*
X306804Y93809D01*
X306804Y85229D02*
X306802Y85136D01*
X306796Y85043D01*
X306787Y84950D01*
X306773Y84857D01*
X306756Y84766D01*
X306735Y84675D01*
X306710Y84585D01*
X306682Y84496D01*
X306650Y84408D01*
X306614Y84322D01*
X306575Y84237D01*
X306532Y84154D01*
X306486Y84073D01*
X306436Y83994D01*
X306384Y83917D01*
X306328Y83842D01*
X306269Y83770D01*
X306207Y83700D01*
X306143Y83632D01*
X306075Y83568D01*
X306005Y83506D01*
X305933Y83447D01*
X305858Y83391D01*
X305781Y83339D01*
X305702Y83289D01*
X305621Y83243D01*
X305538Y83200D01*
X305453Y83161D01*
X305367Y83125D01*
X305279Y83093D01*
X305190Y83065D01*
X305100Y83040D01*
X305009Y83019D01*
X304918Y83002D01*
X304825Y82988D01*
X304732Y82979D01*
X304639Y82973D01*
X304546Y82971D01*
X304453Y82973D01*
X304360Y82979D01*
X304267Y82988D01*
X304174Y83002D01*
X304083Y83019D01*
X303992Y83040D01*
X303902Y83065D01*
X303813Y83093D01*
X303725Y83125D01*
X303639Y83161D01*
X303554Y83200D01*
X303471Y83243D01*
X303390Y83289D01*
X303311Y83339D01*
X303234Y83391D01*
X303159Y83447D01*
X303087Y83506D01*
X303017Y83568D01*
X302949Y83632D01*
X302885Y83700D01*
X302823Y83770D01*
X302764Y83842D01*
X302708Y83917D01*
X302656Y83994D01*
X302606Y84073D01*
X302560Y84154D01*
X302517Y84237D01*
X302478Y84322D01*
X302442Y84408D01*
X302410Y84496D01*
X302382Y84585D01*
X302357Y84675D01*
X302336Y84766D01*
X302319Y84857D01*
X302305Y84950D01*
X302296Y85043D01*
X302290Y85136D01*
X302288Y85229D01*
X302288Y92002D01*
X302290Y92178D01*
X302297Y92354D01*
X302307Y92529D01*
X302322Y92705D01*
X302341Y92880D01*
X302365Y93054D01*
X302393Y93228D01*
X302425Y93401D01*
X302461Y93573D01*
X302501Y93744D01*
X302546Y93914D01*
X302594Y94084D01*
X302647Y94251D01*
X302704Y94418D01*
X302765Y94583D01*
X302830Y94747D01*
X302898Y94908D01*
X302971Y95069D01*
X303048Y95227D01*
X303128Y95384D01*
X303212Y95538D01*
X303300Y95690D01*
X303392Y95841D01*
X303487Y95989D01*
X303586Y96134D01*
X303689Y96277D01*
X303794Y96418D01*
X303904Y96556D01*
X304016Y96691D01*
X304132Y96823D01*
X304251Y96953D01*
X304373Y97080D01*
X304498Y97203D01*
X304626Y97324D01*
X304758Y97441D01*
X304891Y97555D01*
X305028Y97666D01*
X305167Y97774D01*
X305309Y97878D01*
X305453Y97979D01*
X305600Y98076D01*
X305749Y98169D01*
X305901Y98259D01*
X306054Y98345D01*
X306209Y98427D01*
X306367Y98506D01*
X306526Y98581D01*
X306687Y98652D01*
X306850Y98718D01*
X307014Y98781D01*
X307180Y98840D01*
X307347Y98895D01*
X307516Y98945D01*
X307686Y98992D01*
X307856Y99034D01*
X308028Y99073D01*
X308201Y99107D01*
X308374Y99137D01*
X308548Y99162D01*
X308723Y99184D01*
X308898Y99201D01*
X309073Y99214D01*
X309249Y99222D01*
X309425Y99226D01*
X309601Y99226D01*
X309777Y99222D01*
X309953Y99214D01*
X310128Y99201D01*
X310303Y99184D01*
X310478Y99162D01*
X310652Y99137D01*
X310825Y99107D01*
X310998Y99073D01*
X311170Y99034D01*
X311340Y98992D01*
X311510Y98945D01*
X311679Y98895D01*
X311846Y98840D01*
X312012Y98781D01*
X312176Y98718D01*
X312339Y98652D01*
X312500Y98581D01*
X312659Y98506D01*
X312817Y98427D01*
X312972Y98345D01*
X313126Y98259D01*
X313277Y98169D01*
X313426Y98076D01*
X313573Y97979D01*
X313717Y97878D01*
X313859Y97774D01*
X313998Y97666D01*
X314135Y97555D01*
X314268Y97441D01*
X314400Y97324D01*
X314528Y97203D01*
X314653Y97080D01*
X314775Y96953D01*
X314894Y96823D01*
X315010Y96691D01*
X315122Y96556D01*
X315232Y96418D01*
X315337Y96277D01*
X315440Y96134D01*
X315539Y95989D01*
X315634Y95841D01*
X315726Y95690D01*
X315814Y95538D01*
X315898Y95384D01*
X315978Y95227D01*
X316055Y95069D01*
X316128Y94908D01*
X316196Y94747D01*
X316261Y94583D01*
X316322Y94418D01*
X316379Y94251D01*
X316432Y94084D01*
X316480Y93914D01*
X316525Y93744D01*
X316565Y93573D01*
X316601Y93401D01*
X316633Y93228D01*
X316661Y93054D01*
X316685Y92880D01*
X316704Y92705D01*
X316719Y92529D01*
X316729Y92354D01*
X316736Y92178D01*
X316738Y92002D01*
X316738Y84326D01*
X316736Y84162D01*
X316730Y83997D01*
X316720Y83833D01*
X316706Y83669D01*
X316688Y83506D01*
X316666Y83343D01*
X316641Y83180D01*
X316611Y83019D01*
X316577Y82858D01*
X316540Y82698D01*
X316498Y82538D01*
X316453Y82380D01*
X316404Y82223D01*
X316351Y82068D01*
X316295Y81913D01*
X316234Y81760D01*
X316170Y81609D01*
X316103Y81459D01*
X316032Y81311D01*
X315957Y81164D01*
X315878Y81020D01*
X315797Y80877D01*
X315711Y80736D01*
X315623Y80598D01*
X315531Y80461D01*
X315435Y80327D01*
X315337Y80196D01*
X315235Y80066D01*
X315131Y79940D01*
X315023Y79815D01*
X314912Y79694D01*
X314798Y79575D01*
X314682Y79459D01*
X314563Y79346D01*
X314441Y79235D01*
X314316Y79128D01*
X314189Y79024D01*
X314059Y78923D01*
X313927Y78825D01*
X313793Y78730D01*
X313656Y78638D01*
X313517Y78550D01*
X313376Y78466D01*
X313233Y78384D01*
X313088Y78307D01*
X312942Y78232D01*
X312793Y78162D01*
X312643Y78094D01*
X312491Y78031D01*
X312338Y77971D01*
X312184Y77915D01*
X312028Y77863D01*
X311870Y77815D01*
X311712Y77770D01*
X311553Y77729D01*
X311393Y77692D01*
X311232Y77659D01*
X311070Y77630D01*
X310907Y77605D01*
X310744Y77584D01*
X310581Y77566D01*
X310417Y77553D01*
X294295Y74843D02*
X294295Y91099D01*
X289779Y91099D01*
X289675Y91097D01*
X289572Y91091D01*
X289468Y91081D01*
X289365Y91067D01*
X289263Y91049D01*
X289162Y91028D01*
X289061Y91002D01*
X288962Y90973D01*
X288863Y90940D01*
X288766Y90903D01*
X288671Y90862D01*
X288577Y90818D01*
X288485Y90770D01*
X288395Y90719D01*
X288306Y90664D01*
X288220Y90606D01*
X288137Y90544D01*
X288055Y90480D01*
X287977Y90412D01*
X287901Y90342D01*
X287827Y90269D01*
X287757Y90192D01*
X287689Y90114D01*
X287625Y90032D01*
X287563Y89949D01*
X287505Y89863D01*
X287450Y89774D01*
X287399Y89684D01*
X287351Y89592D01*
X287307Y89498D01*
X287266Y89403D01*
X287229Y89306D01*
X287196Y89207D01*
X287167Y89108D01*
X287141Y89007D01*
X287120Y88906D01*
X287102Y88804D01*
X287088Y88701D01*
X287078Y88597D01*
X287072Y88494D01*
X287070Y88390D01*
X287070Y82971D01*
X287072Y82870D01*
X287078Y82769D01*
X287087Y82668D01*
X287100Y82567D01*
X287117Y82467D01*
X287138Y82368D01*
X287162Y82270D01*
X287190Y82173D01*
X287222Y82076D01*
X287257Y81981D01*
X287296Y81888D01*
X287338Y81796D01*
X287384Y81705D01*
X287433Y81616D01*
X287485Y81530D01*
X287541Y81445D01*
X287599Y81362D01*
X287661Y81282D01*
X287726Y81204D01*
X287793Y81128D01*
X287863Y81055D01*
X287936Y80985D01*
X288012Y80918D01*
X288090Y80853D01*
X288170Y80791D01*
X288253Y80733D01*
X288338Y80677D01*
X288425Y80625D01*
X288513Y80576D01*
X288604Y80530D01*
X288696Y80488D01*
X288789Y80449D01*
X288884Y80414D01*
X288981Y80382D01*
X289078Y80354D01*
X289176Y80330D01*
X289275Y80309D01*
X289375Y80292D01*
X289476Y80279D01*
X289577Y80270D01*
X289678Y80264D01*
X289779Y80262D01*
X294295Y80262D01*
X280682Y88390D02*
X280678Y88710D01*
X280667Y89029D01*
X280648Y89349D01*
X280621Y89667D01*
X280587Y89985D01*
X280545Y90302D01*
X280495Y90618D01*
X280438Y90933D01*
X280374Y91246D01*
X280302Y91558D01*
X280223Y91868D01*
X280136Y92175D01*
X280042Y92481D01*
X279941Y92784D01*
X279832Y93085D01*
X279717Y93383D01*
X279594Y93679D01*
X279464Y93971D01*
X279327Y94260D01*
X279328Y94261D02*
X279289Y94369D01*
X279246Y94476D01*
X279200Y94581D01*
X279149Y94685D01*
X279096Y94787D01*
X279039Y94887D01*
X278978Y94985D01*
X278914Y95080D01*
X278847Y95174D01*
X278776Y95265D01*
X278703Y95354D01*
X278626Y95440D01*
X278547Y95523D01*
X278465Y95604D01*
X278380Y95682D01*
X278292Y95756D01*
X278202Y95828D01*
X278110Y95896D01*
X278015Y95962D01*
X277918Y96024D01*
X277819Y96082D01*
X277717Y96138D01*
X277615Y96189D01*
X277510Y96237D01*
X277404Y96282D01*
X277296Y96323D01*
X277187Y96360D01*
X277077Y96393D01*
X276965Y96422D01*
X276853Y96448D01*
X276740Y96470D01*
X276626Y96487D01*
X276512Y96501D01*
X276397Y96511D01*
X276282Y96517D01*
X276167Y96519D01*
X276167Y96518D02*
X276052Y96516D01*
X275937Y96510D01*
X275822Y96500D01*
X275708Y96486D01*
X275594Y96469D01*
X275481Y96447D01*
X275369Y96421D01*
X275257Y96392D01*
X275147Y96359D01*
X275038Y96322D01*
X274930Y96281D01*
X274824Y96236D01*
X274720Y96188D01*
X274617Y96137D01*
X274516Y96081D01*
X274416Y96023D01*
X274319Y95961D01*
X274225Y95896D01*
X274132Y95827D01*
X274042Y95755D01*
X273954Y95681D01*
X273869Y95603D01*
X273787Y95522D01*
X273708Y95439D01*
X273631Y95353D01*
X273558Y95264D01*
X273487Y95173D01*
X273420Y95079D01*
X273356Y94984D01*
X273295Y94886D01*
X273238Y94786D01*
X273185Y94684D01*
X273134Y94580D01*
X273088Y94475D01*
X273045Y94368D01*
X273006Y94260D01*
X272869Y93971D01*
X272739Y93679D01*
X272616Y93383D01*
X272501Y93085D01*
X272392Y92784D01*
X272291Y92481D01*
X272197Y92175D01*
X272110Y91868D01*
X272031Y91558D01*
X271959Y91246D01*
X271895Y90933D01*
X271838Y90618D01*
X271788Y90302D01*
X271746Y89985D01*
X271712Y89667D01*
X271685Y89349D01*
X271666Y89029D01*
X271655Y88710D01*
X271651Y88390D01*
X280682Y88390D02*
X280678Y88070D01*
X280667Y87751D01*
X280648Y87431D01*
X280621Y87113D01*
X280587Y86795D01*
X280545Y86478D01*
X280495Y86162D01*
X280438Y85847D01*
X280374Y85534D01*
X280302Y85222D01*
X280223Y84912D01*
X280136Y84605D01*
X280042Y84299D01*
X279941Y83996D01*
X279832Y83695D01*
X279717Y83397D01*
X279594Y83101D01*
X279464Y82809D01*
X279327Y82520D01*
X279328Y82520D02*
X279289Y82412D01*
X279246Y82305D01*
X279200Y82200D01*
X279149Y82096D01*
X279096Y81994D01*
X279039Y81894D01*
X278978Y81796D01*
X278914Y81701D01*
X278847Y81607D01*
X278776Y81516D01*
X278703Y81427D01*
X278626Y81341D01*
X278547Y81258D01*
X278465Y81177D01*
X278380Y81099D01*
X278292Y81025D01*
X278202Y80953D01*
X278109Y80884D01*
X278015Y80819D01*
X277918Y80757D01*
X277818Y80699D01*
X277717Y80643D01*
X277615Y80592D01*
X277510Y80544D01*
X277404Y80499D01*
X277296Y80458D01*
X277187Y80421D01*
X277077Y80388D01*
X276965Y80359D01*
X276853Y80333D01*
X276740Y80311D01*
X276626Y80294D01*
X276512Y80280D01*
X276397Y80270D01*
X276282Y80264D01*
X276167Y80262D01*
X273006Y82520D02*
X272869Y82809D01*
X272739Y83101D01*
X272616Y83397D01*
X272501Y83695D01*
X272392Y83996D01*
X272291Y84299D01*
X272197Y84605D01*
X272110Y84912D01*
X272031Y85222D01*
X271959Y85534D01*
X271895Y85847D01*
X271838Y86162D01*
X271788Y86478D01*
X271746Y86795D01*
X271712Y87113D01*
X271685Y87431D01*
X271666Y87751D01*
X271655Y88070D01*
X271651Y88390D01*
X273006Y82520D02*
X273045Y82412D01*
X273088Y82305D01*
X273134Y82200D01*
X273185Y82096D01*
X273238Y81994D01*
X273296Y81894D01*
X273356Y81796D01*
X273420Y81701D01*
X273487Y81607D01*
X273558Y81516D01*
X273631Y81427D01*
X273708Y81341D01*
X273787Y81258D01*
X273869Y81177D01*
X273954Y81099D01*
X274042Y81025D01*
X274132Y80953D01*
X274225Y80884D01*
X274319Y80819D01*
X274416Y80757D01*
X274516Y80699D01*
X274617Y80643D01*
X274720Y80592D01*
X274824Y80544D01*
X274930Y80499D01*
X275038Y80458D01*
X275147Y80421D01*
X275257Y80388D01*
X275369Y80359D01*
X275481Y80333D01*
X275594Y80311D01*
X275708Y80294D01*
X275822Y80280D01*
X275937Y80270D01*
X276052Y80264D01*
X276167Y80262D01*
X279779Y83874D02*
X272554Y92906D01*
X264953Y96518D02*
X264953Y82971D01*
X264951Y82870D01*
X264945Y82769D01*
X264936Y82668D01*
X264923Y82567D01*
X264906Y82467D01*
X264885Y82368D01*
X264861Y82270D01*
X264833Y82173D01*
X264801Y82076D01*
X264766Y81981D01*
X264727Y81888D01*
X264685Y81796D01*
X264639Y81705D01*
X264590Y81616D01*
X264538Y81530D01*
X264482Y81445D01*
X264424Y81362D01*
X264362Y81282D01*
X264297Y81204D01*
X264230Y81128D01*
X264160Y81055D01*
X264087Y80985D01*
X264011Y80918D01*
X263933Y80853D01*
X263853Y80791D01*
X263770Y80733D01*
X263685Y80677D01*
X263599Y80625D01*
X263510Y80576D01*
X263419Y80530D01*
X263327Y80488D01*
X263234Y80449D01*
X263139Y80414D01*
X263042Y80382D01*
X262945Y80354D01*
X262847Y80330D01*
X262748Y80309D01*
X262648Y80292D01*
X262547Y80279D01*
X262446Y80270D01*
X262345Y80264D01*
X262244Y80262D01*
X256247Y80262D02*
X256247Y91099D01*
X250829Y91099D01*
X250829Y89293D01*
X246432Y78456D02*
X239208Y78456D01*
X547804Y138649D02*
X550513Y138649D01*
X550513Y138648D02*
X550614Y138646D01*
X550715Y138640D01*
X550816Y138631D01*
X550917Y138618D01*
X551017Y138601D01*
X551116Y138580D01*
X551214Y138556D01*
X551311Y138528D01*
X551408Y138496D01*
X551503Y138461D01*
X551596Y138422D01*
X551688Y138380D01*
X551779Y138334D01*
X551868Y138285D01*
X551954Y138233D01*
X552039Y138177D01*
X552122Y138119D01*
X552202Y138057D01*
X552280Y137992D01*
X552356Y137925D01*
X552429Y137855D01*
X552499Y137782D01*
X552566Y137706D01*
X552631Y137628D01*
X552693Y137548D01*
X552751Y137465D01*
X552807Y137380D01*
X552859Y137294D01*
X552908Y137205D01*
X552954Y137114D01*
X552996Y137022D01*
X553035Y136929D01*
X553070Y136834D01*
X553102Y136737D01*
X553130Y136640D01*
X553154Y136542D01*
X553175Y136443D01*
X553192Y136343D01*
X553205Y136242D01*
X553214Y136141D01*
X553220Y136040D01*
X553222Y135939D01*
X553222Y130521D01*
X553220Y130418D01*
X553214Y130316D01*
X553205Y130214D01*
X553191Y130112D01*
X553174Y130011D01*
X553152Y129911D01*
X553127Y129812D01*
X553099Y129713D01*
X553066Y129616D01*
X553030Y129520D01*
X552991Y129425D01*
X552947Y129332D01*
X552901Y129241D01*
X552850Y129152D01*
X552797Y129064D01*
X552740Y128979D01*
X552680Y128896D01*
X552617Y128815D01*
X552551Y128736D01*
X552482Y128661D01*
X552410Y128587D01*
X552336Y128517D01*
X552259Y128449D01*
X552179Y128385D01*
X552097Y128323D01*
X552013Y128265D01*
X551926Y128210D01*
X551838Y128158D01*
X551747Y128110D01*
X551655Y128065D01*
X551562Y128023D01*
X551466Y127985D01*
X551370Y127951D01*
X551272Y127920D01*
X551173Y127894D01*
X551073Y127870D01*
X550972Y127851D01*
X550871Y127836D01*
X550769Y127824D01*
X550667Y127816D01*
X550564Y127812D01*
X550462Y127812D01*
X550359Y127816D01*
X550257Y127824D01*
X550155Y127836D01*
X550054Y127851D01*
X549953Y127870D01*
X549853Y127894D01*
X549754Y127920D01*
X549656Y127951D01*
X549560Y127985D01*
X549464Y128023D01*
X549371Y128065D01*
X549279Y128110D01*
X549188Y128158D01*
X549100Y128210D01*
X549013Y128265D01*
X548929Y128323D01*
X548847Y128385D01*
X548767Y128449D01*
X548690Y128517D01*
X548616Y128587D01*
X548544Y128661D01*
X548475Y128736D01*
X548409Y128815D01*
X548346Y128896D01*
X548286Y128979D01*
X548229Y129064D01*
X548176Y129152D01*
X548125Y129241D01*
X548079Y129332D01*
X548035Y129425D01*
X547996Y129520D01*
X547960Y129616D01*
X547927Y129713D01*
X547899Y129812D01*
X547874Y129911D01*
X547852Y130011D01*
X547835Y130112D01*
X547821Y130214D01*
X547812Y130316D01*
X547806Y130418D01*
X547804Y130521D01*
X547804Y130069D02*
X547804Y138649D01*
X547804Y130069D02*
X547802Y129976D01*
X547796Y129883D01*
X547787Y129790D01*
X547773Y129697D01*
X547756Y129606D01*
X547735Y129515D01*
X547710Y129425D01*
X547682Y129336D01*
X547650Y129248D01*
X547614Y129162D01*
X547575Y129077D01*
X547532Y128994D01*
X547486Y128913D01*
X547436Y128834D01*
X547384Y128757D01*
X547328Y128682D01*
X547269Y128610D01*
X547207Y128540D01*
X547143Y128472D01*
X547075Y128408D01*
X547005Y128346D01*
X546933Y128287D01*
X546858Y128231D01*
X546781Y128179D01*
X546702Y128129D01*
X546621Y128083D01*
X546538Y128040D01*
X546453Y128001D01*
X546367Y127965D01*
X546279Y127933D01*
X546190Y127905D01*
X546100Y127880D01*
X546009Y127859D01*
X545918Y127842D01*
X545825Y127828D01*
X545732Y127819D01*
X545639Y127813D01*
X545546Y127811D01*
X545453Y127813D01*
X545360Y127819D01*
X545267Y127828D01*
X545174Y127842D01*
X545083Y127859D01*
X544992Y127880D01*
X544902Y127905D01*
X544813Y127933D01*
X544725Y127965D01*
X544639Y128001D01*
X544554Y128040D01*
X544471Y128083D01*
X544390Y128129D01*
X544311Y128179D01*
X544234Y128231D01*
X544159Y128287D01*
X544087Y128346D01*
X544017Y128408D01*
X543949Y128472D01*
X543885Y128540D01*
X543823Y128610D01*
X543764Y128682D01*
X543708Y128757D01*
X543656Y128834D01*
X543606Y128913D01*
X543560Y128994D01*
X543517Y129077D01*
X543478Y129162D01*
X543442Y129248D01*
X543410Y129336D01*
X543382Y129425D01*
X543357Y129515D01*
X543336Y129606D01*
X543319Y129697D01*
X543305Y129790D01*
X543296Y129883D01*
X543290Y129976D01*
X543288Y130069D01*
X543288Y136842D01*
X543290Y137018D01*
X543297Y137194D01*
X543307Y137369D01*
X543322Y137545D01*
X543341Y137720D01*
X543365Y137894D01*
X543393Y138068D01*
X543425Y138241D01*
X543461Y138413D01*
X543501Y138584D01*
X543546Y138754D01*
X543594Y138924D01*
X543647Y139091D01*
X543704Y139258D01*
X543765Y139423D01*
X543830Y139587D01*
X543898Y139748D01*
X543971Y139909D01*
X544048Y140067D01*
X544128Y140224D01*
X544212Y140378D01*
X544300Y140530D01*
X544392Y140681D01*
X544487Y140829D01*
X544586Y140974D01*
X544689Y141117D01*
X544794Y141258D01*
X544904Y141396D01*
X545016Y141531D01*
X545132Y141663D01*
X545251Y141793D01*
X545373Y141920D01*
X545498Y142043D01*
X545626Y142164D01*
X545758Y142281D01*
X545891Y142395D01*
X546028Y142506D01*
X546167Y142614D01*
X546309Y142718D01*
X546453Y142819D01*
X546600Y142916D01*
X546749Y143009D01*
X546901Y143099D01*
X547054Y143185D01*
X547209Y143267D01*
X547367Y143346D01*
X547526Y143421D01*
X547687Y143492D01*
X547850Y143558D01*
X548014Y143621D01*
X548180Y143680D01*
X548347Y143735D01*
X548516Y143785D01*
X548686Y143832D01*
X548856Y143874D01*
X549028Y143913D01*
X549201Y143947D01*
X549374Y143977D01*
X549548Y144002D01*
X549723Y144024D01*
X549898Y144041D01*
X550073Y144054D01*
X550249Y144062D01*
X550425Y144066D01*
X550601Y144066D01*
X550777Y144062D01*
X550953Y144054D01*
X551128Y144041D01*
X551303Y144024D01*
X551478Y144002D01*
X551652Y143977D01*
X551825Y143947D01*
X551998Y143913D01*
X552170Y143874D01*
X552340Y143832D01*
X552510Y143785D01*
X552679Y143735D01*
X552846Y143680D01*
X553012Y143621D01*
X553176Y143558D01*
X553339Y143492D01*
X553500Y143421D01*
X553659Y143346D01*
X553817Y143267D01*
X553972Y143185D01*
X554126Y143099D01*
X554277Y143009D01*
X554426Y142916D01*
X554573Y142819D01*
X554717Y142718D01*
X554859Y142614D01*
X554998Y142506D01*
X555135Y142395D01*
X555268Y142281D01*
X555400Y142164D01*
X555528Y142043D01*
X555653Y141920D01*
X555775Y141793D01*
X555894Y141663D01*
X556010Y141531D01*
X556122Y141396D01*
X556232Y141258D01*
X556337Y141117D01*
X556440Y140974D01*
X556539Y140829D01*
X556634Y140681D01*
X556726Y140530D01*
X556814Y140378D01*
X556898Y140224D01*
X556978Y140067D01*
X557055Y139909D01*
X557128Y139748D01*
X557196Y139587D01*
X557261Y139423D01*
X557322Y139258D01*
X557379Y139091D01*
X557432Y138924D01*
X557480Y138754D01*
X557525Y138584D01*
X557565Y138413D01*
X557601Y138241D01*
X557633Y138068D01*
X557661Y137894D01*
X557685Y137720D01*
X557704Y137545D01*
X557719Y137369D01*
X557729Y137194D01*
X557736Y137018D01*
X557738Y136842D01*
X557738Y129166D01*
X557736Y129002D01*
X557730Y128837D01*
X557720Y128673D01*
X557706Y128509D01*
X557688Y128346D01*
X557666Y128183D01*
X557641Y128020D01*
X557611Y127859D01*
X557577Y127698D01*
X557540Y127538D01*
X557498Y127378D01*
X557453Y127220D01*
X557404Y127063D01*
X557351Y126908D01*
X557295Y126753D01*
X557234Y126600D01*
X557170Y126449D01*
X557103Y126299D01*
X557032Y126151D01*
X556957Y126004D01*
X556878Y125860D01*
X556797Y125717D01*
X556711Y125576D01*
X556623Y125438D01*
X556531Y125301D01*
X556435Y125167D01*
X556337Y125036D01*
X556235Y124906D01*
X556131Y124780D01*
X556023Y124655D01*
X555912Y124534D01*
X555798Y124415D01*
X555682Y124299D01*
X555563Y124186D01*
X555441Y124075D01*
X555316Y123968D01*
X555189Y123864D01*
X555059Y123763D01*
X554927Y123665D01*
X554793Y123570D01*
X554656Y123478D01*
X554517Y123390D01*
X554376Y123306D01*
X554233Y123224D01*
X554088Y123147D01*
X553942Y123072D01*
X553793Y123002D01*
X553643Y122934D01*
X553491Y122871D01*
X553338Y122811D01*
X553184Y122755D01*
X553028Y122703D01*
X552870Y122655D01*
X552712Y122610D01*
X552553Y122569D01*
X552393Y122532D01*
X552232Y122499D01*
X552070Y122470D01*
X551907Y122445D01*
X551744Y122424D01*
X551581Y122406D01*
X551417Y122393D01*
X535229Y125102D02*
X535229Y141358D01*
X530714Y141358D01*
X530583Y141356D01*
X530451Y141350D01*
X530320Y141341D01*
X530190Y141327D01*
X530059Y141310D01*
X529930Y141289D01*
X529801Y141265D01*
X529673Y141236D01*
X529545Y141204D01*
X529419Y141168D01*
X529294Y141129D01*
X529169Y141086D01*
X529047Y141039D01*
X528925Y140989D01*
X528805Y140935D01*
X528687Y140878D01*
X528571Y140817D01*
X528456Y140753D01*
X528343Y140686D01*
X528232Y140615D01*
X528124Y140541D01*
X528017Y140464D01*
X527913Y140384D01*
X527811Y140301D01*
X527712Y140216D01*
X527615Y140127D01*
X527521Y140035D01*
X527429Y139941D01*
X527340Y139844D01*
X527255Y139745D01*
X527172Y139643D01*
X527092Y139539D01*
X527015Y139432D01*
X526941Y139324D01*
X526870Y139213D01*
X526803Y139100D01*
X526739Y138985D01*
X526678Y138869D01*
X526621Y138751D01*
X526567Y138631D01*
X526517Y138509D01*
X526470Y138387D01*
X526427Y138262D01*
X526388Y138137D01*
X526352Y138011D01*
X526320Y137883D01*
X526291Y137755D01*
X526267Y137626D01*
X526246Y137497D01*
X526229Y137366D01*
X526215Y137236D01*
X526206Y137105D01*
X526200Y136973D01*
X526198Y136842D01*
X526198Y129618D01*
X526200Y129487D01*
X526206Y129355D01*
X526215Y129224D01*
X526229Y129094D01*
X526246Y128963D01*
X526267Y128834D01*
X526291Y128705D01*
X526320Y128577D01*
X526352Y128449D01*
X526388Y128323D01*
X526427Y128198D01*
X526470Y128073D01*
X526517Y127951D01*
X526567Y127829D01*
X526621Y127709D01*
X526678Y127591D01*
X526739Y127475D01*
X526803Y127360D01*
X526870Y127247D01*
X526941Y127136D01*
X527015Y127028D01*
X527092Y126921D01*
X527172Y126817D01*
X527255Y126715D01*
X527340Y126616D01*
X527429Y126519D01*
X527521Y126425D01*
X527615Y126333D01*
X527712Y126244D01*
X527811Y126159D01*
X527913Y126076D01*
X528017Y125996D01*
X528124Y125919D01*
X528232Y125845D01*
X528343Y125774D01*
X528456Y125707D01*
X528571Y125643D01*
X528687Y125582D01*
X528805Y125525D01*
X528925Y125471D01*
X529047Y125421D01*
X529169Y125374D01*
X529294Y125331D01*
X529419Y125292D01*
X529545Y125256D01*
X529673Y125224D01*
X529801Y125195D01*
X529930Y125171D01*
X530059Y125150D01*
X530190Y125133D01*
X530320Y125119D01*
X530451Y125110D01*
X530583Y125104D01*
X530714Y125102D01*
X535229Y125102D01*
X518526Y125102D02*
X511301Y125102D01*
X518526Y125102D02*
X518526Y141358D01*
X511301Y141358D01*
X513107Y134133D02*
X518526Y134133D01*
X506433Y125102D02*
X501014Y141358D01*
X495596Y125102D01*
X496950Y129166D02*
X505078Y129166D01*
X489377Y125102D02*
X489377Y141358D01*
X484862Y141358D01*
X484731Y141356D01*
X484599Y141350D01*
X484468Y141341D01*
X484338Y141327D01*
X484207Y141310D01*
X484078Y141289D01*
X483949Y141265D01*
X483821Y141236D01*
X483693Y141204D01*
X483567Y141168D01*
X483442Y141129D01*
X483317Y141086D01*
X483195Y141039D01*
X483073Y140989D01*
X482953Y140935D01*
X482835Y140878D01*
X482719Y140817D01*
X482604Y140753D01*
X482491Y140686D01*
X482380Y140615D01*
X482272Y140541D01*
X482165Y140464D01*
X482061Y140384D01*
X481959Y140301D01*
X481860Y140216D01*
X481763Y140127D01*
X481669Y140035D01*
X481577Y139941D01*
X481488Y139844D01*
X481403Y139745D01*
X481320Y139643D01*
X481240Y139539D01*
X481163Y139432D01*
X481089Y139324D01*
X481018Y139213D01*
X480951Y139100D01*
X480887Y138985D01*
X480826Y138869D01*
X480769Y138751D01*
X480715Y138631D01*
X480665Y138509D01*
X480618Y138387D01*
X480575Y138262D01*
X480536Y138137D01*
X480500Y138011D01*
X480468Y137883D01*
X480439Y137755D01*
X480415Y137626D01*
X480394Y137497D01*
X480377Y137366D01*
X480363Y137236D01*
X480354Y137105D01*
X480348Y136973D01*
X480346Y136842D01*
X480346Y129618D01*
X480348Y129487D01*
X480354Y129355D01*
X480363Y129224D01*
X480377Y129094D01*
X480394Y128963D01*
X480415Y128834D01*
X480439Y128705D01*
X480468Y128577D01*
X480500Y128449D01*
X480536Y128323D01*
X480575Y128198D01*
X480618Y128073D01*
X480665Y127951D01*
X480715Y127829D01*
X480769Y127709D01*
X480826Y127591D01*
X480887Y127475D01*
X480951Y127360D01*
X481018Y127247D01*
X481089Y127136D01*
X481163Y127028D01*
X481240Y126921D01*
X481320Y126817D01*
X481403Y126715D01*
X481488Y126616D01*
X481577Y126519D01*
X481669Y126425D01*
X481763Y126333D01*
X481860Y126244D01*
X481959Y126159D01*
X482061Y126076D01*
X482165Y125996D01*
X482272Y125919D01*
X482380Y125845D01*
X482491Y125774D01*
X482604Y125707D01*
X482719Y125643D01*
X482835Y125582D01*
X482953Y125525D01*
X483073Y125471D01*
X483195Y125421D01*
X483317Y125374D01*
X483442Y125331D01*
X483567Y125292D01*
X483693Y125256D01*
X483821Y125224D01*
X483949Y125195D01*
X484078Y125171D01*
X484207Y125150D01*
X484338Y125133D01*
X484468Y125119D01*
X484599Y125110D01*
X484731Y125104D01*
X484862Y125102D01*
X489377Y125102D01*
X473225Y137746D02*
X468710Y141358D01*
X468710Y125102D01*
X473225Y125102D02*
X464194Y125102D01*
X457594Y133230D02*
X457590Y133550D01*
X457579Y133869D01*
X457560Y134189D01*
X457533Y134507D01*
X457499Y134825D01*
X457457Y135142D01*
X457407Y135458D01*
X457350Y135773D01*
X457286Y136086D01*
X457214Y136398D01*
X457135Y136708D01*
X457048Y137015D01*
X456954Y137321D01*
X456853Y137624D01*
X456744Y137925D01*
X456629Y138223D01*
X456506Y138519D01*
X456376Y138811D01*
X456239Y139100D01*
X456239Y139101D02*
X456200Y139209D01*
X456157Y139316D01*
X456111Y139421D01*
X456060Y139525D01*
X456007Y139627D01*
X455950Y139727D01*
X455889Y139825D01*
X455825Y139920D01*
X455758Y140014D01*
X455687Y140105D01*
X455614Y140194D01*
X455537Y140280D01*
X455458Y140363D01*
X455376Y140444D01*
X455291Y140522D01*
X455203Y140596D01*
X455113Y140668D01*
X455021Y140736D01*
X454926Y140802D01*
X454829Y140864D01*
X454730Y140922D01*
X454628Y140978D01*
X454526Y141029D01*
X454421Y141077D01*
X454315Y141122D01*
X454207Y141163D01*
X454098Y141200D01*
X453988Y141233D01*
X453876Y141262D01*
X453764Y141288D01*
X453651Y141310D01*
X453537Y141327D01*
X453423Y141341D01*
X453308Y141351D01*
X453193Y141357D01*
X453078Y141359D01*
X453078Y141358D02*
X452963Y141356D01*
X452848Y141350D01*
X452733Y141340D01*
X452619Y141326D01*
X452505Y141309D01*
X452392Y141287D01*
X452280Y141261D01*
X452168Y141232D01*
X452058Y141199D01*
X451949Y141162D01*
X451841Y141121D01*
X451735Y141076D01*
X451631Y141028D01*
X451528Y140977D01*
X451427Y140921D01*
X451327Y140863D01*
X451230Y140801D01*
X451136Y140736D01*
X451043Y140667D01*
X450953Y140595D01*
X450865Y140521D01*
X450780Y140443D01*
X450698Y140362D01*
X450619Y140279D01*
X450542Y140193D01*
X450469Y140104D01*
X450398Y140013D01*
X450331Y139919D01*
X450267Y139824D01*
X450206Y139726D01*
X450149Y139626D01*
X450096Y139524D01*
X450045Y139420D01*
X449999Y139315D01*
X449956Y139208D01*
X449917Y139100D01*
X449918Y139100D02*
X449781Y138811D01*
X449651Y138519D01*
X449528Y138223D01*
X449413Y137925D01*
X449304Y137624D01*
X449203Y137321D01*
X449109Y137015D01*
X449022Y136708D01*
X448943Y136398D01*
X448871Y136086D01*
X448807Y135773D01*
X448750Y135458D01*
X448700Y135142D01*
X448658Y134825D01*
X448624Y134507D01*
X448597Y134189D01*
X448578Y133869D01*
X448567Y133550D01*
X448563Y133230D01*
X457594Y133230D02*
X457590Y132910D01*
X457579Y132591D01*
X457560Y132271D01*
X457533Y131953D01*
X457499Y131635D01*
X457457Y131318D01*
X457407Y131002D01*
X457350Y130687D01*
X457286Y130374D01*
X457214Y130062D01*
X457135Y129752D01*
X457048Y129445D01*
X456954Y129139D01*
X456853Y128836D01*
X456744Y128535D01*
X456629Y128237D01*
X456506Y127941D01*
X456376Y127649D01*
X456239Y127360D01*
X456200Y127252D01*
X456157Y127145D01*
X456111Y127040D01*
X456060Y126936D01*
X456007Y126834D01*
X455950Y126734D01*
X455889Y126636D01*
X455825Y126541D01*
X455758Y126447D01*
X455687Y126356D01*
X455614Y126267D01*
X455537Y126181D01*
X455458Y126098D01*
X455376Y126017D01*
X455291Y125939D01*
X455203Y125865D01*
X455113Y125793D01*
X455020Y125724D01*
X454926Y125659D01*
X454829Y125597D01*
X454729Y125539D01*
X454628Y125483D01*
X454526Y125432D01*
X454421Y125384D01*
X454315Y125339D01*
X454207Y125298D01*
X454098Y125261D01*
X453988Y125228D01*
X453876Y125199D01*
X453764Y125173D01*
X453651Y125151D01*
X453537Y125134D01*
X453423Y125120D01*
X453308Y125110D01*
X453193Y125104D01*
X453078Y125102D01*
X449918Y127360D02*
X449781Y127649D01*
X449651Y127941D01*
X449528Y128237D01*
X449413Y128535D01*
X449304Y128836D01*
X449203Y129139D01*
X449109Y129445D01*
X449022Y129752D01*
X448943Y130062D01*
X448871Y130374D01*
X448807Y130687D01*
X448750Y131002D01*
X448700Y131318D01*
X448658Y131635D01*
X448624Y131953D01*
X448597Y132271D01*
X448578Y132591D01*
X448567Y132910D01*
X448563Y133230D01*
X449917Y127360D02*
X449956Y127252D01*
X449999Y127145D01*
X450045Y127040D01*
X450096Y126936D01*
X450149Y126834D01*
X450207Y126734D01*
X450267Y126636D01*
X450331Y126541D01*
X450398Y126447D01*
X450469Y126356D01*
X450542Y126267D01*
X450619Y126181D01*
X450698Y126098D01*
X450780Y126017D01*
X450865Y125939D01*
X450953Y125865D01*
X451043Y125793D01*
X451136Y125724D01*
X451230Y125659D01*
X451327Y125597D01*
X451427Y125539D01*
X451528Y125483D01*
X451631Y125432D01*
X451735Y125384D01*
X451841Y125339D01*
X451949Y125298D01*
X452058Y125261D01*
X452168Y125228D01*
X452280Y125199D01*
X452392Y125173D01*
X452505Y125151D01*
X452619Y125134D01*
X452733Y125120D01*
X452848Y125110D01*
X452963Y125104D01*
X453078Y125102D01*
X456691Y128714D02*
X449466Y137746D01*
X438390Y125102D02*
X434777Y125102D01*
X438390Y125102D02*
X438508Y125104D01*
X438626Y125110D01*
X438744Y125119D01*
X438861Y125133D01*
X438978Y125150D01*
X439095Y125171D01*
X439210Y125196D01*
X439325Y125225D01*
X439439Y125258D01*
X439551Y125294D01*
X439662Y125334D01*
X439772Y125377D01*
X439881Y125424D01*
X439988Y125474D01*
X440093Y125529D01*
X440196Y125586D01*
X440297Y125647D01*
X440397Y125711D01*
X440494Y125778D01*
X440589Y125848D01*
X440681Y125922D01*
X440772Y125998D01*
X440859Y126078D01*
X440944Y126160D01*
X441026Y126245D01*
X441106Y126332D01*
X441182Y126423D01*
X441256Y126515D01*
X441326Y126610D01*
X441393Y126707D01*
X441457Y126807D01*
X441518Y126908D01*
X441575Y127011D01*
X441630Y127116D01*
X441680Y127223D01*
X441727Y127332D01*
X441770Y127442D01*
X441810Y127553D01*
X441846Y127665D01*
X441879Y127779D01*
X441908Y127894D01*
X441933Y128009D01*
X441954Y128126D01*
X441971Y128243D01*
X441985Y128360D01*
X441994Y128478D01*
X442000Y128596D01*
X442002Y128714D01*
X442002Y137746D01*
X442000Y137864D01*
X441994Y137982D01*
X441985Y138100D01*
X441971Y138217D01*
X441954Y138334D01*
X441933Y138451D01*
X441908Y138566D01*
X441879Y138681D01*
X441846Y138795D01*
X441810Y138907D01*
X441770Y139018D01*
X441727Y139128D01*
X441680Y139237D01*
X441630Y139344D01*
X441575Y139449D01*
X441518Y139552D01*
X441457Y139653D01*
X441393Y139753D01*
X441326Y139850D01*
X441256Y139945D01*
X441182Y140037D01*
X441106Y140128D01*
X441026Y140215D01*
X440944Y140300D01*
X440859Y140382D01*
X440772Y140462D01*
X440681Y140538D01*
X440589Y140612D01*
X440494Y140682D01*
X440397Y140749D01*
X440297Y140813D01*
X440196Y140874D01*
X440093Y140931D01*
X439988Y140986D01*
X439881Y141036D01*
X439772Y141083D01*
X439662Y141126D01*
X439551Y141166D01*
X439439Y141202D01*
X439325Y141235D01*
X439210Y141264D01*
X439095Y141289D01*
X438978Y141310D01*
X438861Y141327D01*
X438744Y141341D01*
X438626Y141350D01*
X438508Y141356D01*
X438390Y141358D01*
X434777Y141358D01*
X428937Y125102D02*
X423518Y125102D01*
X423400Y125104D01*
X423282Y125110D01*
X423164Y125119D01*
X423047Y125133D01*
X422930Y125150D01*
X422813Y125171D01*
X422698Y125196D01*
X422583Y125225D01*
X422469Y125258D01*
X422357Y125294D01*
X422246Y125334D01*
X422136Y125377D01*
X422027Y125424D01*
X421920Y125474D01*
X421815Y125529D01*
X421712Y125586D01*
X421611Y125647D01*
X421511Y125711D01*
X421414Y125778D01*
X421319Y125848D01*
X421227Y125922D01*
X421136Y125998D01*
X421049Y126078D01*
X420964Y126160D01*
X420882Y126245D01*
X420802Y126332D01*
X420726Y126423D01*
X420652Y126515D01*
X420582Y126610D01*
X420515Y126707D01*
X420451Y126807D01*
X420390Y126908D01*
X420333Y127011D01*
X420278Y127116D01*
X420228Y127223D01*
X420181Y127332D01*
X420138Y127442D01*
X420098Y127553D01*
X420062Y127665D01*
X420029Y127779D01*
X420000Y127894D01*
X419975Y128009D01*
X419954Y128126D01*
X419937Y128243D01*
X419923Y128360D01*
X419914Y128478D01*
X419908Y128596D01*
X419906Y128714D01*
X419906Y130521D01*
X419908Y130639D01*
X419914Y130757D01*
X419923Y130875D01*
X419937Y130992D01*
X419954Y131109D01*
X419975Y131226D01*
X420000Y131341D01*
X420029Y131456D01*
X420062Y131570D01*
X420098Y131682D01*
X420138Y131793D01*
X420181Y131903D01*
X420228Y132012D01*
X420278Y132119D01*
X420333Y132224D01*
X420390Y132327D01*
X420451Y132428D01*
X420515Y132528D01*
X420582Y132625D01*
X420652Y132720D01*
X420726Y132812D01*
X420802Y132903D01*
X420882Y132990D01*
X420964Y133075D01*
X421049Y133157D01*
X421136Y133237D01*
X421227Y133313D01*
X421319Y133387D01*
X421414Y133457D01*
X421511Y133524D01*
X421611Y133588D01*
X421712Y133649D01*
X421815Y133706D01*
X421920Y133761D01*
X422027Y133811D01*
X422136Y133858D01*
X422246Y133901D01*
X422357Y133941D01*
X422469Y133977D01*
X422583Y134010D01*
X422698Y134039D01*
X422813Y134064D01*
X422930Y134085D01*
X423047Y134102D01*
X423164Y134116D01*
X423282Y134125D01*
X423400Y134131D01*
X423518Y134133D01*
X428937Y134133D01*
X428937Y141358D01*
X419906Y141358D01*
X557738Y114688D02*
X557738Y98432D01*
X557738Y114688D02*
X553222Y114688D01*
X553091Y114686D01*
X552959Y114680D01*
X552828Y114671D01*
X552698Y114657D01*
X552567Y114640D01*
X552438Y114619D01*
X552309Y114595D01*
X552181Y114566D01*
X552053Y114534D01*
X551927Y114498D01*
X551802Y114459D01*
X551677Y114416D01*
X551555Y114369D01*
X551433Y114319D01*
X551313Y114265D01*
X551195Y114208D01*
X551079Y114147D01*
X550964Y114083D01*
X550851Y114016D01*
X550740Y113945D01*
X550632Y113871D01*
X550525Y113794D01*
X550421Y113714D01*
X550319Y113631D01*
X550220Y113546D01*
X550123Y113457D01*
X550029Y113365D01*
X549937Y113271D01*
X549848Y113174D01*
X549763Y113075D01*
X549680Y112973D01*
X549600Y112869D01*
X549523Y112762D01*
X549449Y112654D01*
X549378Y112543D01*
X549311Y112430D01*
X549247Y112315D01*
X549186Y112199D01*
X549129Y112081D01*
X549075Y111961D01*
X549025Y111839D01*
X548978Y111717D01*
X548935Y111592D01*
X548896Y111467D01*
X548860Y111341D01*
X548828Y111213D01*
X548799Y111085D01*
X548775Y110956D01*
X548754Y110827D01*
X548737Y110696D01*
X548723Y110566D01*
X548714Y110435D01*
X548708Y110303D01*
X548706Y110172D01*
X548707Y110172D02*
X548707Y102948D01*
X548706Y102948D02*
X548708Y102817D01*
X548714Y102685D01*
X548723Y102554D01*
X548737Y102424D01*
X548754Y102293D01*
X548775Y102164D01*
X548799Y102035D01*
X548828Y101907D01*
X548860Y101779D01*
X548896Y101653D01*
X548935Y101528D01*
X548978Y101403D01*
X549025Y101281D01*
X549075Y101159D01*
X549129Y101039D01*
X549186Y100921D01*
X549247Y100805D01*
X549311Y100690D01*
X549378Y100577D01*
X549449Y100466D01*
X549523Y100358D01*
X549600Y100251D01*
X549680Y100147D01*
X549763Y100045D01*
X549848Y99946D01*
X549937Y99849D01*
X550029Y99755D01*
X550123Y99663D01*
X550220Y99574D01*
X550319Y99489D01*
X550421Y99406D01*
X550525Y99326D01*
X550632Y99249D01*
X550740Y99175D01*
X550851Y99104D01*
X550964Y99037D01*
X551079Y98973D01*
X551195Y98912D01*
X551313Y98855D01*
X551433Y98801D01*
X551555Y98751D01*
X551677Y98704D01*
X551802Y98661D01*
X551927Y98622D01*
X552053Y98586D01*
X552181Y98554D01*
X552309Y98525D01*
X552438Y98501D01*
X552567Y98480D01*
X552698Y98463D01*
X552828Y98449D01*
X552959Y98440D01*
X553091Y98434D01*
X553222Y98432D01*
X557738Y98432D01*
X541035Y98432D02*
X533810Y98432D01*
X541035Y98432D02*
X541035Y114688D01*
X533810Y114688D01*
X535616Y107463D02*
X541035Y107463D01*
X527488Y114688D02*
X527488Y98432D01*
X527488Y114688D02*
X520263Y114688D01*
X520263Y107463D02*
X527488Y107463D01*
X510919Y98432D02*
X507306Y98432D01*
X510919Y98432D02*
X511037Y98434D01*
X511155Y98440D01*
X511273Y98449D01*
X511390Y98463D01*
X511507Y98480D01*
X511624Y98501D01*
X511739Y98526D01*
X511854Y98555D01*
X511968Y98588D01*
X512080Y98624D01*
X512191Y98664D01*
X512301Y98707D01*
X512410Y98754D01*
X512517Y98804D01*
X512622Y98859D01*
X512725Y98916D01*
X512826Y98977D01*
X512926Y99041D01*
X513023Y99108D01*
X513118Y99178D01*
X513210Y99252D01*
X513301Y99328D01*
X513388Y99408D01*
X513473Y99490D01*
X513555Y99575D01*
X513635Y99662D01*
X513711Y99753D01*
X513785Y99845D01*
X513855Y99940D01*
X513922Y100037D01*
X513986Y100137D01*
X514047Y100238D01*
X514104Y100341D01*
X514159Y100446D01*
X514209Y100553D01*
X514256Y100662D01*
X514299Y100772D01*
X514339Y100883D01*
X514375Y100995D01*
X514408Y101109D01*
X514437Y101224D01*
X514462Y101339D01*
X514483Y101456D01*
X514500Y101573D01*
X514514Y101690D01*
X514523Y101808D01*
X514529Y101926D01*
X514531Y102044D01*
X514531Y111076D01*
X514529Y111194D01*
X514523Y111312D01*
X514514Y111430D01*
X514500Y111547D01*
X514483Y111664D01*
X514462Y111781D01*
X514437Y111896D01*
X514408Y112011D01*
X514375Y112125D01*
X514339Y112237D01*
X514299Y112348D01*
X514256Y112458D01*
X514209Y112567D01*
X514159Y112674D01*
X514104Y112779D01*
X514047Y112882D01*
X513986Y112983D01*
X513922Y113083D01*
X513855Y113180D01*
X513785Y113275D01*
X513711Y113367D01*
X513635Y113458D01*
X513555Y113545D01*
X513473Y113630D01*
X513388Y113712D01*
X513301Y113792D01*
X513210Y113868D01*
X513118Y113942D01*
X513023Y114012D01*
X512926Y114079D01*
X512826Y114143D01*
X512725Y114204D01*
X512622Y114261D01*
X512517Y114316D01*
X512410Y114366D01*
X512301Y114413D01*
X512191Y114456D01*
X512080Y114496D01*
X511968Y114532D01*
X511854Y114565D01*
X511739Y114594D01*
X511624Y114619D01*
X511507Y114640D01*
X511390Y114657D01*
X511273Y114671D01*
X511155Y114680D01*
X511037Y114686D01*
X510919Y114688D01*
X507306Y114688D01*
X501466Y110172D02*
X501466Y102948D01*
X501466Y110172D02*
X501464Y110305D01*
X501458Y110437D01*
X501448Y110569D01*
X501435Y110701D01*
X501417Y110833D01*
X501396Y110963D01*
X501371Y111094D01*
X501342Y111223D01*
X501309Y111351D01*
X501273Y111479D01*
X501233Y111605D01*
X501189Y111730D01*
X501141Y111854D01*
X501090Y111976D01*
X501035Y112097D01*
X500977Y112216D01*
X500915Y112334D01*
X500850Y112449D01*
X500781Y112563D01*
X500710Y112674D01*
X500634Y112783D01*
X500556Y112890D01*
X500475Y112995D01*
X500390Y113097D01*
X500303Y113197D01*
X500213Y113294D01*
X500120Y113389D01*
X500024Y113480D01*
X499926Y113569D01*
X499825Y113655D01*
X499721Y113738D01*
X499615Y113818D01*
X499507Y113894D01*
X499397Y113968D01*
X499284Y114038D01*
X499170Y114105D01*
X499053Y114168D01*
X498935Y114228D01*
X498815Y114285D01*
X498693Y114338D01*
X498570Y114387D01*
X498446Y114433D01*
X498320Y114475D01*
X498193Y114513D01*
X498065Y114548D01*
X497936Y114579D01*
X497807Y114606D01*
X497676Y114629D01*
X497545Y114649D01*
X497413Y114664D01*
X497281Y114676D01*
X497149Y114684D01*
X497016Y114688D01*
X496884Y114688D01*
X496751Y114684D01*
X496619Y114676D01*
X496487Y114664D01*
X496355Y114649D01*
X496224Y114629D01*
X496093Y114606D01*
X495964Y114579D01*
X495835Y114548D01*
X495707Y114513D01*
X495580Y114475D01*
X495454Y114433D01*
X495330Y114387D01*
X495207Y114338D01*
X495085Y114285D01*
X494965Y114228D01*
X494847Y114168D01*
X494730Y114105D01*
X494616Y114038D01*
X494503Y113968D01*
X494393Y113894D01*
X494285Y113818D01*
X494179Y113738D01*
X494075Y113655D01*
X493974Y113569D01*
X493876Y113480D01*
X493780Y113389D01*
X493687Y113294D01*
X493597Y113197D01*
X493510Y113097D01*
X493425Y112995D01*
X493344Y112890D01*
X493266Y112783D01*
X493190Y112674D01*
X493119Y112563D01*
X493050Y112449D01*
X492985Y112334D01*
X492923Y112216D01*
X492865Y112097D01*
X492810Y111976D01*
X492759Y111854D01*
X492711Y111730D01*
X492667Y111605D01*
X492627Y111479D01*
X492591Y111351D01*
X492558Y111223D01*
X492529Y111094D01*
X492504Y110963D01*
X492483Y110833D01*
X492465Y110701D01*
X492452Y110569D01*
X492442Y110437D01*
X492436Y110305D01*
X492434Y110172D01*
X492435Y110172D02*
X492435Y102948D01*
X492434Y102948D02*
X492436Y102815D01*
X492442Y102683D01*
X492452Y102551D01*
X492465Y102419D01*
X492483Y102287D01*
X492504Y102157D01*
X492529Y102026D01*
X492558Y101897D01*
X492591Y101769D01*
X492627Y101641D01*
X492667Y101515D01*
X492711Y101390D01*
X492759Y101266D01*
X492810Y101144D01*
X492865Y101023D01*
X492923Y100904D01*
X492985Y100786D01*
X493050Y100671D01*
X493119Y100557D01*
X493190Y100446D01*
X493266Y100337D01*
X493344Y100230D01*
X493425Y100125D01*
X493510Y100023D01*
X493597Y99923D01*
X493687Y99826D01*
X493780Y99731D01*
X493876Y99640D01*
X493974Y99551D01*
X494075Y99465D01*
X494179Y99382D01*
X494285Y99302D01*
X494393Y99226D01*
X494503Y99152D01*
X494616Y99082D01*
X494730Y99015D01*
X494847Y98952D01*
X494965Y98892D01*
X495085Y98835D01*
X495207Y98782D01*
X495330Y98733D01*
X495454Y98687D01*
X495580Y98645D01*
X495707Y98607D01*
X495835Y98572D01*
X495964Y98541D01*
X496093Y98514D01*
X496224Y98491D01*
X496355Y98471D01*
X496487Y98456D01*
X496619Y98444D01*
X496751Y98436D01*
X496884Y98432D01*
X497016Y98432D01*
X497149Y98436D01*
X497281Y98444D01*
X497413Y98456D01*
X497545Y98471D01*
X497676Y98491D01*
X497807Y98514D01*
X497936Y98541D01*
X498065Y98572D01*
X498193Y98607D01*
X498320Y98645D01*
X498446Y98687D01*
X498570Y98733D01*
X498693Y98782D01*
X498815Y98835D01*
X498935Y98892D01*
X499053Y98952D01*
X499170Y99015D01*
X499284Y99082D01*
X499397Y99152D01*
X499507Y99226D01*
X499615Y99302D01*
X499721Y99382D01*
X499825Y99465D01*
X499926Y99551D01*
X500024Y99640D01*
X500120Y99731D01*
X500213Y99826D01*
X500303Y99923D01*
X500390Y100023D01*
X500475Y100125D01*
X500556Y100230D01*
X500634Y100337D01*
X500710Y100446D01*
X500781Y100557D01*
X500850Y100671D01*
X500915Y100786D01*
X500977Y100904D01*
X501035Y101023D01*
X501090Y101144D01*
X501141Y101266D01*
X501189Y101390D01*
X501233Y101515D01*
X501273Y101641D01*
X501309Y101769D01*
X501342Y101897D01*
X501371Y102026D01*
X501396Y102157D01*
X501417Y102287D01*
X501435Y102419D01*
X501448Y102551D01*
X501458Y102683D01*
X501464Y102815D01*
X501466Y102948D01*
X485313Y98432D02*
X485313Y114688D01*
X476282Y98432D01*
X476282Y114688D01*
X455857Y114688D02*
X455732Y114686D01*
X455607Y114680D01*
X455482Y114671D01*
X455358Y114657D01*
X455234Y114640D01*
X455110Y114619D01*
X454988Y114594D01*
X454866Y114565D01*
X454745Y114533D01*
X454625Y114497D01*
X454506Y114457D01*
X454389Y114414D01*
X454273Y114367D01*
X454158Y114316D01*
X454046Y114262D01*
X453934Y114204D01*
X453825Y114144D01*
X453718Y114079D01*
X453612Y114012D01*
X453509Y113941D01*
X453408Y113867D01*
X453309Y113790D01*
X453213Y113710D01*
X453119Y113627D01*
X453028Y113542D01*
X452939Y113453D01*
X452854Y113362D01*
X452771Y113268D01*
X452691Y113172D01*
X452614Y113073D01*
X452540Y112972D01*
X452469Y112869D01*
X452402Y112763D01*
X452337Y112656D01*
X452277Y112547D01*
X452219Y112435D01*
X452165Y112323D01*
X452114Y112208D01*
X452067Y112092D01*
X452024Y111975D01*
X451984Y111856D01*
X451948Y111736D01*
X451916Y111615D01*
X451887Y111493D01*
X451862Y111371D01*
X451841Y111247D01*
X451824Y111123D01*
X451810Y110999D01*
X451801Y110874D01*
X451795Y110749D01*
X451793Y110624D01*
X455857Y114688D02*
X456000Y114686D01*
X456142Y114680D01*
X456285Y114670D01*
X456427Y114657D01*
X456568Y114639D01*
X456710Y114618D01*
X456850Y114593D01*
X456990Y114564D01*
X457129Y114531D01*
X457267Y114494D01*
X457404Y114454D01*
X457539Y114410D01*
X457674Y114362D01*
X457807Y114310D01*
X457939Y114255D01*
X458069Y114196D01*
X458197Y114134D01*
X458324Y114068D01*
X458449Y113999D01*
X458572Y113927D01*
X458693Y113851D01*
X458811Y113772D01*
X458928Y113689D01*
X459042Y113604D01*
X459154Y113515D01*
X459263Y113424D01*
X459370Y113329D01*
X459475Y113232D01*
X459576Y113131D01*
X459675Y113028D01*
X459771Y112923D01*
X459864Y112814D01*
X459954Y112703D01*
X460041Y112590D01*
X460125Y112475D01*
X460205Y112357D01*
X460283Y112237D01*
X460357Y112115D01*
X460427Y111991D01*
X460495Y111865D01*
X460558Y111737D01*
X460619Y111608D01*
X460676Y111477D01*
X460729Y111345D01*
X460778Y111211D01*
X460824Y111076D01*
X453148Y107463D02*
X453054Y107555D01*
X452964Y107649D01*
X452876Y107746D01*
X452791Y107846D01*
X452709Y107948D01*
X452630Y108053D01*
X452555Y108160D01*
X452483Y108269D01*
X452414Y108380D01*
X452348Y108494D01*
X452286Y108609D01*
X452227Y108726D01*
X452172Y108845D01*
X452121Y108965D01*
X452073Y109087D01*
X452028Y109210D01*
X451988Y109334D01*
X451951Y109460D01*
X451918Y109587D01*
X451889Y109714D01*
X451863Y109843D01*
X451842Y109972D01*
X451824Y110102D01*
X451811Y110232D01*
X451801Y110362D01*
X451795Y110493D01*
X451793Y110624D01*
X453148Y107463D02*
X460824Y98432D01*
X451793Y98432D01*
X445193Y107463D02*
X439775Y107463D01*
X439657Y107461D01*
X439539Y107455D01*
X439421Y107446D01*
X439304Y107432D01*
X439187Y107415D01*
X439070Y107394D01*
X438955Y107369D01*
X438840Y107340D01*
X438726Y107307D01*
X438614Y107271D01*
X438503Y107231D01*
X438393Y107188D01*
X438284Y107141D01*
X438177Y107091D01*
X438072Y107036D01*
X437969Y106979D01*
X437868Y106918D01*
X437768Y106854D01*
X437671Y106787D01*
X437576Y106717D01*
X437484Y106643D01*
X437393Y106567D01*
X437306Y106487D01*
X437221Y106405D01*
X437139Y106320D01*
X437059Y106233D01*
X436983Y106142D01*
X436909Y106050D01*
X436839Y105955D01*
X436772Y105858D01*
X436708Y105758D01*
X436647Y105657D01*
X436590Y105554D01*
X436535Y105449D01*
X436485Y105342D01*
X436438Y105233D01*
X436395Y105123D01*
X436355Y105012D01*
X436319Y104900D01*
X436286Y104786D01*
X436257Y104671D01*
X436232Y104556D01*
X436211Y104439D01*
X436194Y104322D01*
X436180Y104205D01*
X436171Y104087D01*
X436165Y103969D01*
X436163Y103851D01*
X436162Y103851D02*
X436162Y102948D01*
X436164Y102815D01*
X436170Y102683D01*
X436180Y102551D01*
X436193Y102419D01*
X436211Y102287D01*
X436232Y102157D01*
X436257Y102026D01*
X436286Y101897D01*
X436319Y101769D01*
X436355Y101641D01*
X436395Y101515D01*
X436439Y101390D01*
X436487Y101266D01*
X436538Y101144D01*
X436593Y101023D01*
X436651Y100904D01*
X436713Y100786D01*
X436778Y100671D01*
X436847Y100557D01*
X436918Y100446D01*
X436994Y100337D01*
X437072Y100230D01*
X437153Y100125D01*
X437238Y100023D01*
X437325Y99923D01*
X437415Y99826D01*
X437508Y99731D01*
X437604Y99640D01*
X437702Y99551D01*
X437803Y99465D01*
X437907Y99382D01*
X438013Y99302D01*
X438121Y99226D01*
X438231Y99152D01*
X438344Y99082D01*
X438458Y99015D01*
X438575Y98952D01*
X438693Y98892D01*
X438813Y98835D01*
X438935Y98782D01*
X439058Y98733D01*
X439182Y98687D01*
X439308Y98645D01*
X439435Y98607D01*
X439563Y98572D01*
X439692Y98541D01*
X439821Y98514D01*
X439952Y98491D01*
X440083Y98471D01*
X440215Y98456D01*
X440347Y98444D01*
X440479Y98436D01*
X440612Y98432D01*
X440744Y98432D01*
X440877Y98436D01*
X441009Y98444D01*
X441141Y98456D01*
X441273Y98471D01*
X441404Y98491D01*
X441535Y98514D01*
X441664Y98541D01*
X441793Y98572D01*
X441921Y98607D01*
X442048Y98645D01*
X442174Y98687D01*
X442298Y98733D01*
X442421Y98782D01*
X442543Y98835D01*
X442663Y98892D01*
X442781Y98952D01*
X442898Y99015D01*
X443012Y99082D01*
X443125Y99152D01*
X443235Y99226D01*
X443343Y99302D01*
X443449Y99382D01*
X443553Y99465D01*
X443654Y99551D01*
X443752Y99640D01*
X443848Y99731D01*
X443941Y99826D01*
X444031Y99923D01*
X444118Y100023D01*
X444203Y100125D01*
X444284Y100230D01*
X444362Y100337D01*
X444438Y100446D01*
X444509Y100557D01*
X444578Y100671D01*
X444643Y100786D01*
X444705Y100904D01*
X444763Y101023D01*
X444818Y101144D01*
X444869Y101266D01*
X444917Y101390D01*
X444961Y101515D01*
X445001Y101641D01*
X445037Y101769D01*
X445070Y101897D01*
X445099Y102026D01*
X445124Y102157D01*
X445145Y102287D01*
X445163Y102419D01*
X445176Y102551D01*
X445186Y102683D01*
X445192Y102815D01*
X445194Y102948D01*
X445193Y102948D02*
X445193Y107463D01*
X445191Y107638D01*
X445185Y107812D01*
X445174Y107986D01*
X445159Y108160D01*
X445140Y108334D01*
X445117Y108507D01*
X445090Y108679D01*
X445058Y108851D01*
X445023Y109022D01*
X444983Y109192D01*
X444939Y109361D01*
X444891Y109529D01*
X444839Y109696D01*
X444783Y109861D01*
X444723Y110025D01*
X444660Y110188D01*
X444592Y110348D01*
X444520Y110508D01*
X444445Y110665D01*
X444365Y110821D01*
X444282Y110974D01*
X444196Y111126D01*
X444105Y111275D01*
X444011Y111422D01*
X443914Y111567D01*
X443813Y111710D01*
X443709Y111850D01*
X443601Y111987D01*
X443490Y112122D01*
X443376Y112254D01*
X443259Y112383D01*
X443138Y112510D01*
X443015Y112633D01*
X442888Y112754D01*
X442759Y112871D01*
X442627Y112985D01*
X442492Y113096D01*
X442355Y113204D01*
X442215Y113308D01*
X442072Y113409D01*
X441927Y113506D01*
X441780Y113600D01*
X441631Y113691D01*
X441479Y113777D01*
X441326Y113860D01*
X441170Y113940D01*
X441013Y114015D01*
X440853Y114087D01*
X440693Y114155D01*
X440530Y114218D01*
X440366Y114278D01*
X440201Y114334D01*
X440034Y114386D01*
X439866Y114434D01*
X439697Y114478D01*
X439527Y114518D01*
X439356Y114553D01*
X439184Y114585D01*
X439012Y114612D01*
X438839Y114635D01*
X438665Y114654D01*
X438491Y114669D01*
X438317Y114680D01*
X438143Y114686D01*
X437968Y114688D01*
X546901Y77181D02*
X557738Y77181D01*
X557738Y82599D02*
X546901Y82599D01*
X555029Y88018D02*
X555029Y71762D01*
X549610Y71762D02*
X549610Y88018D01*
X539951Y80793D02*
X535435Y80793D01*
X535435Y80794D02*
X535302Y80792D01*
X535170Y80786D01*
X535038Y80776D01*
X534906Y80763D01*
X534774Y80745D01*
X534644Y80724D01*
X534513Y80699D01*
X534384Y80670D01*
X534256Y80637D01*
X534128Y80601D01*
X534002Y80561D01*
X533877Y80517D01*
X533753Y80469D01*
X533631Y80418D01*
X533510Y80363D01*
X533391Y80305D01*
X533273Y80243D01*
X533158Y80178D01*
X533044Y80109D01*
X532933Y80038D01*
X532824Y79962D01*
X532717Y79884D01*
X532612Y79803D01*
X532510Y79718D01*
X532410Y79631D01*
X532313Y79541D01*
X532218Y79448D01*
X532127Y79352D01*
X532038Y79254D01*
X531952Y79153D01*
X531869Y79049D01*
X531789Y78943D01*
X531713Y78835D01*
X531639Y78725D01*
X531569Y78612D01*
X531502Y78498D01*
X531439Y78381D01*
X531379Y78263D01*
X531322Y78143D01*
X531269Y78021D01*
X531220Y77898D01*
X531174Y77774D01*
X531132Y77648D01*
X531094Y77521D01*
X531059Y77393D01*
X531028Y77264D01*
X531001Y77135D01*
X530978Y77004D01*
X530958Y76873D01*
X530943Y76741D01*
X530931Y76609D01*
X530923Y76477D01*
X530919Y76344D01*
X530919Y76212D01*
X530923Y76079D01*
X530931Y75947D01*
X530943Y75815D01*
X530958Y75683D01*
X530978Y75552D01*
X531001Y75421D01*
X531028Y75292D01*
X531059Y75163D01*
X531094Y75035D01*
X531132Y74908D01*
X531174Y74782D01*
X531220Y74658D01*
X531269Y74535D01*
X531322Y74413D01*
X531379Y74293D01*
X531439Y74175D01*
X531502Y74058D01*
X531569Y73944D01*
X531639Y73831D01*
X531713Y73721D01*
X531789Y73613D01*
X531869Y73507D01*
X531952Y73403D01*
X532038Y73302D01*
X532127Y73204D01*
X532218Y73108D01*
X532313Y73015D01*
X532410Y72925D01*
X532510Y72838D01*
X532612Y72753D01*
X532717Y72672D01*
X532824Y72594D01*
X532933Y72518D01*
X533044Y72447D01*
X533158Y72378D01*
X533273Y72313D01*
X533391Y72251D01*
X533510Y72193D01*
X533631Y72138D01*
X533753Y72087D01*
X533877Y72039D01*
X534002Y71995D01*
X534128Y71955D01*
X534256Y71919D01*
X534384Y71886D01*
X534513Y71857D01*
X534644Y71832D01*
X534774Y71811D01*
X534906Y71793D01*
X535038Y71780D01*
X535170Y71770D01*
X535302Y71764D01*
X535435Y71762D01*
X539951Y71762D01*
X539951Y88018D01*
X535435Y88018D01*
X535316Y88016D01*
X535196Y88010D01*
X535077Y88000D01*
X534959Y87986D01*
X534840Y87969D01*
X534723Y87947D01*
X534606Y87922D01*
X534491Y87892D01*
X534376Y87859D01*
X534262Y87822D01*
X534150Y87782D01*
X534039Y87737D01*
X533930Y87689D01*
X533822Y87638D01*
X533716Y87583D01*
X533612Y87524D01*
X533510Y87462D01*
X533410Y87397D01*
X533312Y87328D01*
X533216Y87256D01*
X533123Y87181D01*
X533033Y87104D01*
X532945Y87023D01*
X532860Y86939D01*
X532778Y86852D01*
X532698Y86763D01*
X532622Y86671D01*
X532548Y86577D01*
X532478Y86480D01*
X532411Y86382D01*
X532347Y86281D01*
X532287Y86177D01*
X532230Y86072D01*
X532177Y85965D01*
X532127Y85857D01*
X532081Y85747D01*
X532039Y85635D01*
X532000Y85522D01*
X531965Y85408D01*
X531934Y85293D01*
X531906Y85176D01*
X531883Y85059D01*
X531863Y84942D01*
X531847Y84823D01*
X531835Y84704D01*
X531827Y84585D01*
X531823Y84466D01*
X531823Y84346D01*
X531827Y84227D01*
X531835Y84108D01*
X531847Y83989D01*
X531863Y83870D01*
X531883Y83753D01*
X531906Y83636D01*
X531934Y83519D01*
X531965Y83404D01*
X532000Y83290D01*
X532039Y83177D01*
X532081Y83065D01*
X532127Y82955D01*
X532177Y82847D01*
X532230Y82740D01*
X532287Y82635D01*
X532347Y82531D01*
X532411Y82430D01*
X532478Y82332D01*
X532548Y82235D01*
X532622Y82141D01*
X532698Y82049D01*
X532778Y81960D01*
X532860Y81873D01*
X532945Y81789D01*
X533033Y81708D01*
X533123Y81631D01*
X533216Y81556D01*
X533312Y81484D01*
X533410Y81415D01*
X533510Y81350D01*
X533612Y81288D01*
X533716Y81229D01*
X533822Y81174D01*
X533930Y81123D01*
X534039Y81075D01*
X534150Y81030D01*
X534262Y80990D01*
X534376Y80953D01*
X534491Y80920D01*
X534606Y80890D01*
X534723Y80865D01*
X534840Y80843D01*
X534959Y80826D01*
X535077Y80812D01*
X535196Y80802D01*
X535316Y80796D01*
X535435Y80794D01*
X522103Y78084D02*
X518039Y78084D01*
X522103Y78084D02*
X522215Y78082D01*
X522326Y78076D01*
X522437Y78066D01*
X522548Y78053D01*
X522658Y78035D01*
X522767Y78013D01*
X522876Y77988D01*
X522984Y77959D01*
X523090Y77926D01*
X523196Y77889D01*
X523300Y77849D01*
X523402Y77805D01*
X523503Y77757D01*
X523602Y77706D01*
X523700Y77651D01*
X523795Y77593D01*
X523888Y77532D01*
X523979Y77467D01*
X524068Y77399D01*
X524154Y77328D01*
X524237Y77255D01*
X524318Y77178D01*
X524397Y77098D01*
X524472Y77016D01*
X524544Y76931D01*
X524614Y76844D01*
X524680Y76754D01*
X524743Y76662D01*
X524803Y76567D01*
X524859Y76471D01*
X524912Y76373D01*
X524961Y76273D01*
X525007Y76171D01*
X525049Y76068D01*
X525088Y75963D01*
X525123Y75857D01*
X525154Y75750D01*
X525181Y75642D01*
X525205Y75533D01*
X525224Y75423D01*
X525240Y75313D01*
X525252Y75202D01*
X525260Y75090D01*
X525264Y74979D01*
X525264Y74867D01*
X525260Y74756D01*
X525252Y74644D01*
X525240Y74533D01*
X525224Y74423D01*
X525205Y74313D01*
X525181Y74204D01*
X525154Y74096D01*
X525123Y73989D01*
X525088Y73883D01*
X525049Y73778D01*
X525007Y73675D01*
X524961Y73573D01*
X524912Y73473D01*
X524859Y73375D01*
X524803Y73279D01*
X524743Y73184D01*
X524680Y73092D01*
X524614Y73002D01*
X524544Y72915D01*
X524472Y72830D01*
X524397Y72748D01*
X524318Y72668D01*
X524237Y72591D01*
X524154Y72518D01*
X524068Y72447D01*
X523979Y72379D01*
X523888Y72314D01*
X523795Y72253D01*
X523700Y72195D01*
X523602Y72140D01*
X523503Y72089D01*
X523402Y72041D01*
X523300Y71997D01*
X523196Y71957D01*
X523090Y71920D01*
X522984Y71887D01*
X522876Y71858D01*
X522767Y71833D01*
X522658Y71811D01*
X522548Y71793D01*
X522437Y71780D01*
X522326Y71770D01*
X522215Y71764D01*
X522103Y71762D01*
X518039Y71762D01*
X518039Y79890D01*
X518041Y79991D01*
X518047Y80092D01*
X518056Y80193D01*
X518069Y80294D01*
X518086Y80394D01*
X518107Y80493D01*
X518131Y80591D01*
X518159Y80688D01*
X518191Y80785D01*
X518226Y80880D01*
X518265Y80973D01*
X518307Y81065D01*
X518353Y81156D01*
X518402Y81245D01*
X518454Y81331D01*
X518510Y81416D01*
X518568Y81499D01*
X518630Y81579D01*
X518695Y81657D01*
X518762Y81733D01*
X518832Y81806D01*
X518905Y81876D01*
X518981Y81943D01*
X519059Y82008D01*
X519139Y82070D01*
X519222Y82128D01*
X519307Y82184D01*
X519394Y82236D01*
X519482Y82285D01*
X519573Y82331D01*
X519665Y82373D01*
X519758Y82412D01*
X519853Y82447D01*
X519950Y82479D01*
X520047Y82507D01*
X520145Y82531D01*
X520244Y82552D01*
X520344Y82569D01*
X520445Y82582D01*
X520546Y82591D01*
X520647Y82597D01*
X520748Y82599D01*
X524361Y82599D01*
X503971Y88018D02*
X503971Y71762D01*
X508486Y71762D01*
X508587Y71764D01*
X508688Y71770D01*
X508789Y71779D01*
X508890Y71792D01*
X508990Y71809D01*
X509089Y71830D01*
X509187Y71854D01*
X509284Y71882D01*
X509381Y71914D01*
X509476Y71949D01*
X509569Y71988D01*
X509661Y72030D01*
X509752Y72076D01*
X509841Y72125D01*
X509927Y72177D01*
X510012Y72233D01*
X510095Y72291D01*
X510175Y72353D01*
X510253Y72418D01*
X510329Y72485D01*
X510402Y72555D01*
X510472Y72628D01*
X510539Y72704D01*
X510604Y72782D01*
X510666Y72862D01*
X510724Y72945D01*
X510780Y73030D01*
X510832Y73116D01*
X510881Y73205D01*
X510927Y73296D01*
X510969Y73388D01*
X511008Y73481D01*
X511043Y73576D01*
X511075Y73673D01*
X511103Y73770D01*
X511127Y73868D01*
X511148Y73967D01*
X511165Y74067D01*
X511178Y74168D01*
X511187Y74269D01*
X511193Y74370D01*
X511195Y74471D01*
X511196Y74471D02*
X511196Y79890D01*
X511195Y79890D02*
X511193Y79991D01*
X511187Y80092D01*
X511178Y80193D01*
X511165Y80294D01*
X511148Y80394D01*
X511127Y80493D01*
X511103Y80591D01*
X511075Y80688D01*
X511043Y80785D01*
X511008Y80880D01*
X510969Y80973D01*
X510927Y81065D01*
X510881Y81156D01*
X510832Y81245D01*
X510780Y81331D01*
X510724Y81416D01*
X510666Y81499D01*
X510604Y81579D01*
X510539Y81657D01*
X510472Y81733D01*
X510402Y81806D01*
X510329Y81876D01*
X510253Y81943D01*
X510175Y82008D01*
X510095Y82070D01*
X510012Y82128D01*
X509927Y82184D01*
X509841Y82236D01*
X509752Y82285D01*
X509661Y82331D01*
X509569Y82373D01*
X509476Y82412D01*
X509381Y82447D01*
X509284Y82479D01*
X509187Y82507D01*
X509089Y82531D01*
X508990Y82552D01*
X508890Y82569D01*
X508789Y82582D01*
X508688Y82591D01*
X508587Y82597D01*
X508486Y82599D01*
X503971Y82599D01*
X494418Y71762D02*
X489903Y71762D01*
X494418Y71762D02*
X494519Y71764D01*
X494620Y71770D01*
X494721Y71779D01*
X494822Y71792D01*
X494922Y71809D01*
X495021Y71830D01*
X495119Y71854D01*
X495216Y71882D01*
X495313Y71914D01*
X495408Y71949D01*
X495501Y71988D01*
X495593Y72030D01*
X495684Y72076D01*
X495773Y72125D01*
X495859Y72177D01*
X495944Y72233D01*
X496027Y72291D01*
X496107Y72353D01*
X496185Y72418D01*
X496261Y72485D01*
X496334Y72555D01*
X496404Y72628D01*
X496471Y72704D01*
X496536Y72782D01*
X496598Y72862D01*
X496656Y72945D01*
X496712Y73030D01*
X496764Y73116D01*
X496813Y73205D01*
X496859Y73296D01*
X496901Y73388D01*
X496940Y73481D01*
X496975Y73576D01*
X497007Y73673D01*
X497035Y73770D01*
X497059Y73868D01*
X497080Y73967D01*
X497097Y74067D01*
X497110Y74168D01*
X497119Y74269D01*
X497125Y74370D01*
X497127Y74471D01*
X497127Y79890D01*
X497125Y79991D01*
X497119Y80092D01*
X497110Y80193D01*
X497097Y80294D01*
X497080Y80394D01*
X497059Y80493D01*
X497035Y80591D01*
X497007Y80688D01*
X496975Y80785D01*
X496940Y80880D01*
X496901Y80973D01*
X496859Y81065D01*
X496813Y81156D01*
X496764Y81245D01*
X496712Y81331D01*
X496656Y81416D01*
X496598Y81499D01*
X496536Y81579D01*
X496471Y81657D01*
X496404Y81733D01*
X496334Y81806D01*
X496261Y81876D01*
X496185Y81943D01*
X496107Y82008D01*
X496027Y82070D01*
X495944Y82128D01*
X495859Y82184D01*
X495773Y82236D01*
X495684Y82285D01*
X495593Y82331D01*
X495501Y82373D01*
X495408Y82412D01*
X495313Y82447D01*
X495216Y82479D01*
X495119Y82507D01*
X495021Y82531D01*
X494922Y82552D01*
X494822Y82569D01*
X494721Y82582D01*
X494620Y82591D01*
X494519Y82597D01*
X494418Y82599D01*
X489903Y82599D01*
X489903Y69053D01*
X489905Y68952D01*
X489911Y68851D01*
X489920Y68750D01*
X489933Y68649D01*
X489950Y68549D01*
X489971Y68450D01*
X489995Y68352D01*
X490023Y68255D01*
X490055Y68158D01*
X490090Y68063D01*
X490129Y67970D01*
X490171Y67878D01*
X490217Y67787D01*
X490266Y67699D01*
X490318Y67612D01*
X490374Y67527D01*
X490432Y67444D01*
X490494Y67364D01*
X490559Y67286D01*
X490626Y67210D01*
X490696Y67137D01*
X490769Y67067D01*
X490845Y67000D01*
X490923Y66935D01*
X491003Y66873D01*
X491086Y66815D01*
X491171Y66759D01*
X491258Y66707D01*
X491346Y66658D01*
X491437Y66612D01*
X491529Y66570D01*
X491622Y66531D01*
X491717Y66496D01*
X491814Y66464D01*
X491911Y66436D01*
X492009Y66412D01*
X492108Y66391D01*
X492208Y66374D01*
X492309Y66361D01*
X492410Y66352D01*
X492511Y66346D01*
X492612Y66344D01*
X492612Y66343D02*
X496224Y66343D01*
X480277Y71762D02*
X475761Y71762D01*
X480277Y71762D02*
X480378Y71764D01*
X480479Y71770D01*
X480580Y71779D01*
X480681Y71792D01*
X480781Y71809D01*
X480880Y71830D01*
X480978Y71854D01*
X481075Y71882D01*
X481172Y71914D01*
X481267Y71949D01*
X481360Y71988D01*
X481452Y72030D01*
X481543Y72076D01*
X481632Y72125D01*
X481718Y72177D01*
X481803Y72233D01*
X481886Y72291D01*
X481966Y72353D01*
X482044Y72418D01*
X482120Y72485D01*
X482193Y72555D01*
X482263Y72628D01*
X482330Y72704D01*
X482395Y72782D01*
X482457Y72862D01*
X482515Y72945D01*
X482571Y73030D01*
X482623Y73116D01*
X482672Y73205D01*
X482718Y73296D01*
X482760Y73388D01*
X482799Y73481D01*
X482834Y73576D01*
X482866Y73673D01*
X482894Y73770D01*
X482918Y73868D01*
X482939Y73967D01*
X482956Y74067D01*
X482969Y74168D01*
X482978Y74269D01*
X482984Y74370D01*
X482986Y74471D01*
X482986Y78987D01*
X482984Y79106D01*
X482978Y79226D01*
X482968Y79345D01*
X482954Y79463D01*
X482937Y79582D01*
X482915Y79699D01*
X482890Y79816D01*
X482860Y79931D01*
X482827Y80046D01*
X482790Y80160D01*
X482750Y80272D01*
X482705Y80383D01*
X482657Y80492D01*
X482606Y80600D01*
X482551Y80706D01*
X482492Y80810D01*
X482430Y80912D01*
X482365Y81012D01*
X482296Y81110D01*
X482224Y81206D01*
X482149Y81299D01*
X482072Y81389D01*
X481991Y81477D01*
X481907Y81562D01*
X481820Y81644D01*
X481731Y81724D01*
X481639Y81800D01*
X481545Y81874D01*
X481448Y81944D01*
X481350Y82011D01*
X481249Y82075D01*
X481145Y82135D01*
X481040Y82192D01*
X480933Y82245D01*
X480825Y82295D01*
X480715Y82341D01*
X480603Y82383D01*
X480490Y82422D01*
X480376Y82457D01*
X480261Y82488D01*
X480144Y82516D01*
X480027Y82539D01*
X479910Y82559D01*
X479791Y82575D01*
X479672Y82587D01*
X479553Y82595D01*
X479434Y82599D01*
X479314Y82599D01*
X479195Y82595D01*
X479076Y82587D01*
X478957Y82575D01*
X478838Y82559D01*
X478721Y82539D01*
X478604Y82516D01*
X478487Y82488D01*
X478372Y82457D01*
X478258Y82422D01*
X478145Y82383D01*
X478033Y82341D01*
X477923Y82295D01*
X477815Y82245D01*
X477708Y82192D01*
X477603Y82135D01*
X477499Y82075D01*
X477398Y82011D01*
X477300Y81944D01*
X477203Y81874D01*
X477109Y81800D01*
X477017Y81724D01*
X476928Y81644D01*
X476841Y81562D01*
X476757Y81477D01*
X476676Y81389D01*
X476599Y81299D01*
X476524Y81206D01*
X476452Y81110D01*
X476383Y81012D01*
X476318Y80912D01*
X476256Y80810D01*
X476197Y80706D01*
X476142Y80600D01*
X476091Y80492D01*
X476043Y80383D01*
X475998Y80272D01*
X475958Y80160D01*
X475921Y80046D01*
X475888Y79931D01*
X475858Y79816D01*
X475833Y79699D01*
X475811Y79582D01*
X475794Y79463D01*
X475780Y79345D01*
X475770Y79226D01*
X475764Y79106D01*
X475762Y78987D01*
X475761Y78987D02*
X475761Y77181D01*
X482986Y77181D01*
X469202Y74471D02*
X469202Y88018D01*
X469202Y74471D02*
X469200Y74370D01*
X469194Y74269D01*
X469185Y74168D01*
X469172Y74067D01*
X469155Y73967D01*
X469134Y73868D01*
X469110Y73770D01*
X469082Y73673D01*
X469050Y73576D01*
X469015Y73481D01*
X468976Y73388D01*
X468934Y73296D01*
X468888Y73205D01*
X468839Y73116D01*
X468787Y73030D01*
X468731Y72945D01*
X468673Y72862D01*
X468611Y72782D01*
X468546Y72704D01*
X468479Y72628D01*
X468409Y72555D01*
X468336Y72485D01*
X468260Y72418D01*
X468182Y72353D01*
X468102Y72291D01*
X468019Y72233D01*
X467934Y72177D01*
X467848Y72125D01*
X467759Y72076D01*
X467668Y72030D01*
X467576Y71988D01*
X467483Y71949D01*
X467388Y71914D01*
X467291Y71882D01*
X467194Y71854D01*
X467096Y71830D01*
X466997Y71809D01*
X466897Y71792D01*
X466796Y71779D01*
X466695Y71770D01*
X466594Y71764D01*
X466493Y71762D01*
X461137Y71762D02*
X461137Y82599D01*
X461589Y87115D02*
X461589Y88018D01*
X460686Y88018D01*
X460686Y87115D01*
X461589Y87115D01*
X453962Y85309D02*
X453962Y71762D01*
X453962Y85309D02*
X453960Y85410D01*
X453954Y85511D01*
X453945Y85612D01*
X453932Y85713D01*
X453915Y85813D01*
X453894Y85912D01*
X453870Y86010D01*
X453842Y86107D01*
X453810Y86204D01*
X453775Y86299D01*
X453736Y86392D01*
X453694Y86484D01*
X453648Y86575D01*
X453599Y86664D01*
X453547Y86750D01*
X453491Y86835D01*
X453433Y86918D01*
X453371Y86998D01*
X453306Y87076D01*
X453239Y87152D01*
X453169Y87225D01*
X453096Y87295D01*
X453020Y87362D01*
X452942Y87427D01*
X452862Y87489D01*
X452779Y87547D01*
X452694Y87603D01*
X452608Y87655D01*
X452519Y87704D01*
X452428Y87750D01*
X452336Y87792D01*
X452243Y87831D01*
X452148Y87866D01*
X452051Y87898D01*
X451954Y87926D01*
X451856Y87950D01*
X451757Y87971D01*
X451657Y87988D01*
X451556Y88001D01*
X451455Y88010D01*
X451354Y88016D01*
X451253Y88018D01*
X450350Y88018D01*
X450350Y82599D02*
X455768Y82599D01*
X443283Y71762D02*
X438767Y71762D01*
X443283Y71762D02*
X443384Y71764D01*
X443485Y71770D01*
X443586Y71779D01*
X443687Y71792D01*
X443787Y71809D01*
X443886Y71830D01*
X443984Y71854D01*
X444081Y71882D01*
X444178Y71914D01*
X444273Y71949D01*
X444366Y71988D01*
X444458Y72030D01*
X444549Y72076D01*
X444638Y72125D01*
X444724Y72177D01*
X444809Y72233D01*
X444892Y72291D01*
X444972Y72353D01*
X445050Y72418D01*
X445126Y72485D01*
X445199Y72555D01*
X445269Y72628D01*
X445336Y72704D01*
X445401Y72782D01*
X445463Y72862D01*
X445521Y72945D01*
X445577Y73030D01*
X445629Y73116D01*
X445678Y73205D01*
X445724Y73296D01*
X445766Y73388D01*
X445805Y73481D01*
X445840Y73576D01*
X445872Y73673D01*
X445900Y73770D01*
X445924Y73868D01*
X445945Y73967D01*
X445962Y74067D01*
X445975Y74168D01*
X445984Y74269D01*
X445990Y74370D01*
X445992Y74471D01*
X445992Y78987D01*
X445990Y79106D01*
X445984Y79226D01*
X445974Y79345D01*
X445960Y79463D01*
X445943Y79582D01*
X445921Y79699D01*
X445896Y79816D01*
X445866Y79931D01*
X445833Y80046D01*
X445796Y80160D01*
X445756Y80272D01*
X445711Y80383D01*
X445663Y80492D01*
X445612Y80600D01*
X445557Y80706D01*
X445498Y80810D01*
X445436Y80912D01*
X445371Y81012D01*
X445302Y81110D01*
X445230Y81206D01*
X445155Y81299D01*
X445078Y81389D01*
X444997Y81477D01*
X444913Y81562D01*
X444826Y81644D01*
X444737Y81724D01*
X444645Y81800D01*
X444551Y81874D01*
X444454Y81944D01*
X444356Y82011D01*
X444255Y82075D01*
X444151Y82135D01*
X444046Y82192D01*
X443939Y82245D01*
X443831Y82295D01*
X443721Y82341D01*
X443609Y82383D01*
X443496Y82422D01*
X443382Y82457D01*
X443267Y82488D01*
X443150Y82516D01*
X443033Y82539D01*
X442916Y82559D01*
X442797Y82575D01*
X442678Y82587D01*
X442559Y82595D01*
X442440Y82599D01*
X442320Y82599D01*
X442201Y82595D01*
X442082Y82587D01*
X441963Y82575D01*
X441844Y82559D01*
X441727Y82539D01*
X441610Y82516D01*
X441493Y82488D01*
X441378Y82457D01*
X441264Y82422D01*
X441151Y82383D01*
X441039Y82341D01*
X440929Y82295D01*
X440821Y82245D01*
X440714Y82192D01*
X440609Y82135D01*
X440505Y82075D01*
X440404Y82011D01*
X440306Y81944D01*
X440209Y81874D01*
X440115Y81800D01*
X440023Y81724D01*
X439934Y81644D01*
X439847Y81562D01*
X439763Y81477D01*
X439682Y81389D01*
X439605Y81299D01*
X439530Y81206D01*
X439458Y81110D01*
X439389Y81012D01*
X439324Y80912D01*
X439262Y80810D01*
X439203Y80706D01*
X439148Y80600D01*
X439097Y80492D01*
X439049Y80383D01*
X439004Y80272D01*
X438964Y80160D01*
X438927Y80046D01*
X438894Y79931D01*
X438864Y79816D01*
X438839Y79699D01*
X438817Y79582D01*
X438800Y79463D01*
X438786Y79345D01*
X438776Y79226D01*
X438770Y79106D01*
X438768Y78987D01*
X438767Y78987D02*
X438767Y77181D01*
X445992Y77181D01*
D11*
X196050Y767400D02*
X196050Y805500D01*
X199050Y921400D02*
X199050Y959500D01*
X266300Y1075050D02*
X266300Y1113150D01*
X551050Y1114900D02*
X551050Y1076800D01*
X615300Y955650D02*
X615300Y917550D01*
X623550Y798150D02*
X623550Y760050D01*
M02*
